<?xml version="1.0" encoding="UTF-8" standalone="no"?>
<!DOCTYPE svg PUBLIC "-//W3C//DTD SVG 1.1//EN" "http://www.w3.org/Graphics/SVG/1.1/DTD/svg11.dtd">
<svg width="100%" height="100%" viewBox="0 0 57 57" version="1.1" xmlns="http://www.w3.org/2000/svg" xmlns:xlink="http://www.w3.org/1999/xlink" xml:space="preserve" style="fill-rule:evenodd;clip-rule:evenodd;stroke-linejoin:round;stroke-miterlimit:1.41421;">
    <g id="Artboard1" transform="matrix(0.814472,0,0,0.907983,-170.369,-196.077)">
        <rect x="209.177" y="215.948" width="69.549" height="62.391" style="fill:none;"/>
        <g transform="matrix(1.22779,0,0,1.10134,209.177,215.948)">
            <path d="M31.921,0.312C49.921,0.312 55.921,6.312 55.921,24.311L55.921,32.311C55.921,50.311 49.921,56.311 31.921,56.311L23.921,56.311C5.921,56.311 -0.079,50.311 -0.079,32.311L-0.079,24.311C-0.079,6.312 5.921,0.312 23.921,0.312L31.921,0.312ZM30.268,26.981L37.81,18.597C38.006,18.38 38.104,18.163 38.104,17.946C38.104,17.322 37.385,16.806 36.667,16.806C36.308,16.806 35.916,16.942 35.655,17.241L28.635,25.299L21.616,17.268C21.322,16.942 20.963,16.806 20.571,16.806C19.853,16.806 19.167,17.349 19.167,17.973C19.167,18.163 19.233,18.38 19.429,18.597L26.938,26.981L18.678,36.017C18.449,36.261 18.384,36.505 18.384,36.722C18.384,37.346 19.037,37.78 19.788,37.78C20.18,37.78 20.539,37.645 20.832,37.346L28.538,28.691L36.243,37.346C36.504,37.645 36.896,37.78 37.287,37.78C38.006,37.78 38.691,37.265 38.691,36.668C38.691,36.451 38.593,36.234 38.397,35.989L30.268,26.981Z" style="fill:rgb(189,87,51);"/>
        </g>
    </g>
</svg>
