<?xml version="1.0" encoding="UTF-8" standalone="no"?>
<!DOCTYPE svg PUBLIC "-//W3C//DTD SVG 1.1//EN" "http://www.w3.org/Graphics/SVG/1.1/DTD/svg11.dtd">
<svg width="100%" height="100%" viewBox="0 0 56 59" version="1.1" xmlns="http://www.w3.org/2000/svg" xmlns:xlink="http://www.w3.org/1999/xlink" xml:space="preserve" style="fill-rule:evenodd;clip-rule:evenodd;stroke-linejoin:round;stroke-miterlimit:1.41421;">
    <g id="Artboard1" transform="matrix(1,0,0,1,-392.92,-234.972)">
        <rect x="393.484" y="234.779" width="28.517" height="29.438" style="fill:none;"/>
        <g transform="matrix(1,0,0,1,-298.972,-1608.6)">
            <path d="M746,1875.71C746,1892.43 740.429,1898 723.715,1898L716.286,1898C699.571,1898 694,1892.43 694,1875.71L694,1868.28C694,1851.57 699.571,1846 716.286,1846L723.715,1846C740.429,1846 746,1851.57 746,1868.28L746,1875.71ZM724,1844L716,1844C698,1844 692,1850 692,1868L692,1876C692,1894 698,1900 716,1900L724,1900C742,1900 748,1894 748,1876L748,1868C748,1850 742,1844 724,1844" style="fill:rgb(189,87,51);fill-rule:nonzero;"/>
        </g>
        <g transform="matrix(1.21659,-1.87811e-18,-9.39057e-19,1.01107,410.167,272.707)">
            <path d="M10.627,-10.654L16.826,-18.946C16.987,-19.161 17.068,-19.376 17.068,-19.59C17.068,-20.208 16.477,-20.717 15.887,-20.717C15.592,-20.717 15.27,-20.583 15.055,-20.288L9.285,-12.318L3.516,-20.261C3.274,-20.583 2.979,-20.717 2.657,-20.717C2.066,-20.717 1.503,-20.181 1.503,-19.563C1.503,-19.376 1.556,-19.161 1.718,-18.946L7.89,-10.654L1.1,-1.718C0.912,-1.476 0.859,-1.234 0.859,-1.02C0.859,-0.403 1.395,0.027 2.013,0.027C2.335,0.027 2.63,-0.107 2.871,-0.403L9.205,-8.963L15.538,-0.403C15.753,-0.107 16.075,0.027 16.397,0.027C16.987,0.027 17.551,-0.483 17.551,-1.073C17.551,-1.288 17.47,-1.503 17.309,-1.744L10.627,-10.654Z" style="fill:rgb(189,87,51);fill-rule:nonzero;"/>
        </g>
    </g>
</svg>
