<?xml version="1.0" encoding="UTF-8" standalone="no"?>
<!DOCTYPE svg PUBLIC "-//W3C//DTD SVG 1.1//EN" "http://www.w3.org/Graphics/SVG/1.1/DTD/svg11.dtd">
<svg width="100%" height="100%" viewBox="0 0 56 58" version="1.1" xmlns="http://www.w3.org/2000/svg" xmlns:xlink="http://www.w3.org/1999/xlink" xml:space="preserve" style="fill-rule:evenodd;clip-rule:evenodd;stroke-linejoin:round;stroke-miterlimit:1.41421;">
    <g id="Artboard1" transform="matrix(0.951157,0,0,1,-208.635,-220.931)">
        <rect x="219.349" y="220.931" width="58.82" height="57.335" style="fill:none;"/>
        <g transform="matrix(1.05135,0,0,1,-508.419,-1622)">
            <path d="M733,1863C732.724,1863 732.474,1863.11 732.293,1863.29L717,1878.58L707.707,1869.29C707.526,1869.11 707.276,1869 707,1869C706.448,1869 706,1869.44 706,1870C706,1870.27 706.112,1870.52 706.293,1870.7L716.293,1880.7C716.474,1880.89 716.724,1881 717,1881C717.276,1881 717.526,1880.89 717.707,1880.7L733.707,1864.7C733.888,1864.52 734,1864.27 734,1864C734,1863.44 733.553,1863 733,1863M746,1875.71C746,1892.43 740.429,1898 723.715,1898L716.286,1898C699.571,1898 694,1892.43 694,1875.71L694,1868.28C694,1851.57 699.571,1846 716.286,1846L723.715,1846C740.429,1846 746,1851.57 746,1868.28L746,1875.71ZM724,1844L716,1844C698,1844 692,1850 692,1868L692,1876C692,1894 698,1900 716,1900L724,1900C742,1900 748,1894 748,1876L748,1868C748,1850 742,1844 724,1844" style="fill:rgb(113,151,67);fill-rule:nonzero;"/>
        </g>
    </g>
</svg>
