<?xml version="1.0" encoding="UTF-8" standalone="no"?>
<!DOCTYPE svg PUBLIC "-//W3C//DTD SVG 1.1//EN" "http://www.w3.org/Graphics/SVG/1.1/DTD/svg11.dtd">
<svg width="100%" height="100%" viewBox="0 0 57 57" version="1.1" xmlns="http://www.w3.org/2000/svg" xmlns:xlink="http://www.w3.org/1999/xlink" xml:space="preserve" style="fill-rule:evenodd;clip-rule:evenodd;stroke-linejoin:round;stroke-miterlimit:1.41421;">
    <g id="Artboard1" transform="matrix(0.814472,0,0,0.907983,-170.369,-196.077)">
        <rect x="209.177" y="215.948" width="69.549" height="62.391" style="fill:none;"/>
        <clipPath id="_clip1">
            <rect x="209.177" y="215.948" width="69.549" height="62.391"/>
        </clipPath>
        <g clip-path="url(#_clip1)">
            <g transform="matrix(1.22779,0,0,1.10134,-640.551,-1814.58)">
                <path d="M733.707,1864.7L717.707,1880.7C717.526,1880.89 717.276,1881 717,1881C716.724,1881 716.474,1880.89 716.293,1880.7L706.293,1870.7C706.112,1870.52 706,1870.27 706,1870C706,1869.44 706.448,1869 707,1869C707.276,1869 707.526,1869.11 707.707,1869.29L717,1878.58L732.293,1863.29C732.474,1863.11 732.724,1863 733,1863C733.553,1863 734,1863.44 734,1864C734,1864.27 733.888,1864.52 733.707,1864.7M724,1844L716,1844C698,1844 692,1850 692,1868L692,1876C692,1894 698,1900 716,1900L724,1900C742,1900 748,1894 748,1876L748,1868C748,1850 742,1844 724,1844" style="fill:rgb(113,151,67);fill-rule:nonzero;"/>
            </g>
        </g>
    </g>
</svg>
