<?xml version="1.0" encoding="UTF-8" standalone="no"?>
<!DOCTYPE svg PUBLIC "-//W3C//DTD SVG 1.1//EN" "http://www.w3.org/Graphics/SVG/1.1/DTD/svg11.dtd">
<svg width="100%" height="100%" viewBox="0 0 28 29" version="1.1" xmlns="http://www.w3.org/2000/svg" xmlns:xlink="http://www.w3.org/1999/xlink" xml:space="preserve" style="fill-rule:evenodd;clip-rule:evenodd;stroke-linejoin:round;stroke-miterlimit:1.41421;">
    <g id="Artboard1" transform="matrix(1,0,0,1,-394.077,-235.81)">
        <rect x="394.077" y="235.81" width="27.875" height="28.156" style="fill:none;"/>
        <clipPath id="_clip1">
            <rect x="394.077" y="235.81" width="27.875" height="28.156"/>
        </clipPath>
        <g clip-path="url(#_clip1)">
            <g transform="matrix(1,0,0,1,0,-398)">
                <path d="M408.001,634C397.02,634 394.001,637.018 394.001,648C394.001,658.982 396.982,662 408.001,662C419.02,662 422.001,659.018 422.001,648C422.001,636.982 418.982,634 408.001,634M408.001,636C417.87,636 420.001,638.131 420.001,648C420.001,657.869 417.87,660 408.001,660C398.131,660 396.001,657.869 396.001,648C396.001,638.131 398.131,636 408.001,636" style="fill-rule:nonzero;"/>
            </g>
        </g>
    </g>
</svg>
