<?xml version="1.0" encoding="UTF-8" standalone="no"?>
<!DOCTYPE svg PUBLIC "-//W3C//DTD SVG 1.1//EN" "http://www.w3.org/Graphics/SVG/1.1/DTD/svg11.dtd">
<svg width="100%" height="100%" viewBox="0 0 1067 1067" version="1.1" xmlns="http://www.w3.org/2000/svg" xmlns:xlink="http://www.w3.org/1999/xlink" xml:space="preserve" style="fill-rule:evenodd;clip-rule:evenodd;stroke-linejoin:round;stroke-miterlimit:1.41421;">
    <rect id="Artboard1" x="0" y="0" width="1066.67" height="1066.67" style="fill:none;"/>
    <clipPath id="_clip1">
        <rect id="Artboard11" x="0" y="0" width="1066.67" height="1066.67"/>
    </clipPath>
    <g clip-path="url(#_clip1)">
        <g id="Layer-1" transform="matrix(4.16667,0,0,4.16667,0,0)">
            <rect x="0" y="0" width="256" height="256" style="fill:rgb(232,216,179);fill-rule:nonzero;"/>
            <rect x="66.975" y="0" width="189.024" height="256" style="fill:rgb(159,104,40);fill-rule:nonzero;"/>
            <rect x="81.083" y="0" width="174.917" height="256" style="fill:rgb(68,68,69);fill-rule:nonzero;"/>
            <path d="M255.081,58.928L246.92,70.524C246.592,71.016 246.131,71.386 245.585,71.592C244.932,71.838 244.166,71.845 243.523,71.606L229.469,66.328C229.406,66.704 229.57,67.053 229.838,67.651C230.007,68.025 230.27,68.278 230.604,68.401L245.068,73.833C245.693,74.068 246.934,73.556 247.289,73.022L255.514,61.335C256.216,61.288 257.43,61.121 258.353,60.61C259.523,59.969 260.847,58.629 260.745,56.952C260.727,56.704 260.712,56.13 260.454,55.448C259.802,56.632 258.761,57.544 257.786,58.075C256.928,58.555 255.877,58.812 255.081,58.928" style="fill:rgb(219,230,134);fill-rule:nonzero;"/>
            <path d="M232.523,61.267C232.443,60.966 232.512,60.649 232.71,60.416L239.686,52.12C239.927,51.84 239.994,51.457 239.866,51.117C239.114,49.126 239.972,48.802 240.484,48.609C243.502,47.47 251.429,49.842 254.235,50.85C255.245,51.26 255.86,51.785 255.895,52.276C255.919,52.759 255.413,53.411 254.703,53.797C253.852,54.266 252.518,54.244 252.501,54.245C252.377,54.243 252.249,54.264 252.135,54.307C251.946,54.378 251.783,54.505 251.661,54.67L244.415,64.974C244.023,65.528 243.31,65.748 242.679,65.51L233.103,61.914C232.819,61.805 232.597,61.563 232.523,61.267M229.167,64.293L243.274,69.524C243.88,69.799 245.58,69.839 246.266,68.33L254.078,57.228C254.784,57.178 255.994,57.013 256.922,56.501C258.086,55.86 259.411,54.522 259.308,52.845C259.274,52.251 259.238,49.703 255.761,48.408C254.544,47.967 244.045,44.276 239.477,46.001C238.487,46.375 236.391,47.578 237.345,50.865L228.243,61.702C227.823,62.354 228.023,62.684 228.406,63.54C228.575,63.916 228.838,64.169 229.167,64.293" style="fill:rgb(219,230,134);fill-rule:nonzero;"/>
            <path d="M237.945,58.981C238.097,59.384 237.772,59.885 237.213,60.096C236.654,60.307 236.079,60.146 235.927,59.743C235.773,59.335 236.098,58.834 236.657,58.623C237.216,58.412 237.791,58.573 237.945,58.981" style="fill:rgb(219,230,134);fill-rule:nonzero;"/>
            <path d="M244.82,60.229C244.972,60.632 244.648,61.134 244.088,61.345C243.534,61.554 242.954,61.394 242.802,60.991C242.648,60.583 242.978,60.081 243.532,59.871C244.091,59.66 244.666,59.821 244.82,60.229" style="fill:rgb(219,230,134);fill-rule:nonzero;"/>
            <path d="M244.103,51.53C244.257,51.938 243.925,52.436 243.371,52.645C242.812,52.856 242.233,52.701 242.08,52.294C241.926,51.886 242.255,51.382 242.814,51.171C243.369,50.962 243.949,51.122 244.103,51.53" style="fill:rgb(219,230,134);fill-rule:nonzero;"/>
            <path d="M249.336,52.114C249.476,52.484 249.181,52.936 248.674,53.128C248.171,53.317 247.651,53.173 247.512,52.803C247.374,52.439 247.669,51.985 248.171,51.796C248.678,51.604 249.199,51.75 249.336,52.114" style="fill:rgb(219,230,134);fill-rule:nonzero;"/>
            <path d="M244.155,55.354C244.295,55.724 243.995,56.178 243.493,56.368C242.986,56.559 242.465,56.415 242.326,56.045C242.186,55.675 242.481,55.222 242.988,55.031C243.49,54.841 244.015,54.984 244.155,55.354" style="fill:rgb(219,230,134);fill-rule:nonzero;"/>
            <path d="M171.433,44.788L170.484,49.697L159.303,51.803L160.252,46.894L171.433,44.788ZM160.211,45.415L159.991,44.245L171.283,42.118L171.503,43.289L160.211,45.415ZM172.348,47.751L172.799,45.42L173.675,46.199L172.348,47.751ZM174.263,47.758L178.438,69.927L176.062,72.7L171.887,50.531L174.263,47.758ZM170.523,51.175L174.774,73.748L163.483,75.874L159.233,53.302L170.523,51.175ZM175.313,45.736L175.333,45.714L173.066,43.701L172.583,41.133C172.508,40.735 172.125,40.474 171.727,40.549L159.002,42.945C158.608,43.02 158.348,43.402 158.423,43.8L158.887,46.266L157.661,52.608C157.653,52.649 157.653,52.695 157.65,52.73C157.653,52.749 157.652,52.769 157.656,52.793L157.869,52.788L157.662,52.852L162.184,76.864C162.258,77.257 162.641,77.518 163.039,77.443L175.764,75.047C175.831,75.034 175.897,75.012 176.001,74.956C176.063,74.921 176.12,74.876 176.135,74.847L179.778,70.609C179.921,70.443 179.983,70.218 179.942,70.002L175.421,45.99C175.398,45.9 175.367,45.811 175.313,45.736" style="fill:rgb(219,230,134);fill-rule:nonzero;"/>
            <path d="M87.566,151.974C92.639,159.489 83.671,163.084 83.025,168.75C81.976,177.529 83.149,184.584 80.245,193.103C75.932,205.8 63.435,211.812 51.255,209.061C45.728,207.828 42.433,209.738 40.39,215.389C39.643,217.451 37.877,231.329 40.986,232.167C33.908,230.27 24.847,233.491 17.827,231.222C18.469,228.268 19.919,225.463 20.328,222.403C20.678,219.478 20.055,216.756 19.171,213.979C17.603,209.126 15.519,204.619 10.946,202.048C6.268,199.454 -15.271,169.063 -15.156,156.595C-14.773,115.634 47.821,53.675 66.531,116.043C69.683,126.495 70.768,139.189 78.192,146.202C80.476,148.361 82.903,145.066 87.566,151.974" style="fill:rgb(201,147,110);fill-rule:nonzero;"/>
            <path d="M75.718,185.796C74.381,183.668 73.544,181.024 73.269,179.022C74.74,182.584 78.917,178.501 80.751,178.318C85.5,177.843 80.573,183.134 81.935,183.629C86.376,185.245 83.469,190.971 79.152,189.072C77.786,188.47 76.634,187.254 75.718,185.796" style="fill:rgb(143,34,33);fill-rule:nonzero;"/>
            <path d="M15.158,33.478C9.98,30.915 3.866,32.385 0.354,36.67C-0.785,34.338 -2.663,32.344 -5.169,31.104C-10.948,28.243 -17.892,30.405 -21.082,35.901C-21.638,35.493 -22.229,35.119 -22.868,34.802C-28.893,31.82 -36.196,34.286 -39.179,40.311C-39.772,41.51 -40.142,42.761 -40.319,44.017C-46.99,42.205 -54.227,45.289 -57.41,51.719C-58.692,54.308 -59.13,57.089 -58.854,59.766C-64.838,58.219 -71.288,61.009 -74.138,66.767C-76.214,70.961 -75.875,75.714 -73.666,79.467C-77.857,79.773 -81.784,82.213 -83.784,86.252C-85.515,89.75 -85.418,93.672 -83.87,96.946C-87.801,98.384 -91.213,101.261 -93.217,105.309C-95.812,110.551 -95.437,116.487 -92.738,121.21C-95.967,122.874 -98.72,125.529 -100.454,129.033C-104.772,137.754 -101.202,148.324 -92.48,152.642C-91.392,153.18 -90.276,153.595 -89.147,153.894C-89.202,154 -89.267,154.097 -89.321,154.205C-93.376,162.398 -90.023,172.326 -81.83,176.382C-78.903,177.831 -75.755,178.318 -72.732,177.992C-72.741,183.246 -69.848,188.305 -64.822,190.793C-59.998,193.181 -54.475,192.581 -50.35,189.705C-51.176,195.167 -48.451,200.769 -43.236,203.351C-37.544,206.169 -30.79,204.446 -27.078,199.577C-26.155,202.545 -24.077,205.147 -21.073,206.634C-16.373,208.961 -10.871,207.852 -7.409,204.276C-6.712,204.856 -5.946,205.374 -5.099,205.793C0.722,208.675 7.777,206.291 10.659,200.471C11.131,199.518 11.447,198.53 11.645,197.535C16.824,199.324 22.648,197.039 25.143,191.999C27.459,187.319 26.144,181.797 22.291,178.603L60.086,102.252C64.32,103.564 68.994,101.679 71.024,97.578C73.065,93.456 71.702,88.568 68.045,86.007C69.802,81.604 67.952,76.526 63.628,74.386C62.91,74.03 62.165,73.812 61.416,73.657C62.006,68.153 59.192,62.617 53.942,60.018C50.281,58.206 46.203,58.207 42.703,59.657C43.68,52.86 40.278,45.913 33.789,42.701C29.856,40.754 25.519,40.55 21.64,41.772C20.872,38.295 18.598,35.181 15.158,33.478" style="fill:rgb(71,88,105);fill-rule:nonzero;"/>
            <path d="M60.782,144.405C60.615,142.502 61.602,140.793 63.125,140.028C62.435,139.933 61.742,139.947 61.061,140.126C55.727,141.527 53.286,146.587 53.261,146.638L52.707,146.703C54.21,147.605 57.595,149.214 62.208,148.809C62.909,148.747 63.646,148.603 64.386,148.432C62.501,148.146 60.967,146.512 60.782,144.405" style="fill:white;fill-rule:nonzero;"/>
            <path d="M63.448,144.171C63.349,143.041 64.183,142.045 65.314,141.945C65.843,141.899 66.334,142.071 66.726,142.369C66.605,141.953 66.434,141.562 66.248,141.176C65.251,140.605 64.194,140.175 63.124,140.028C61.603,140.794 60.615,142.502 60.782,144.406C60.966,146.512 62.502,148.146 64.385,148.433C64.689,148.479 64.999,148.498 65.317,148.47C65.572,148.447 65.816,148.393 66.054,148.324C66.125,148.193 66.188,148.058 66.251,147.924C66.629,147.118 66.894,146.268 66.989,145.373C66.656,145.735 66.203,145.99 65.674,146.037C64.543,146.136 63.546,145.301 63.448,144.171" style="fill:rgb(71,53,67);fill-rule:nonzero;"/>
            <path d="M65.289,139.626C65.175,139.482 65.088,139.319 64.964,139.182C64.585,138.761 64.161,138.376 63.701,138.028C62.658,137.826 61.585,137.781 60.503,138.004C52.712,139.615 50.012,146.787 49.896,147.032L52.707,146.703L53.261,146.638C53.286,146.587 55.727,141.527 61.061,140.126C61.742,139.947 62.435,139.933 63.125,140.028C64.194,140.175 65.252,140.605 66.249,141.175C65.986,140.624 65.668,140.107 65.289,139.626" style="fill:rgb(71,53,67);fill-rule:nonzero;"/>
            <path d="M63.448,144.171C63.546,145.301 64.543,146.136 65.674,146.037C66.203,145.99 66.656,145.735 66.989,145.373C67.044,144.875 67.072,144.371 67.027,143.856C66.982,143.342 66.866,142.85 66.726,142.369C66.334,142.071 65.843,141.899 65.314,141.945C64.183,142.045 63.349,143.041 63.448,144.171" style="fill:rgb(55,27,16);fill-rule:nonzero;"/>
            <path d="M43.483,139.177C43.483,139.177 43.879,137.073 45.113,134.451C45.419,133.793 45.769,133.096 46.18,132.401C46.582,131.695 47.043,130.985 47.576,130.32C47.834,129.976 48.105,129.635 48.401,129.32C48.692,128.995 48.979,128.655 49.306,128.368C49.939,127.756 50.639,127.222 51.361,126.717L52.482,126.023L53.064,125.714L53.593,125.404C54.346,125.011 55.196,124.597 56.005,124.409C57.661,123.989 59.466,124.366 60.983,124.965C61.747,125.28 62.447,125.662 63.056,126.064C63.668,126.498 64.185,126.893 64.599,127.299C65.013,127.674 65.322,128.042 65.526,128.287C65.729,128.54 65.835,128.697 65.835,128.697L65.731,129.124C65.731,129.124 65.616,129.118 65.4,129.107C65.191,129.101 64.884,129.09 64.494,129.079C64.115,129.081 63.665,129.072 63.169,129.102C62.671,129.123 62.126,129.154 61.546,129.208C60.967,129.268 60.349,129.322 59.709,129.422C59.065,129.507 58.389,129.586 57.665,129.625C56.917,129.664 56.217,129.662 55.429,129.767L54.819,129.884L54.257,130.007L53.172,130.397C52.465,130.702 51.763,131.035 51.114,131.452C50.774,131.633 50.461,131.859 50.146,132.076C49.825,132.282 49.525,132.518 49.236,132.761C48.938,132.992 48.655,133.235 48.391,133.495C48.118,133.742 47.848,133.981 47.604,134.244C47.099,134.745 46.651,135.266 46.249,135.767C45.444,136.767 44.859,137.72 44.449,138.39C44.044,139.07 43.851,139.491 43.851,139.491L43.483,139.177Z" style="fill:rgb(71,88,105);fill-rule:nonzero;"/>
            <path d="M46.298,232.421C46.05,238.793 142.762,371.311 142.762,371.311L220.125,257.396L210.79,238.107L140.433,321.041C140.433,321.041 78.475,236.093 75.329,235.941L46.298,232.421Z" style="fill:rgb(201,147,110);fill-rule:nonzero;"/>
            <path d="M-9.784,225.027C16.815,229.966 53.481,231.286 80.084,231.379C94.484,243.881 74.4,253.297 69.891,266.315C65.308,279.637 64.415,294.942 62.946,309.121C41.694,311.397 20.907,312.747 -0.018,314.375C-6.7,272.911 -14.555,226.724 -9.784,225.027" style="fill:rgb(194,78,146);fill-rule:nonzero;"/>
            <path d="M-15.019,353.605C-14.92,348.725 -22.823,265.769 -25.404,258.427C-25.854,257.17 -12.61,230.552 -3.033,243.477C5.427,254.894 24.539,257.746 35.026,257.012C44.283,256.363 50.476,256.195 58.833,253.187C66.009,250.607 72.814,246.729 79.149,241.962C77.555,255.774 72.622,269.441 72.182,283.349C71.927,290.737 72.85,298.147 74.438,305.34C75.722,311.066 77.409,315.202 73.664,320.24C70.617,324.326 64.272,329.365 64.093,328.839C64.272,330.93 64.89,361.747 65.357,368.489C66.227,380.588 84.188,458.816 87.847,465.261C50.585,467.163 0.401,475.636 -35.845,469.787C-32.249,458.224 -15.194,362.686 -15.019,353.605" style="fill:rgb(194,78,146);fill-rule:nonzero;"/>
            <path d="M112.59,283.445L85.72,306.279L66.839,276.928L80.084,231.379L112.59,283.445Z" style="fill:rgb(194,78,146);fill-rule:nonzero;"/>
            <path d="M-9.784,225.027C-8.421,229.07 3.372,250.207 3.372,250.207C3.372,250.207 -49.81,285.159 -51.1,283.865C-57.816,277.15 -68.816,255.229 -68.816,255.229L-9.784,225.027Z" style="fill:rgb(194,78,146);fill-rule:nonzero;"/>
            <path d="M199.789,27.512L199.789,89.766L140.358,89.766L140.358,27.512L199.789,27.512ZM143.358,86.766L196.789,86.766L196.789,30.512L143.358,30.512L143.358,86.766Z" style="fill:white;"/>
            <path d="M274.694,27.855L274.694,90.109L215.263,90.109L215.263,27.855L274.694,27.855ZM218.263,87.109L271.694,87.109L271.694,30.855L218.263,30.855L218.263,87.109Z" style="fill:white;"/>
            <path d="M348.859,232.978L137.9,232.978L137.9,104.323L348.859,104.323L348.859,232.978ZM140.9,107.323L140.9,229.978L345.859,229.978L345.859,107.323L140.9,107.323Z" style="fill:white;"/>
            <path d="M190.163,132.45C190.163,134.267 188.69,135.74 186.873,135.74C185.056,135.74 183.583,134.267 183.583,132.45C183.583,130.633 185.056,129.16 186.873,129.16C188.69,129.16 190.163,130.633 190.163,132.45" style="fill:white;fill-rule:nonzero;"/>
            <path d="M190.163,157.858C190.163,159.675 188.69,161.148 186.873,161.148C185.056,161.148 183.583,159.675 183.583,157.858C183.583,156.041 185.056,154.568 186.873,154.568C188.69,154.568 190.163,156.041 190.163,157.858" style="fill:white;fill-rule:nonzero;"/>
            <path d="M190.163,182.455C190.163,184.272 188.69,185.745 186.873,185.745C185.056,185.745 183.583,184.272 183.583,182.455C183.583,180.638 185.056,179.165 186.873,179.165C188.69,179.165 190.163,180.638 190.163,182.455" style="fill:white;fill-rule:nonzero;"/>
            <path d="M190.163,207.864C190.163,209.681 188.69,211.154 186.873,211.154C185.056,211.154 183.583,209.681 183.583,207.864C183.583,206.047 185.056,204.574 186.873,204.574C188.69,204.574 190.163,206.047 190.163,207.864" style="fill:white;fill-rule:nonzero;"/>
            <rect x="206.481" y="131.132" width="96.31" height="3" style="fill:white;"/>
            <rect x="206.607" y="156.068" width="96.31" height="3" style="fill:white;"/>
            <rect x="206.481" y="180.371" width="96.31" height="3" style="fill:white;"/>
            <g>
                <text x="112.856px" y="-1.746px" style="font-family:'Arial-BoldMT', 'Arial', sans-serif;font-weight:700;font-size:24px;fill:rgb(219,230,134);">m</text>
                <text x="135.646px" y="-1.746px" style="font-family:'Arial-BoldMT', 'Arial', sans-serif;font-weight:700;font-size:24px;fill:rgb(219,230,134);">a</text>
                <text x="149.844px" y="-1.746px" style="font-family:'Arial-BoldMT', 'Arial', sans-serif;font-weight:700;font-size:24px;fill:rgb(219,230,134);">k</text>
                <text x="163.742px" y="-1.746px" style="font-family:'Arial-BoldMT', 'Arial', sans-serif;font-weight:700;font-size:24px;fill:rgb(219,230,134);">e</text>
                <text x="185.691px" y="-1.746px" style="font-family:'Arial-BoldMT', 'Arial', sans-serif;font-weight:700;font-size:24px;fill:rgb(219,230,134);">h</text>
                <text x="200.601px" y="-1.746px" style="font-family:'Arial-BoldMT', 'Arial', sans-serif;font-weight:700;font-size:24px;fill:rgb(219,230,134);">e</text>
                <text x="215.348px" y="-1.746px" style="font-family:'Arial-BoldMT', 'Arial', sans-serif;font-weight:700;font-size:24px;fill:rgb(219,230,134);">a</text>
                <text x="229.496px" y="-1.746px" style="font-family:'Arial-BoldMT', 'Arial', sans-serif;font-weight:700;font-size:24px;fill:rgb(219,230,134);">l</text>
                <text x="236.764px" y="-1.746px" style="font-family:'Arial-BoldMT', 'Arial', sans-serif;font-weight:700;font-size:24px;fill:rgb(219,230,134);">t</text>
                <text x="246.706px" y="-1.746px" style="font-family:'Arial-BoldMT', 'Arial', sans-serif;font-weight:700;font-size:24px;fill:rgb(219,230,134);">h</text>
                <text x="261.566px" y="-1.746px" style="font-family:'Arial-BoldMT', 'Arial', sans-serif;font-weight:700;font-size:24px;fill:rgb(219,230,134);">y</text>
                <text x="282.817px" y="-1.746px" style="font-family:'Arial-BoldMT', 'Arial', sans-serif;font-weight:700;font-size:24px;fill:rgb(219,230,134);">c</text>
                <text x="296.515px" y="-1.746px" style="font-family:'Arial-BoldMT', 'Arial', sans-serif;font-weight:700;font-size:24px;fill:rgb(219,230,134);">h</text>
                <text x="311.475px" y="-1.746px" style="font-family:'Arial-BoldMT', 'Arial', sans-serif;font-weight:700;font-size:24px;fill:rgb(219,230,134);">o</text>
                <text x="327.435px" y="-1.746px" style="font-family:'Arial-BoldMT', 'Arial', sans-serif;font-weight:700;font-size:24px;fill:rgb(219,230,134);">i</text>
                <text x="334.653px" y="-1.746px" style="font-family:'Arial-BoldMT', 'Arial', sans-serif;font-weight:700;font-size:24px;fill:rgb(219,230,134);">c</text>
                <text x="348.001px" y="-1.746px" style="font-family:'Arial-BoldMT', 'Arial', sans-serif;font-weight:700;font-size:24px;fill:rgb(219,230,134);">e</text>
                <text x="362.749px" y="-1.746px" style="font-family:'Arial-BoldMT', 'Arial', sans-serif;font-weight:700;font-size:24px;fill:rgb(219,230,134);">s</text>
            </g>
            <path d="M212.112,249.46C211.382,248.469 210.757,247.383 210.28,246.176C209.108,243.214 207.882,240.368 207.462,237.176C206.879,232.742 207.22,227.925 208.902,223.758C210.296,220.31 213.42,216.283 212.65,212.377C212.291,210.553 210.02,209.679 209.842,207.9C209.686,206.345 212.031,205.051 213.366,204.897C217.41,204.443 218.03,208.155 219.365,211.314C221.031,215.256 220.504,221.388 220.218,223.463C220.424,221.968 221.401,221.017 221.965,219.719C223.187,216.904 224.103,209.881 227.722,209.251C230.247,208.81 232.239,212.01 232.596,214.153C234.927,212.359 237.716,211.894 239.836,214.335C242.093,216.935 241.152,220.128 241.673,223.07C243.408,221.431 244.791,221.759 246.312,223.362C248.487,225.651 248.297,228.488 248.175,231.478C251.055,228.481 254.102,234.59 254.202,236.958C254.499,243.968 247.206,248.625 242.016,251.969C239.206,253.776 227.883,258.044 225.116,258.312C220.467,258.761 214.639,252.884 212.112,249.46" style="fill:rgb(201,147,110);fill-rule:nonzero;"/>
        </g>
    </g>
</svg>
