<?xml version="1.0" encoding="utf-8"?>
<!-- Generator: Adobe Illustrator 21.1.0, SVG Export Plug-In . SVG Version: 6.00 Build 0)  -->
<svg version="1.1" id="Layer_1" xmlns="http://www.w3.org/2000/svg" xmlns:xlink="http://www.w3.org/1999/xlink" x="0px" y="0px"
	 viewBox="0 0 566.7 631" style="enable-background:new 0 0 566.7 631;" xml:space="preserve">
<style type="text/css">
	.st0{fill:#FFFFFF;}
</style>
<g id="_x37_94-chart-selected_x40_2x.png">
	<g>
		<path class="st0" d="M546.8,75.9H21.2C10,75.9,1,85.7,1,97.9v351.4c0,12.1,9.1,22,20.2,22h181.4l-78.8,136.9l0.1,0.1
			c-1,1.7-1.7,3.6-1.7,5.7c0,6.1,4.5,11,10.1,11c3.6,0,6.6-2.2,8.4-5.3l0.1,0.1l85.5-148.6h115.1l85.5,148.6l0.1-0.1
			c1.8,3.1,4.8,5.3,8.4,5.3c5.6,0,10.1-4.9,10.1-11c0-2.1-0.7-4-1.7-5.7l0.1-0.1l-78.8-136.9h181.4c11.2,0,20.2-9.8,20.2-22V97.9
			C567,85.7,557.9,75.9,546.8,75.9z M486.1,262.6c0,6.1-4.5,11-10.1,11s-10.1-4.9-10.1-11v-61.3l-124.2,135c-1.8,2-4.4,3.2-7.1,3.2
			c-2.8,0-5.3-1.2-7.1-3.2l-93.9-102.1l-134.4,146c-1.8,2-4.4,3.2-7.1,3.2c-5.6,0-10.1-4.9-10.1-11c0-3,1.1-5.8,3-7.8l141.5-153.8
			c1.8-2,4.4-3.2,7.1-3.2s5.3,1.2,7.1,3.2L334.5,313l117.1-127.2h-56.5c-5.6,0-10.1-4.9-10.1-11s4.5-11,10.1-11H476
			c5.6,0,10.1,4.9,10.1,11V262.6z M294.1,21c0-6.1-4.5-11-10.1-11s-10.1,4.9-10.1,11v32.9h20.2V21z"/>
	</g>
	<g>
		<path class="st0" d="M546.8,75.9H21.2C10,75.9,1,85.7,1,97.9v351.4c0,12.1,9.1,22,20.2,22h181.4l-78.8,136.9l0.1,0.1
			c-1,1.7-1.7,3.6-1.7,5.7c0,6.1,4.5,11,10.1,11c3.6,0,6.6-2.2,8.4-5.3l0.1,0.1l85.5-148.6h115.1l85.5,148.6l0.1-0.1
			c1.8,3.1,4.8,5.3,8.4,5.3c5.6,0,10.1-4.9,10.1-11c0-2.1-0.7-4-1.7-5.7l0.1-0.1l-78.8-136.9h181.4c11.2,0,20.2-9.8,20.2-22V97.9
			C567,85.7,557.9,75.9,546.8,75.9z M486.1,262.6c0,6.1-4.5,11-10.1,11s-10.1-4.9-10.1-11v-61.3l-124.2,135c-1.8,2-4.4,3.2-7.1,3.2
			c-2.8,0-5.3-1.2-7.1-3.2l-93.9-102.1l-134.4,146c-1.8,2-4.4,3.2-7.1,3.2c-5.6,0-10.1-4.9-10.1-11c0-3,1.1-5.8,3-7.8l141.5-153.8
			c1.8-2,4.4-3.2,7.1-3.2s5.3,1.2,7.1,3.2L334.5,313l117.1-127.2h-56.5c-5.6,0-10.1-4.9-10.1-11s4.5-11,10.1-11H476
			c5.6,0,10.1,4.9,10.1,11V262.6z M294.1,21c0-6.1-4.5-11-10.1-11s-10.1,4.9-10.1,11v32.9h20.2V21z"/>
	</g>
</g>
</svg>
