<?xml version="1.0" encoding="utf-8"?>
<!-- Generator: Adobe Illustrator 21.1.0, SVG Export Plug-In . SVG Version: 6.00 Build 0)  -->
<svg version="1.1" id="Layer_1" xmlns="http://www.w3.org/2000/svg" xmlns:xlink="http://www.w3.org/1999/xlink" x="0px" y="0px"
	 viewBox="0 0 545 587" style="enable-background:new 0 0 545 587;" xml:space="preserve">
<style type="text/css">
	.st0{fill:#FFFFFF;}
</style>
<g id="_x37_94-chart_x40_2x.png">
	<g>
		<path class="st0" d="M87.5,358.3c2.7,0,5.2-1.2,6.9-3l129.4-138.2l90.4,96.6c1.7,1.8,4.2,3,6.9,3c2.7,0,5.2-1.2,6.9-3L447.6,186
			v58c0,5.7,4.4,10.3,9.7,10.3c5.3,0,9.7-4.6,9.7-10.3v-83.2c0-5.7-4.4-10.3-9.7-10.3h-77.8c-5.3,0-9.7,4.6-9.7,10.3
			s4.4,10.3,9.7,10.3h54.3L321,291.5l-90.4-96.6c-1.7-1.8-4.2-3-6.9-3c-2.7,0-5.2,1.2-6.9,3L80.7,340.3c-1.7,1.8-2.8,4.4-2.8,7.3
			C77.8,353.7,82.2,358.3,87.5,358.3z M282.2,15.3c0-5.7-4.4-10.3-9.7-10.3c-5.3,0-9.7,4.6-9.7,10.3v31.1h19.4L282.2,15.3
			L282.2,15.3z M525.6,67.4H19.4C8.6,67.4,0,76.7,0,88.2v332.5c0,11.5,8.8,20.8,19.4,20.8H194L118.2,571l0.2,0.2
			c-0.9,1.6-1.6,3.4-1.6,5.5c0,5.7,4.4,10.3,9.7,10.3c3.4,0,6.4-2,8.1-5.1h0.2l82.2-140.6h110.9l82.2,140.6h0.2
			c1.7,3,4.7,5.1,8.1,5.1c5.3,0,9.7-4.6,9.7-10.3c0-2-0.6-3.8-1.6-5.5l0.2-0.2L351,441.6h174.6c10.8,0,19.4-9.3,19.4-20.8V88.2
			C545,76.7,536.2,67.4,525.6,67.4z M525.6,420.7H19.4V88.2h506v332.5H525.6z"/>
	</g>
	<g>
		<path class="st0" d="M87.5,358.3c2.7,0,5.2-1.2,6.9-3l129.4-138.2l90.4,96.6c1.7,1.8,4.2,3,6.9,3c2.7,0,5.2-1.2,6.9-3L447.6,186
			v58c0,5.7,4.4,10.3,9.7,10.3c5.3,0,9.7-4.6,9.7-10.3v-83.2c0-5.7-4.4-10.3-9.7-10.3h-77.8c-5.3,0-9.7,4.6-9.7,10.3
			s4.4,10.3,9.7,10.3h54.3L321,291.5l-90.4-96.6c-1.7-1.8-4.2-3-6.9-3c-2.7,0-5.2,1.2-6.9,3L80.7,340.3c-1.7,1.8-2.8,4.4-2.8,7.3
			C77.8,353.7,82.2,358.3,87.5,358.3z M282.2,15.3c0-5.7-4.4-10.3-9.7-10.3c-5.3,0-9.7,4.6-9.7,10.3v31.1h19.4L282.2,15.3
			L282.2,15.3z M525.6,67.4H19.4C8.6,67.4,0,76.7,0,88.2v332.5c0,11.5,8.8,20.8,19.4,20.8H194L118.2,571l0.2,0.2
			c-0.9,1.6-1.6,3.4-1.6,5.5c0,5.7,4.4,10.3,9.7,10.3c3.4,0,6.4-2,8.1-5.1h0.2l82.2-140.6h110.9l82.2,140.6h0.2
			c1.7,3,4.7,5.1,8.1,5.1c5.3,0,9.7-4.6,9.7-10.3c0-2-0.6-3.8-1.6-5.5l0.2-0.2L351,441.6h174.6c10.8,0,19.4-9.3,19.4-20.8V88.2
			C545,76.7,536.2,67.4,525.6,67.4z M525.6,420.7H19.4V88.2h506v332.5H525.6z"/>
	</g>
</g>
</svg>
