<?xml version="1.0" encoding="utf-8"?>
<!-- Generator: Adobe Illustrator 21.1.0, SVG Export Plug-In . SVG Version: 6.00 Build 0)  -->
<svg version="1.1" id="Layer_1" xmlns="http://www.w3.org/2000/svg" xmlns:xlink="http://www.w3.org/1999/xlink" x="0px" y="0px"
	 viewBox="0 0 545 587" style="enable-background:new 0 0 545 587;" xml:space="preserve">
<style type="text/css">
	.st0{fill:#FFFFFF;}
</style>
<g id="_x37_94-chart-selected_x40_2x.png">
	<g>
		<path class="st0" d="M525.8,67.4H19.5C8.7,67.4,0,76.6,0,88.2v332.5c0,11.5,8.8,20.8,19.5,20.8h174.8l-75.9,129.6l0.1,0.1
			c-1,1.6-1.6,3.4-1.6,5.4c0,5.8,4.3,10.4,9.7,10.4c3.5,0,6.4-2.1,8.1-5l0.1,0.1l82.4-140.6h110.9l82.4,140.6l0.1-0.1
			c1.7,2.9,4.6,5,8.1,5c5.4,0,9.7-4.6,9.7-10.4c0-2-0.7-3.8-1.6-5.4l0.1-0.1l-75.9-129.6h174.8c10.8,0,19.5-9.3,19.5-20.8V88.2
			C545.3,76.6,536.5,67.4,525.8,67.4z M467.3,244c0,5.8-4.3,10.4-9.7,10.4s-9.7-4.6-9.7-10.4v-58L328.2,313.8c-1.7,1.9-4.2,3-6.8,3
			c-2.7,0-5.1-1.1-6.8-3l-90.5-96.6L94.6,355.3c-1.7,1.9-4.2,3-6.8,3c-5.4,0-9.7-4.6-9.7-10.4c0-2.8,1.1-5.5,2.9-7.4L217.2,195
			c1.7-1.9,4.2-3,6.8-3c2.6,0,5.1,1.1,6.8,3l90.4,96.7l112.8-120.4h-54.4c-5.4,0-9.7-4.6-9.7-10.4s4.3-10.4,9.7-10.4h77.9
			c5.4,0,9.7,4.6,9.7,10.4V244z M282.4,15.4c0-5.8-4.3-10.4-9.7-10.4s-9.7,4.6-9.7,10.4v31.1h19.5V15.4z"/>
	</g>
	<g>
		<path class="st0" d="M525.8,67.4H19.5C8.7,67.4,0,76.6,0,88.2v332.5c0,11.5,8.8,20.8,19.5,20.8h174.8l-75.9,129.6l0.1,0.1
			c-1,1.6-1.6,3.4-1.6,5.4c0,5.8,4.3,10.4,9.7,10.4c3.5,0,6.4-2.1,8.1-5l0.1,0.1l82.4-140.6h110.9l82.4,140.6l0.1-0.1
			c1.7,2.9,4.6,5,8.1,5c5.4,0,9.7-4.6,9.7-10.4c0-2-0.7-3.8-1.6-5.4l0.1-0.1l-75.9-129.6h174.8c10.8,0,19.5-9.3,19.5-20.8V88.2
			C545.3,76.6,536.5,67.4,525.8,67.4z M467.3,244c0,5.8-4.3,10.4-9.7,10.4s-9.7-4.6-9.7-10.4v-58L328.2,313.8c-1.7,1.9-4.2,3-6.8,3
			c-2.7,0-5.1-1.1-6.8-3l-90.5-96.6L94.6,355.3c-1.7,1.9-4.2,3-6.8,3c-5.4,0-9.7-4.6-9.7-10.4c0-2.8,1.1-5.5,2.9-7.4L217.2,195
			c1.7-1.9,4.2-3,6.8-3c2.6,0,5.1,1.1,6.8,3l90.4,96.7l112.8-120.4h-54.4c-5.4,0-9.7-4.6-9.7-10.4s4.3-10.4,9.7-10.4h77.9
			c5.4,0,9.7,4.6,9.7,10.4V244z M282.4,15.4c0-5.8-4.3-10.4-9.7-10.4s-9.7,4.6-9.7,10.4v31.1h19.5V15.4z"/>
	</g>
</g>
</svg>
