<?xml version="1.0" encoding="utf-8"?>
<!-- Generator: Adobe Illustrator 21.1.0, SVG Export Plug-In . SVG Version: 6.00 Build 0)  -->
<svg version="1.1" id="Layer_1" xmlns="http://www.w3.org/2000/svg" xmlns:xlink="http://www.w3.org/1999/xlink" x="0px" y="0px"
	 viewBox="0 0 373 342" style="enable-background:new 0 0 373 342;" xml:space="preserve">
<style type="text/css">
	.st0{fill:#FFFFFF;}
</style>
<g id="_x39_05-chat-2_x40_2x.png">
	<path class="st0" d="M291.2,4.9H83.8C40.8,4.9,6,39.7,6,82.7v116.7c0,43,34.8,77.8,77.8,77.8h13V342l90.8-64.8h103.7
		c43,0,77.8-34.8,77.8-77.8V82.7C369,39.8,334.2,4.9,291.2,4.9z M356,199.4c0,35.8-29,64.8-64.8,64.8H182.9l-73.2,52.3v-52.3H83.8
		c-35.8,0-64.8-29-64.8-64.8V82.7c0-35.8,29-64.8,64.8-64.8h207.4c35.8,0,64.8,29,64.8,64.8V199.4z"/>
</g>
</svg>
