<?xml version="1.0" encoding="UTF-8" standalone="no"?>
<!DOCTYPE svg PUBLIC "-//W3C//DTD SVG 1.1//EN" "http://www.w3.org/Graphics/SVG/1.1/DTD/svg11.dtd">
<svg width="100%" height="100%" viewBox="0 0 500 500" version="1.1" xmlns="http://www.w3.org/2000/svg" xmlns:xlink="http://www.w3.org/1999/xlink" xml:space="preserve" style="fill-rule:evenodd;clip-rule:evenodd;stroke-linejoin:round;stroke-miterlimit:1.41421;">
    <g transform="matrix(20.8333,0,0,23.7496,-250.004,-12896)">
        <path d="M26.91,554.452L26.91,556.258C27.239,556.401 27.615,556.566 28.036,556.752C28.458,556.936 28.892,557.127 29.34,557.323C29.788,557.519 30.241,557.713 30.698,557.91C31.156,558.105 31.592,558.287 32.003,558.459C32.414,558.627 32.785,558.778 33.114,558.913C33.444,559.048 33.71,559.149 33.916,559.221C34.348,559.376 34.699,559.609 34.967,559.925C35.234,560.238 35.444,560.557 35.599,560.889C35.784,561.269 35.918,561.671 36,562.093L36,564.053L12,564.053L12,562.093C12.093,561.671 12.231,561.269 12.416,560.889C12.57,560.557 12.782,560.238 13.049,559.925C13.317,559.609 13.661,559.376 14.083,559.221C14.299,559.149 14.582,559.045 14.932,558.904C15.283,558.765 15.673,558.605 16.105,558.427C16.537,558.247 16.993,558.054 17.472,557.848C17.95,557.641 18.426,557.436 18.898,557.23C19.372,557.023 19.819,556.83 20.241,556.644C20.664,556.458 21.034,556.294 21.353,556.15L21.353,554.39C21.333,554.308 21.299,554.182 21.253,554.012C21.206,553.842 21.158,553.67 21.106,553.494C21.045,553.29 20.972,553.068 20.89,552.831C20.592,552.275 20.355,551.646 20.18,550.941C20.005,550.236 19.917,549.487 19.917,548.695C19.917,547.655 20.028,546.775 20.249,546.056C20.471,545.335 20.772,544.749 21.153,544.297C21.533,543.844 21.978,543.514 22.488,543.308C22.997,543.101 23.544,543 24.131,543C24.708,543 25.25,543.099 25.759,543.301C26.269,543.502 26.716,543.825 27.102,544.272C27.488,544.721 27.791,545.307 28.013,546.033C28.235,546.757 28.345,547.646 28.345,548.695C28.345,549.468 28.26,550.199 28.09,550.894C27.92,551.59 27.686,552.214 27.388,552.771C27.306,553.026 27.228,553.268 27.157,553.494C27.095,553.691 27.038,553.879 26.987,554.057C26.935,554.239 26.91,554.371 26.91,554.452" style="fill:white;fill-rule:nonzero;"/>
    </g>
</svg>
