<?xml version="1.0" encoding="utf-8"?>
<!-- Generator: Adobe Illustrator 21.1.0, SVG Export Plug-In . SVG Version: 6.00 Build 0)  -->
<svg version="1.1" id="Layer_1" xmlns="http://www.w3.org/2000/svg" xmlns:xlink="http://www.w3.org/1999/xlink" x="0px" y="0px"
	 viewBox="0 0 545 582" style="enable-background:new 0 0 545 582;" xml:space="preserve">
<style type="text/css">
	.st0{fill:#FFFFFF;}
</style>
<g id="_x38_88-checkmark-selected_x40_2x.png">
	<g>
		<path class="st0" d="M311.4,0h-77.9C58.4,0,0,62.4,0,249.4v83.1C0,519.6,58.4,582,233.6,582h77.9C486.6,582,545,519.6,545,332.6
			v-83.1C545,62.4,486.6,0,311.4,0z M405.9,215.2L250.2,381.5c-1.8,1.9-4.2,3-6.9,3c-2.7,0-5.1-1.2-6.9-3l-97.3-103.9
			c-1.8-1.9-2.9-4.5-2.9-7.3c0-5.7,4.4-10.4,9.7-10.4c2.7,0,5.1,1.2,6.9,3l90.4,96.6l148.8-158.9c1.8-1.9,4.2-3.1,6.9-3.1
			c5.4,0,9.7,4.6,9.7,10.4C408.8,210.7,407.7,213.3,405.9,215.2z"/>
	</g>
</g>
</svg>
