<?xml version="1.0" encoding="utf-8"?>
<!-- Generator: Adobe Illustrator 21.1.0, SVG Export Plug-In . SVG Version: 6.00 Build 0)  -->
<svg version="1.1" id="Layer_1" xmlns="http://www.w3.org/2000/svg" xmlns:xlink="http://www.w3.org/1999/xlink" x="0px" y="0px"
	 viewBox="0 0 569.7 605.3" style="enable-background:new 0 0 569.7 605.3;" xml:space="preserve">
<style type="text/css">
	.st0{fill:#FFFFFF;}
</style>
<g id="_x38_88-checkmark_x40_2x.png">
	<g>
		<path class="st0" d="M323.8,11.7h-77.9C70.7,11.7,12.4,74,12.4,261.1v83.1c0,187.1,58.4,249.4,233.6,249.4h77.9
			c175.2,0,233.6-62.4,233.6-249.4v-83.1C557.4,74,499,11.7,323.8,11.7z M537.9,341.3c0,173.7-54.2,231.6-216.9,231.6h-72.3
			C86,572.9,31.8,515,31.8,341.3v-77.2C31.8,90.3,86,32.4,248.7,32.4H321c162.7,0,216.9,57.9,216.9,231.6V341.3z M411.4,209.1
			c-2.7,0-5.1,1.2-6.9,3.1L255.7,371.1l-90.4-96.6c-1.8-1.9-4.2-3-6.9-3c-5.4,0-9.7,4.7-9.7,10.4c0,2.9,1.1,5.5,2.9,7.3l97.3,103.9
			c1.8,1.9,4.2,3,6.9,3c2.7,0,5.1-1.2,6.9-3l155.7-166.3c1.8-1.9,2.9-4.5,2.9-7.4C421.1,213.8,416.8,209.1,411.4,209.1z"/>
	</g>
</g>
</svg>
