<?xml version="1.0" encoding="UTF-8" standalone="no"?>
<!DOCTYPE svg PUBLIC "-//W3C//DTD SVG 1.1//EN" "http://www.w3.org/Graphics/SVG/1.1/DTD/svg11.dtd">
<svg width="100%" height="100%" viewBox="0 0 500 500" version="1.1" xmlns="http://www.w3.org/2000/svg" xmlns:xlink="http://www.w3.org/1999/xlink" xml:space="preserve" style="fill-rule:evenodd;clip-rule:evenodd;stroke-linecap:round;stroke-linejoin:round;stroke-miterlimit:1.5;">
    <g transform="matrix(1,0,0,1,0.715209,-0.0713792)">
        <g transform="matrix(1.56428,0,0,1.48483,-83.6769,-97.4954)">
            <path d="M351.249,161.472C351.249,121.4 320.367,88.866 282.33,88.866L143.376,88.866C105.339,88.866 74.457,121.4 74.457,161.472L74.457,306.684C74.457,346.757 105.339,379.291 143.376,379.291L282.33,379.291C320.367,379.291 351.249,346.757 351.249,306.684L351.249,161.472Z" style="fill:none;stroke:rgb(190,88,48);stroke-width:8.2px;"/>
        </g>
        <g transform="matrix(24.1055,0,0,19.3401,85.3368,416.434)">
            <path d="M12.724,-17.211L6.797,-9.409L1.005,-17.211L0.134,-17.211L6.396,-8.907L-0.469,0L0.335,0L6.797,-8.405L13.294,0L14.131,0L7.233,-8.907L13.528,-17.211L12.724,-17.211Z" style="fill:rgb(190,88,0);fill-rule:nonzero;"/>
        </g>
    </g>
</svg>
