<?xml version="1.0" encoding="utf-8"?>
<!-- Generator: Adobe Illustrator 21.1.0, SVG Export Plug-In . SVG Version: 6.00 Build 0)  -->
<svg version="1.1" id="Layer_1" xmlns="http://www.w3.org/2000/svg" xmlns:xlink="http://www.w3.org/1999/xlink" x="0px" y="0px"
	 viewBox="0 0 545 583" style="enable-background:new 0 0 545 583;" xml:space="preserve">
<style type="text/css">
	.st0{fill:#FFFFFF;}
	.st1{fill:none;}
	.st2{fill-rule:evenodd;clip-rule:evenodd;fill:#669933;}
</style>
<g id="_x37_28-clock-selected_x40_2x.png">
	<g>
		<path class="st0" d="M273.4,35.7c-132.4,0-239.7,115-239.7,256.8c0,141.8,107.3,256.8,239.7,256.8s239.7-115,239.7-256.8
			C513.1,150.7,405.8,35.7,273.4,35.7z M384.7,301.7H273.4c-4.7,0-8.6-4.1-8.6-9.2V109.1c0-5.1,3.8-9.2,8.6-9.2
			c4.7,0,8.6,4.1,8.6,9.2v174.3h102.7c4.7,0,8.6,4.1,8.6,9.2C393.3,297.6,389.5,301.7,384.7,301.7z"/>
	</g>
</g>
<g id="_x37_60-refresh-3_x40_2x.png">
	<g>
		<path class="st0" d="M272.2,0.9c-99.4,0-186,57.1-233.6,142V32c0-5.7-4.4-10.4-9.7-10.4c-5.4,0-9.7,4.7-9.7,10.4v145.5
			c0,5.7,4.4,10.4,9.7,10.4h24.7l9.8-20.8H47.9C90.1,80.7,174.6,21.6,272.2,21.6c139.7,0,253,121,253,270.2
			c0,149.2-113.3,270.2-253,270.2c-139.7,0-253-121-253-270.2c0-5.7-4.4-10.4-9.7-10.4c-5.4,0-9.7,4.6-9.7,10.4v0
			c0,160.7,122,291,272.5,291c150.5,0,272.5-130.3,272.5-291C544.7,131.1,422.7,0.9,272.2,0.9z M321,336.7c0-5.7-4.4-10.4-9.7-10.4
			H209.5l-9.8,20.8h111.5C316.6,347,321,342.4,321,336.7z"/>
	</g>
</g>
<line class="st1" x1="48.7" y1="167.1" x2="29.9" y2="188.4"/>
<path class="st2" d="M54.6,187.9h111.5c5.4,0,9.7-4.6,9.7-10.4c0-5.7-4.4-10.4-9.7-10.4H64.4"/>
</svg>
