<?xml version="1.0" encoding="utf-8"?>
<!-- Generator: Adobe Illustrator 21.1.0, SVG Export Plug-In . SVG Version: 6.00 Build 0)  -->
<svg version="1.1" id="Layer_1" xmlns="http://www.w3.org/2000/svg" xmlns:xlink="http://www.w3.org/1999/xlink" x="0px" y="0px"
	 viewBox="0 0 545 581.9" style="enable-background:new 0 0 545 581.9;" xml:space="preserve">
<style type="text/css">
	.st0{fill:#FFFFFF;}
	.st1{fill-rule:evenodd;clip-rule:evenodd;fill:#FFFFFF;}
</style>
<g id="_x37_60-refresh-3_x40_2x.png">
	<g>
		<path class="st0" d="M272.5-0.1c-99.4,0-186,57.1-233.6,142V31c0-5.7-4.4-10.4-9.7-10.4c-5.4,0-9.7,4.7-9.7,10.4v145.5
			c0,5.7,4.4,10.4,9.7,10.4h136.2c5.4,0,9.7-4.6,9.7-10.4c0-5.7-4.4-10.4-9.7-10.4H48.2C90.4,79.7,174.9,20.6,272.5,20.6
			c139.7,0,253,121,253,270.2c0,149.2-113.3,270.2-253,270.2c-139.7,0-253-121-253-270.2c0-5.7-4.4-10.4-9.7-10.4
			c-5.4,0-9.7,4.6-9.7,10.4v0c0,160.7,122,291,272.5,291c150.5,0,272.5-130.3,272.5-291C545,130.1,423-0.1,272.5-0.1z"/>
	</g>
</g>
<path class="st1" d="M262.4,311.3l-53.4-90c-2.3-3.8-1.5-9.1,1.8-11.8c3.2-2.7,7.7-1.7,10,2.1l49.3,83.1l111.4-92
	c3.2-2.7,7.7-1.7,10,2.1c2.3,3.8,1.5,9.1-1.8,11.8l-117.2,96.8C269.1,316,264.7,315.1,262.4,311.3z"/>
</svg>
