<?xml version="1.0" encoding="UTF-8" standalone="no"?>
<!DOCTYPE svg PUBLIC "-//W3C//DTD SVG 1.1//EN" "http://www.w3.org/Graphics/SVG/1.1/DTD/svg11.dtd">
<svg width="100%" height="100%" viewBox="0 0 591 590" version="1.1" xmlns="http://www.w3.org/2000/svg" xmlns:xlink="http://www.w3.org/1999/xlink" xml:space="preserve" style="fill-rule:evenodd;clip-rule:evenodd;stroke-linejoin:round;stroke-miterlimit:1.41421;">
    <g transform="matrix(1,0,0,1,31,3)">
        <path d="M344,383.6C331.8,374.8 323.5,363.4 321.6,349.9C317.9,324.9 332.5,297.1 332.5,297.1C333.6,295.2 360.5,264.9 360.5,171.7C360.5,100.1 349.2,5 272.6,5C196,5 184.8,100.3 184.8,171.8C184.8,265.4 211.8,295.5 212.2,296.1C212.3,296.3 227.4,324.7 223.6,349.9C221.6,363.6 213.2,374.9 201.2,383.6C111.9,429.2 58.6,481.8 58.6,524.3L58.6,558.4C58.6,577.1 67.5,587 75.8,587L469.3,587C477.7,587 486.5,576.9 486.5,558.4L486.5,524.3C486.6,482 433.3,429.2 344,383.6Z" style="fill:none;stroke:white;stroke-width:10.5px;"/>
    </g>
    <g transform="matrix(1,0,0,1,31,3)">
        <path d="M177.6,360.9C172.2,356.5 165.8,352.3 158.6,348.3C152.1,343.7 148,337.2 146.8,329.6C145,317.4 147.6,301.8 149.3,298.3C149.4,298.1 165.4,268.6 165.4,203.6C165.4,174.6 166.7,86.2 106.6,86.2C46.5,86.2 48.7,174.5 48.7,203.6C48.7,268.6 63.8,298.3 64.5,299.5C66.1,303.1 69.3,318 67.5,329.8C66.4,337.4 62.2,343.7 55,348.9C-2.4,380.7 0,429.7 0,448L0,481.7C0,497.7 7.6,506.5 14.8,506.5L40.1,506.5C41.6,495.1 44.7,484.4 49.5,473.9C49.5,473.9 77,421.7 150,377.1C160.2,371 167.8,366.4 177.6,360.9Z" style="fill:none;stroke:white;stroke-width:10.5px;"/>
    </g>
    <g transform="matrix(1,0,0,1,31,3)">
        <path d="M489.9,348.7C482.7,343.4 478.5,337.1 477.4,329.6C475.6,317.8 478.8,302.9 480.4,299.3C481.2,298 496.2,268.4 496.2,203.4C496.2,174.4 498.4,86 438.3,86C378.2,86 379.5,174.3 379.5,203.4C379.5,268.4 395.5,298.1 395.6,298.1C397.4,301.7 399.8,317.2 398.1,329.4C397.1,337 392.8,343.3 386.3,348.1C379.1,352.1 372.7,356.3 367.3,360.7C377.1,366.2 384.7,371 394.9,377.1C467.9,421.5 495.4,473.9 495.4,473.9C500.2,484.4 503.4,495.1 504.8,506.5L530.1,506.5C537.3,506.5 544.9,497.9 544.9,481.7L544.9,448C545,429.7 547.4,380.7 489.9,348.7Z" style="fill:none;stroke:white;stroke-width:10.5px;"/>
    </g>
</svg>
