<?xml version="1.0" encoding="UTF-8" standalone="no"?>
<!DOCTYPE svg PUBLIC "-//W3C//DTD SVG 1.1//EN" "http://www.w3.org/Graphics/SVG/1.1/DTD/svg11.dtd">
<svg width="100%" height="100%" viewBox="0 0 234 172" version="1.1" xmlns="http://www.w3.org/2000/svg" xmlns:xlink="http://www.w3.org/1999/xlink" xml:space="preserve" style="fill-rule:evenodd;clip-rule:evenodd;stroke-linejoin:round;stroke-miterlimit:1.41421;">
    <g id="Artboard1" transform="matrix(0.744046,0,0,0.757764,-58.286,-25.6172)">
        <rect x="78.337" y="33.806" width="313.317" height="226.103" style="fill:none;"/>
        <clipPath id="_clip1">
            <rect x="78.337" y="33.806" width="313.317" height="226.103"/>
        </clipPath>
        <g clip-path="url(#_clip1)">
            <g transform="matrix(5.53495,0,0,5.43475,-1624.63,-1157.11)">
                <path d="M362,256.997C362,258.101 361.104,258.997 360,258.997L312,258.997C310.896,258.997 310,258.101 310,256.997L310,228.997C310,227.893 310.896,226.997 312,226.997L320,226.997C325,226.997 327,220.997 330,220.997L342.17,220.997C345.255,220.997 347.312,226.997 352.454,226.997L360,226.997C361.104,226.997 362,227.893 362,228.997L362,256.997ZM360,224.997L352,224.997C348,224.997 346,218.997 342,218.997L336,218.997L330,218.997C326,218.997 324,224.997 320,224.997L312,224.997C309.791,224.997 308,226.788 308,228.997L308,256.997C308,259.206 309.791,260.997 312,260.997L360,260.997C362.209,260.997 364,259.206 364,256.997L364,228.997C364,226.788 362.209,224.997 360,224.997M336,250.997C330.477,250.997 326,246.52 326,240.997C326,235.475 330.477,230.997 336,230.997C341.523,230.997 346,235.475 346,240.997C346,246.52 341.523,250.997 336,250.997M336,228.997C329.373,228.997 324,234.37 324,240.997C324,247.625 329.373,252.997 336,252.997C342.627,252.997 348,247.625 348,240.997C348,234.37 342.627,228.997 336,228.997M352,229.997C350.896,229.997 350,230.893 350,231.997C350,233.101 350.896,233.997 352,233.997C353.104,233.997 354,233.101 354,231.997C354,230.893 353.104,229.997 352,229.997M336,246.997C332.687,246.997 330,244.31 330,240.997C330,237.684 332.687,234.997 336,234.997C339.313,234.997 342,237.684 342,240.997C342,244.31 339.313,246.997 336,246.997M336,232.997C331.582,232.997 328,236.579 328,240.997C328,245.415 331.582,248.997 336,248.997C340.418,248.997 344,245.415 344,240.997C344,236.579 340.418,232.997 336,232.997" style="fill-rule:nonzero;"/>
            </g>
        </g>
    </g>
</svg>
