<?xml version="1.0" encoding="UTF-8" standalone="no"?>
<!DOCTYPE svg PUBLIC "-//W3C//DTD SVG 1.1//EN" "http://www.w3.org/Graphics/SVG/1.1/DTD/svg11.dtd">
<svg width="100%" height="100%" viewBox="0 0 109 76" version="1.1" xmlns="http://www.w3.org/2000/svg" xmlns:xlink="http://www.w3.org/1999/xlink" xml:space="preserve" style="fill-rule:evenodd;clip-rule:evenodd;stroke-linejoin:round;stroke-miterlimit:1.41421;">
    <g id="Artboard1" transform="matrix(0.976332,0,0,1,-165.565,-62.8892)">
        <rect x="169.579" y="62.889" width="111.114" height="75.182" style="fill:none;"/>
        <g transform="matrix(1.63491,0,0,1.43254,-323.696,-244.082)">
            <path d="M336,248.997C331.582,248.997 328,245.415 328,240.997C328,236.579 331.582,232.997 336,232.997C340.418,232.997 344,236.579 344,240.997C344,245.415 340.418,248.997 336,248.997M336,230.997C330.477,230.997 326,235.475 326,240.997C326,246.52 330.477,250.997 336,250.997C341.523,250.997 346,246.52 346,240.997C346,235.475 341.523,230.997 336,230.997M352,233.997C350.896,233.997 350,233.101 350,231.997C350,230.893 350.896,229.997 352,229.997C353.104,229.997 354,230.893 354,231.997C354,233.101 353.104,233.997 352,233.997M336,252.997C329.373,252.997 324,247.625 324,240.997C324,234.37 329.373,228.997 336,228.997C342.627,228.997 348,234.37 348,240.997C348,247.625 342.627,252.997 336,252.997M360,224.997L352,224.997C348,224.997 346,218.997 342,218.997L336,218.997L330,218.997C326,218.997 324,224.997 320,224.997L312,224.997C309.791,224.997 308,226.788 308,228.997L308,256.997C308,259.206 309.791,260.997 312,260.997L360,260.997C362.209,260.997 364,259.206 364,256.997L364,228.997C364,226.788 362.209,224.997 360,224.997M336,234.997C332.687,234.997 330,237.684 330,240.997C330,244.31 332.687,246.997 336,246.997C339.313,246.997 342,244.31 342,240.997C342,237.684 339.313,234.997 336,234.997" style="fill:white;fill-rule:nonzero;"/>
        </g>
    </g>
</svg>
