<?xml version="1.0" encoding="UTF-8" standalone="no"?>
<!DOCTYPE svg PUBLIC "-//W3C//DTD SVG 1.1//EN" "http://www.w3.org/Graphics/SVG/1.1/DTD/svg11.dtd">
<svg width="100%" height="100%" viewBox="0 0 117 117" version="1.1" xmlns="http://www.w3.org/2000/svg" xmlns:xlink="http://www.w3.org/1999/xlink" xml:space="preserve" style="fill-rule:evenodd;clip-rule:evenodd;stroke-linejoin:round;stroke-miterlimit:1.41421;">
    <g id="Artboard1" transform="matrix(0.895673,0,0,0.912743,-94.1226,-106.546)">
        <g transform="matrix(1,0,0,1.04737,1.11638,-4.43354)">
            <rect x="105.086" y="116.731" width="128.181" height="120.086" style="fill:none;"/>
        </g>
        <g transform="matrix(1.11648,0,0,1.1475,-20.3735,-21.6367)">
            <ellipse cx="170.997" cy="176.292" rx="57.125" ry="54.498" style="fill:none;stroke:rgb(113,151,67);stroke-width:1px;"/>
        </g>
        <g transform="matrix(1.75388,0,0,1.7003,-416.726,-553.32)">
            <path d="M336,406.997C320.536,406.997 308,416.847 308,428.997C308,436.499 312.787,443.116 320.084,447.087C319.612,449.927 318.019,453.381 314,456.997C314,456.997 324.487,456.992 330.273,450.533C332.122,450.835 334.037,450.997 336,450.997C351.464,450.997 364,441.147 364,428.997C364,416.847 351.464,406.997 336,406.997" style="fill:none;stroke:rgb(113,151,67);stroke-width:0.65px;"/>
        </g>
        <g transform="matrix(1.11648,0,0,1.1475,-522.89,-206.829)">
            <path d="M646,329.997C642.687,329.997 640,332.684 640,335.997C640,339.31 642.687,341.997 646,341.997C649.313,341.997 652,339.31 652,335.997C652,332.684 649.313,329.997 646,329.997M602,329.997C598.687,329.997 596,332.684 596,335.997C596,339.31 598.687,341.997 602,341.997C605.313,341.997 608,339.31 608,335.997C608,332.684 605.313,329.997 602,329.997M624,329.997C620.687,329.997 618,332.684 618,335.997C618,339.31 620.687,341.997 624,341.997C627.313,341.997 630,339.31 630,335.997C630,332.684 627.313,329.997 624,329.997" style="fill:none;stroke:rgb(113,151,57);stroke-width:1px;"/>
        </g>
    </g>
</svg>
