<?xml version="1.0" encoding="UTF-8" standalone="no"?>
<!DOCTYPE svg PUBLIC "-//W3C//DTD SVG 1.1//EN" "http://www.w3.org/Graphics/SVG/1.1/DTD/svg11.dtd">
<svg width="100%" height="100%" viewBox="0 0 57 48" version="1.1" xmlns="http://www.w3.org/2000/svg" xmlns:xlink="http://www.w3.org/1999/xlink" xml:space="preserve" style="fill-rule:evenodd;clip-rule:evenodd;stroke-linejoin:round;stroke-miterlimit:1.41421;">
    <g id="Artboard1" transform="matrix(0.952552,0,0,1,-208.59,-119.761)">
        <rect x="218.98" y="119.761" width="59.113" height="47.908" style="fill:none;"/>
        <clipPath id="_clip1">
            <rect x="218.98" y="119.761" width="59.113" height="47.908"/>
        </clipPath>
        <g clip-path="url(#_clip1)">
            <g transform="matrix(1.04981,0,0,1,-708.828,0)">
                <path d="M936,123.997L909,123.997C905,123.997 904,119.997 899,119.997L888,119.997C885.791,119.997 884,121.788 884,123.997L884,129.997L940,129.997L940,127.997C940,125.788 938.209,123.997 936,123.997M884,163.997C884,166.206 885.791,167.997 888,167.997L936,167.997C938.209,167.997 940,166.206 940,163.997L940,131.997L884,131.997L884,163.997Z" style="fill:white;fill-rule:nonzero;"/>
            </g>
        </g>
    </g>
</svg>
