<?xml version="1.0" encoding="UTF-8" standalone="no"?>
<!DOCTYPE svg PUBLIC "-//W3C//DTD SVG 1.1//EN" "http://www.w3.org/Graphics/SVG/1.1/DTD/svg11.dtd">
<svg width="100%" height="100%" viewBox="0 0 57 49" version="1.1" xmlns="http://www.w3.org/2000/svg" xmlns:xlink="http://www.w3.org/1999/xlink" xml:space="preserve" style="fill-rule:evenodd;clip-rule:evenodd;stroke-linejoin:round;stroke-miterlimit:1.41421;">
    <g id="Artboard1" transform="matrix(0.97438,0,0,0.98492,-214.712,-117.327)">
        <rect x="220.358" y="119.123" width="57.512" height="49.063" style="fill:none;"/>
        <clipPath id="_clip1">
            <rect x="220.358" y="119.123" width="57.512" height="49.063"/>
        </clipPath>
        <g clip-path="url(#_clip1)">
            <g transform="matrix(1.02629,0,0,1.01531,-686.713,-2.57509)">
                <path d="M938,129.997L886,129.997L886,123.997C886,122.893 886.896,121.997 888,121.997L899,121.997C903,121.997 904,125.997 909,125.997L936,125.997C937.104,125.997 938,126.893 938,127.997L938,129.997ZM938,163.997C938,165.101 937.104,165.997 936,165.997L888,165.997C886.896,165.997 886,165.101 886,163.997L886,131.997L938,131.997L938,163.997ZM936,123.997L909,123.997C905,123.997 904,119.997 899,119.997L888,119.997C885.791,119.997 884,121.788 884,123.997L884,163.997C884,166.206 885.791,167.997 888,167.997L936,167.997C938.209,167.997 940,166.206 940,163.997L940,127.997C940,125.788 938.209,123.997 936,123.997" style="fill-rule:nonzero;"/>
            </g>
        </g>
    </g>
</svg>
