<?xml version="1.0" encoding="UTF-8" standalone="no"?>
<!DOCTYPE svg PUBLIC "-//W3C//DTD SVG 1.1//EN" "http://www.w3.org/Graphics/SVG/1.1/DTD/svg11.dtd">
<svg width="100%" height="100%" viewBox="0 0 120 120" version="1.1" xmlns="http://www.w3.org/2000/svg" xmlns:xlink="http://www.w3.org/1999/xlink" xml:space="preserve" style="fill-rule:evenodd;clip-rule:evenodd;stroke-linecap:round;stroke-linejoin:round;stroke-miterlimit:1.5;">
    <g transform="matrix(1,0,0,1,0,-2)">
        <circle cx="62" cy="64" r="57" style="fill:none;stroke:rgb(189,87,51);stroke-width:1px;"/>
    </g>
    <g transform="matrix(1,0,0,1,0,-2)">
        <path d="M96.854,76.716L80.474,93.096C71.224,102.336 56.184,102.336 46.944,93.096C37.694,83.846 37.694,68.806 46.934,59.556L54.624,51.876C57.153,49.335 58.323,49.536 59.124,50.056C59.714,50.436 60.434,51.606 60.603,53.277C60.763,54.766 60.403,56.117 59.633,56.886L52.653,63.866C52.063,64.446 52.063,65.395 52.653,65.985C53.233,66.576 54.183,66.576 54.773,65.985L76.013,44.745C77.403,43.355 79.643,43.355 81.023,44.745C82.414,46.126 82.414,48.376 81.023,49.756L68.132,62.646C67.542,63.236 67.542,64.186 68.132,64.766C68.723,65.356 69.673,65.356 70.253,64.766L86.712,48.306C88.093,46.926 90.343,46.926 91.723,48.306C93.103,49.686 93.103,51.936 91.723,53.316L75.263,69.776C74.673,70.366 74.673,71.316 75.263,71.896C75.853,72.487 76.802,72.487 77.382,71.896L91.063,58.226C92.443,56.846 94.683,56.846 96.073,58.226C97.453,59.606 97.453,61.856 96.073,63.236L80.403,78.907C79.813,79.487 79.813,80.436 80.403,81.026C80.983,81.616 81.933,81.616 82.523,81.026L91.843,71.706C93.223,70.327 95.462,70.327 96.853,71.706C98.233,73.086 98.233,75.336 96.854,76.716Z" style="fill:none;stroke:rgb(189,87,51);stroke-width:1px;"/>
    </g>
    <g transform="matrix(1,0,0,1,0,-2)">
        <path d="M60.698,27.978L49.825,27.978C36.751,27.978 26.114,38.616 26.114,51.692C26.114,60.206 30.632,67.674 37.389,71.853C38.28,66.571 40.75,61.504 44.815,57.435L52.504,49.755C53.521,48.739 56.378,45.894 59.581,46.973C59.541,45.979 59.481,44.983 59.394,43.987C59.319,43.167 59.931,42.434 60.757,42.362C61.582,42.289 62.31,42.901 62.382,43.725C62.423,44.2 62.441,44.674 62.474,45.148L71.362,45.148L73.894,42.616C76.444,40.065 80.594,40.065 83.144,42.616C83.415,42.886 83.647,43.177 83.86,43.478C84.206,42.936 84.41,42.297 84.41,41.605C84.41,39.651 82.821,38.062 80.867,38.062L54.437,38.062C53.681,45.769 47.165,51.812 39.263,51.812C38.434,51.812 37.763,51.141 37.763,50.312C37.763,49.483 38.434,48.812 39.263,48.812C46.017,48.812 51.513,43.317 51.513,36.562C51.513,35.733 52.184,35.062 53.013,35.062L60.699,35.062C61.783,35.062 62.994,34.366 63.937,33.199C64.99,31.896 65.312,30.563 65.166,29.874C64.966,28.936 64.278,27.978 60.698,27.978Z" style="fill:none;stroke:rgb(189,87,51);stroke-width:1px;"/>
    </g>
    <g transform="matrix(1,0,0,1,0,-2)">
        <path d="M62.616,49.68C62.614,49.169 62.629,48.659 62.616,48.149L68.361,48.149L63.584,52.926C63.457,51.732 63.114,50.618 62.616,49.68Z" style="fill:none;stroke:rgb(189,87,51);stroke-width:1px;"/>
    </g>
</svg>
