<?xml version="1.0" encoding="UTF-8" standalone="no"?>
<!DOCTYPE svg PUBLIC "-//W3C//DTD SVG 1.1//EN" "http://www.w3.org/Graphics/SVG/1.1/DTD/svg11.dtd">
<svg width="100%" height="100%" viewBox="0 0 56 57" version="1.1" xmlns="http://www.w3.org/2000/svg" xmlns:xlink="http://www.w3.org/1999/xlink" xml:space="preserve" style="fill-rule:evenodd;clip-rule:evenodd;stroke-linejoin:round;stroke-miterlimit:1.41421;">
    <g id="Artboard2" transform="matrix(0.915665,0,0,0.949439,-11.7822,-0.64123)">
        <rect x="12.867" y="0.675" width="61.069" height="59.101" style="fill:none;"/>
        <clipPath id="_clip1">
            <rect x="12.867" y="0.675" width="61.069" height="59.101"/>
        </clipPath>
        <g clip-path="url(#_clip1)">
            <g id="Artboard1" transform="matrix(0.28916,0,0,0.340638,-52.6033,-20.7173)">
                <rect x="158.975" y="54.053" width="283.717" height="188.009" style="fill:none;"/>
                <g transform="matrix(3.76873,0,0,3.092,-934.101,-295.598)">
                    <path d="M363.414,119.411L360.558,116.552C359.769,115.763 358.49,115.763 357.701,116.552L328.423,145.854L326.995,153.003L334.135,151.573L360.558,125.129L359.129,123.7L333.183,149.667L330.565,149.429L330.327,146.807L356.273,120.841L354.845,119.411L356.273,117.981L361.986,123.7L363.414,122.27C364.203,121.48 364.203,120.201 363.414,119.411M353,137.997C352.448,137.997 352,138.445 352,138.997L352,169.997L310,169.997L310,127.997L341,127.997C341.552,127.997 342,127.55 342,126.997C342,126.445 341.552,125.997 341,125.997L310,125.997C308.895,125.997 308,126.892 308,127.997L308,169.997C308,171.101 308.895,171.997 310,171.997L352,171.997C353.104,171.997 354,171.101 354,169.997L354,138.997C354,138.445 353.552,137.997 353,137.997" style="fill-rule:nonzero;"/>
                </g>
            </g>
        </g>
    </g>
</svg>
