<?xml version="1.0" encoding="UTF-8" standalone="no"?>
<!DOCTYPE svg PUBLIC "-//W3C//DTD SVG 1.1//EN" "http://www.w3.org/Graphics/SVG/1.1/DTD/svg11.dtd">
<svg width="100%" height="100%" viewBox="0 0 500 300" version="1.1" xmlns="http://www.w3.org/2000/svg" xmlns:xlink="http://www.w3.org/1999/xlink" xml:space="preserve" style="fill-rule:evenodd;clip-rule:evenodd;stroke-linejoin:round;stroke-miterlimit:1.41421;">
    <g transform="matrix(19.1921,0,0,17.5601,-1131.15,-1114.7)">
        <path d="M72.001,70C70.897,70 70.001,70.896 70.001,72C70.001,73.104 70.897,74 72.001,74C73.105,74 74.001,73.104 74.001,72C74.001,70.896 73.105,70 72.001,70" style="fill:none;stroke:black;stroke-width:0.05px;"/>
    </g>
    <g transform="matrix(19.1921,0,0,17.5601,-1131.15,-1114.7)">
        <path d="M72.001,77C69.24,77 67.001,74.761 67.001,72C67.001,69.239 69.24,67 72.001,67C74.762,67 77.001,69.239 77.001,72C77.001,74.761 74.762,77 72.001,77M72.001,64C68.82,64 65.929,65.843 63.781,67.759C61.454,69.836 60.001,72 60.001,72C60.001,72 65.374,80 72.001,80C78.628,80 84.001,72 84.001,72C84.001,72 78.628,64 72.001,64" style="fill:none;stroke:black;stroke-width:0.38px;"/>
    </g>
    <g transform="matrix(0.76461,-0.644493,0.644493,0.76461,-91.7337,124.22)">
        <rect x="72.711" y="238.948" width="353.669" height="8.717"/>
    </g>
</svg>
