<?xml version="1.0" encoding="UTF-8" standalone="no"?>
<!DOCTYPE svg PUBLIC "-//W3C//DTD SVG 1.1//EN" "http://www.w3.org/Graphics/SVG/1.1/DTD/svg11.dtd">
<svg width="100%" height="100%" viewBox="0 0 148 145" version="1.1" xmlns="http://www.w3.org/2000/svg" xmlns:xlink="http://www.w3.org/1999/xlink" xml:space="preserve" style="fill-rule:evenodd;clip-rule:evenodd;stroke-linejoin:round;stroke-miterlimit:1.41421;">
    <g id="Artboard1" transform="matrix(0.663066,0,0,0.787711,-133.616,-102.93)">
        <rect x="201.512" y="130.67" width="223.15" height="183.915" style="fill:none;"/>
        <g transform="matrix(1.50815,0,0,1.2695,-179.563,-84.7807)">
            <path d="M274.106,169.887L378.644,169.887C389.623,169.887 398.605,178.869 398.605,189.847L398.605,294.043C398.605,305.023 389.623,314.003 378.644,314.003L274.106,314.003C263.131,314.003 254.148,305.021 254.148,294.043L254.148,189.847C254.148,178.869 263.131,169.887 274.106,169.887" style="fill:rgb(102,153,51);fill-rule:nonzero;"/>
        </g>
        <g transform="matrix(1.50815,0,0,1.2695,-179.563,-84.7807)">
            <path d="M315.774,219.407C317.785,217.399 318.769,214.945 318.769,212.07C318.769,209.175 317.765,206.701 315.754,204.649C313.723,202.618 311.291,201.594 308.476,201.594C305.641,201.594 303.228,202.598 301.217,204.59C299.226,206.601 298.222,209.013 298.222,211.848C298.222,214.782 299.226,217.296 301.258,219.348C303.268,221.418 305.721,222.445 308.596,222.445C311.37,222.445 313.763,221.438 315.774,219.407" style="fill:rgb(254,254,254);fill-rule:nonzero;"/>
        </g>
        <g transform="matrix(1.50815,0,0,1.2695,-179.563,-84.7807)">
            <path d="M350.06,219.48C352.073,217.469 353.058,215.015 353.058,212.14C353.058,209.246 352.051,206.772 350.04,204.721C348.01,202.691 345.578,201.667 342.765,201.667C339.929,201.667 337.517,202.671 335.506,204.663C333.515,206.673 332.51,209.085 332.51,211.921C332.51,214.855 333.515,217.368 335.546,219.418C337.557,221.491 340.008,222.515 342.883,222.515C345.659,222.515 348.051,221.51 350.06,219.48" style="fill:rgb(254,254,254);fill-rule:nonzero;"/>
        </g>
        <g transform="matrix(1.50815,0,0,1.2695,-179.563,-84.7807)">
            <path d="M292.785,228.03L289.49,228.03L289.476,228.03C287.584,228.03 285.972,228.698 284.632,230.03C283.303,231.37 282.632,232.982 282.632,234.874C282.632,236.832 283.303,238.51 284.658,239.878C285.985,241.242 287.601,241.926 289.49,241.944L292.785,241.944L292.785,241.942L300.796,241.942L300.796,283.33L300.772,283.99C300.772,286.289 301.561,288.26 303.151,289.865C304.725,291.488 306.649,292.291 308.901,292.291C311.074,292.291 312.949,291.504 314.524,289.914C316.102,288.337 316.87,286.414 316.87,284.164C316.87,283.918 316.861,283.677 316.844,283.438L316.844,241.942L326.376,241.944L334.63,241.944L334.63,283.28C334.613,283.512 334.602,283.747 334.602,283.988C334.602,286.289 335.391,288.258 336.983,289.863C338.558,291.486 340.479,292.289 342.733,292.289C344.907,292.289 346.781,291.501 348.356,289.911C349.932,288.335 350.702,286.412 350.702,284.162L350.678,283.486L350.678,241.944L361.873,241.944C363.725,241.944 365.321,241.273 366.662,239.92C368.007,238.575 368.662,236.939 368.662,235.023C368.662,233.089 367.991,231.437 366.649,230.071C365.298,228.718 363.68,228.034 361.807,228.03L356.779,228.03L350.678,228.03L350.535,228.03L334.63,228.03L334.63,228.073L326.385,228.072L316.844,228.072L316.844,228.03L300.796,228.03L300.796,228.072L300.761,228.072L300.761,228.03L292.785,228.03Z" style="fill:rgb(254,254,254);fill-rule:nonzero;"/>
        </g>
    </g>
</svg>
