<?xml version="1.0" encoding="utf-8"?>
<!-- Generator: Adobe Illustrator 21.1.0, SVG Export Plug-In . SVG Version: 6.00 Build 0)  -->
<svg version="1.1" id="Layer_1" xmlns="http://www.w3.org/2000/svg" xmlns:xlink="http://www.w3.org/1999/xlink" x="0px" y="0px"
	 viewBox="0 0 750 653.2" style="enable-background:new 0 0 750 653.2;" xml:space="preserve">
<style type="text/css">
	.st0{fill:#BD5734;}
</style>
<g transform="matrix(4.49487,0,0,4.49487,-2550.58,-1671.15)">
	<path d="M694,434.7L694,434.7c-0.5-0.8-12.7-20.2-41.7-20.2c-29,0-41.3,19.4-41.8,20.2l0,0c-0.1,0.2-0.3,0.5-0.3,0.8
		c0,0.4,0.2,0.8,0.4,1.1l4.5,4.5c0.3,0.3,0.6,0.4,1.1,0.4c0.5,0,1-0.3,1.2-0.7l0,0c0.1-0.2,11.8-17.3,34.8-17.3
		c22.9,0,34.6,17.2,34.8,17.3l0,0c0.3,0.4,0.7,0.7,1.2,0.7c0.4,0,0.8-0.2,1.1-0.4l4.5-4.5c0.3-0.3,0.4-0.6,0.4-1.1
		C694.3,435.2,694.2,434.9,694,434.7 M682,446.5c-0.4-0.6-11.2-14.1-29.7-14.1c-18.5,0-29.2,13.5-29.7,14.1l0,0
		c-0.2,0.3-0.3,0.6-0.3,0.9c0,0.4,0.2,0.8,0.4,1.1l4.5,4.5c0.3,0.3,0.6,0.4,1.1,0.4c0.5,0,0.9-0.3,1.2-0.6l0,0
		c0.1-0.1,8.8-11.4,22.8-11.4s22.7,11.3,22.8,11.4l0,0c0.3,0.4,0.7,0.6,1.2,0.6c0.4,0,0.8-0.2,1.1-0.4l4.5-4.5
		c0.3-0.3,0.4-0.6,0.4-1.1C682.3,447.1,682.1,446.8,682,446.5L682,446.5z M670,458.5c-0.3-0.3-6.6-8.1-17.7-8.1s-17.4,7.7-17.7,8.1
		l0,0c-0.2,0.3-0.4,0.6-0.4,0.9c0,0.4,0.2,0.8,0.4,1.1l4.5,4.5c0.3,0.3,0.6,0.4,1.1,0.4c0.5,0,0.9-0.3,1.2-0.6l0,0
		c0-0.1,4.2-5.4,10.8-5.4c6.6,0,10.8,5.3,10.8,5.4l0,0c0.3,0.4,0.7,0.6,1.2,0.6c0.4,0,0.8-0.2,1.1-0.4l4.5-4.5
		c0.3-0.3,0.4-0.6,0.4-1.1C670.3,459.1,670.1,458.8,670,458.5L670,458.5z M658.1,470.8c-0.1-0.2-2-3.8-5.8-3.8s-5.8,3.7-5.8,3.8l0,0
		c-0.1,0.2-0.2,0.4-0.2,0.7c0,0.4,0.2,0.8,0.4,1.1l4.5,4.5c0.3,0.3,0.6,0.4,1.1,0.4s0.8-0.2,1.1-0.4l4.5-4.5
		c0.3-0.3,0.4-0.6,0.4-1.1C658.3,471.2,658.2,471,658.1,470.8L658.1,470.8z"/>
</g>
<g transform="matrix(16.0481,0,0,-18.0067,-7091.48,1562.75)">
	<path class="st0" d="M473.6,58.3l-9.2,9.2l-9.4,9.4"/>
	<path class="st0" d="M465,68l9.2-9.2l-1.3-1l-9.2,9.2l-9.4,9.4l1.3,1L465,68z"/>
</g>
<g transform="matrix(-22.7273,0,0,-19.7932,10614.4,1686.76)">
	<path class="st0" d="M450.5,52.2c-9.1,0-16.5,7.4-16.5,16.5s7.4,16.5,16.5,16.5c9.1,0,16.5-7.4,16.5-16.5S459.6,52.2,450.5,52.2
		 M450.5,58.2c5.8,0,10.5,4.7,10.5,10.5s-4.7,10.5-10.5,10.5c-5.8,0-10.5-4.7-10.5-10.5S444.7,58.2,450.5,58.2"/>
</g>
</svg>
