<?xml version="1.0" encoding="UTF-8" standalone="no"?>
<!DOCTYPE svg PUBLIC "-//W3C//DTD SVG 1.1//EN" "http://www.w3.org/Graphics/SVG/1.1/DTD/svg11.dtd">
<svg width="100%" height="100%" viewBox="0 0 672 789" version="1.1" xmlns="http://www.w3.org/2000/svg" xmlns:xlink="http://www.w3.org/1999/xlink" xml:space="preserve" style="fill-rule:evenodd;clip-rule:evenodd;stroke-linejoin:round;stroke-miterlimit:1.41421;">
    <g transform="matrix(1,0,0,1.06407,0,0)">
        <path d="M171.28,512.71L483.63,512.71L326.56,640.02L171.28,512.71Z" style="fill:rgb(172,132,99);fill-rule:nonzero;"/>
    </g>
    <g transform="matrix(1.00344,0,0,1.06407,-9.74455,-42.6603)">
        <clipPath id="_clip1">
            <rect x="9.716" y="552.801" width="671.933" height="228.164"/>
        </clipPath>
        <g clip-path="url(#_clip1)">
            <path d="M569.85,572.29C529.52,557.11 489.47,550.82 489.47,550.82L334.28,678.06L179.12,550.82C179.12,550.82 84.52,566.45 41.24,626.7C-2.04,686.95 5.34,793.5 16.13,796.7C89.81,818.62 221.33,826.7 336.44,826.7C400.8,826.7 595.88,825.58 670.75,811.04C670.75,811.04 691.04,744.18 670.75,667.73C650.91,593 569.85,572.29 569.85,572.29Z" style="fill:rgb(189,73,60);fill-rule:nonzero;"/>
        </g>
    </g>
    <g transform="matrix(1,0,0,1.06407,-7.83,-40.5519)">
        <path d="M282.34,457.32L268.05,550.68C268.05,550.68 265.77,591.68 335.05,591.95C392.88,592.21 400.82,550.68 400.82,550.68L386.95,456.68L282.34,457.32Z" style="fill:rgb(172,132,99);fill-rule:nonzero;"/>
    </g>
    <g transform="matrix(1,0,0,1.06407,-7.83,-40.5519)">
        <path d="M283.32,461.91C283.32,461.91 309.47,502.14 343.8,516.24C396.2,537.76 387.94,464.5 387.94,464.5L283.32,461.91Z" style="fill-rule:nonzero;"/>
    </g>
    <g transform="matrix(0.123601,-1.05591,0.992332,0.131521,85.1,762.654)">
        <ellipse cx="473.78" cy="324.81" rx="43.37" ry="23.91" style="fill:rgb(241,192,150);"/>
    </g>
    <g transform="matrix(0.123601,-1.05591,0.992332,0.131521,85.1,762.654)">
        <ellipse cx="473.78" cy="324.81" rx="43.37" ry="23.91" style="fill-opacity:0.3;"/>
    </g>
    <g transform="matrix(0.992332,-0.131521,0.123601,1.05591,-46.49,-12.6944)">
        <ellipse cx="191.81" cy="324.79" rx="23.91" ry="43.37" style="fill:rgb(241,192,150);"/>
    </g>
    <g transform="matrix(0.992332,-0.131521,0.123601,1.05591,-46.49,-12.6944)">
        <ellipse cx="191.81" cy="324.79" rx="23.91" ry="43.37" style="fill-opacity:0.3;"/>
    </g>
    <g transform="matrix(1,0,0,1.06407,-7.83,-40.5519)">
        <path d="M334.35,486.39C337.626,486.207 340.886,485.81 344.11,485.2C340.907,485.934 337.636,486.333 334.35,486.39Z" style="fill:rgb(241,192,150);fill-rule:nonzero;"/>
    </g>
    <g transform="matrix(1,0,0,1.06407,-7.83,-40.5519)">
        <path d="M332.43,120.09C367.825,120.139 401.898,133.706 427.64,158C387.86,123.52 337.51,120.3 332.43,120.09Z" style="fill:rgb(241,192,150);fill-rule:nonzero;"/>
    </g>
    <g transform="matrix(1,0,0,1.06407,-7.83,-40.5519)">
        <path d="M473.74,319.85C472.615,329.816 470.834,339.698 468.41,349.43C470.543,340.21 472.32,330.35 473.74,319.85Z" style="fill:rgb(241,192,150);fill-rule:nonzero;"/>
    </g>
    <g transform="matrix(1,0,0,1.06407,-7.83,-40.5519)">
        <path d="M473.76,319.72C473.749,319.766 473.749,319.814 473.76,319.86C472.353,330.38 470.577,340.24 468.43,349.44C468.32,349.87 468.21,350.33 468.11,350.79C445.53,439.4 377.34,478.12 344.3,485.18L344.14,485.18C340.916,485.79 337.656,486.187 334.38,486.37C300.61,486.37 170.38,408.37 194.91,252.29C209,162.24 270.37,120.25 332,120.09L332.41,120.09C337.49,120.31 387.84,123.52 427.62,158.03L427.92,158.3C452.09,181.2 469.45,214.14 473.81,256.24C476.111,277.338 476.095,298.625 473.76,319.72L473.76,319.72Z" style="fill:rgb(172,132,99);fill-rule:nonzero;"/>
    </g>
    <g transform="matrix(1,0,0,1.06407,-7.83,-40.5519)">
        <path d="M332,120.06L332.38,120.06L332,120.06Z" style="fill:rgb(241,192,150);fill-rule:nonzero;"/>
    </g>
    <g transform="matrix(1,0,0,1.06407,-7.83,-40.5519)">
        <path d="M468.09,350.79C442.7,458 370.74,480.47 344.27,485.17C377.31,478.12 445.51,439.4 468.09,350.79Z" style="fill:rgb(241,192,150);fill-rule:nonzero;"/>
    </g>
    <g transform="matrix(1,0,0,1.06407,-7.83,-40.5519)">
        <path d="M475.52,303.6C475.033,309.14 474.447,314.513 473.76,319.72C476.095,298.622 476.112,277.332 473.81,256.23C469.46,214.13 452.1,181.23 427.92,158.29C458.08,184.58 482.07,228.89 475.52,303.6Z" style="fill:rgb(241,192,150);fill-rule:nonzero;"/>
    </g>
    <g transform="matrix(1,0,0,1.06407,-7.83,-40.5519)">
        <path d="M216.78,284.67C216.78,284.67 224.7,259.29 256.68,258.98C288.66,258.67 297.42,289.74 297.42,289.74C297.42,289.74 274.42,299.05 257.32,299.05C231.87,299 216.78,284.67 216.78,284.67Z" style="fill:white;fill-rule:nonzero;"/>
    </g>
    <g transform="matrix(1,0,0,1.06407,-7.83,-40.5519)">
        <path d="M450.29,285.59C450.29,285.59 443.57,259.67 411.59,259.35C379.61,259.03 372.08,289.69 372.08,289.69C372.08,289.69 393.84,299.41 410.95,299.41C436.4,299.42 450.29,285.59 450.29,285.59Z" style="fill:white;fill-rule:nonzero;"/>
    </g>
    <g transform="matrix(1,0,0,1.06407,0,0)">
        <ellipse cx="253.8" cy="242.82" rx="16.71" ry="17.85" style="fill:rgb(77,55,66);"/>
    </g>
    <g transform="matrix(1,0,0,1.06407,0,0)">
        <ellipse cx="402.61" cy="243.56" rx="17.08" ry="18.25" style="fill:rgb(72,54,67);"/>
    </g>
    <g transform="matrix(1,0,0,1.06407,-7.83,-40.5519)">
        <path d="M421.43,441.2C421.43,441.2 522.75,503.33 536.51,583C550.27,662.67 453.91,723.43 497.17,738.61C514.88,744.3 518.82,729.12 516.86,725.33C543.41,747.15 475.54,812.62 399.86,733.87C369.29,702.08 377.23,606.72 385.11,551.7C392.99,496.68 392.11,468.2 392.11,468.2C392.11,468.2 412.58,447.39 421.43,441.2Z" style="fill:rgb(73,66,71);fill-rule:nonzero;"/>
    </g>
    <g transform="matrix(1,0,0,1.06407,-7.83,-40.5519)">
        <path d="M197.44,144.66C197.44,144.66 175.61,134.14 165.44,227.08C159.03,285.74 191.81,309.83 191.81,309.83C191.81,309.83 263,202.54 197.44,144.66Z" style="fill:rgb(72,54,67);fill-rule:nonzero;"/>
    </g>
    <g transform="matrix(1,0,0,1.06407,-7.83,-40.5519)">
        <path d="M167.25,149.44C167.25,149.44 193.07,184.71 315.15,195.53C442.43,206.81 471.74,230.01 474.74,263.53C475.853,276.87 476.111,290.267 475.51,303.64C474.909,317.013 503.75,278.9 508.63,248.75C514.37,213.29 525.97,168.85 494.07,125.99C374.28,-35 231.2,58 167.25,149.44Z" style="fill:rgb(66,62,65);fill-rule:nonzero;"/>
    </g>
    <g transform="matrix(1,0,0,1.06407,-7.83,-40.5519)">
        <path d="M275.64,389C277.236,390.419 278.905,391.754 280.64,393C282.23,394.19 284.19,395.5 286.42,396.92C287.54,397.63 288.73,398.37 290.02,399.02C291.31,399.67 292.6,400.52 294.02,401.17C295.447,401.921 296.916,402.589 298.42,403.17C299.94,403.83 301.5,404.54 303.15,405.07C304.785,405.727 306.454,406.298 308.15,406.78C309.87,407.28 311.61,407.9 313.42,408.24C317.085,409.138 320.797,409.829 324.54,410.31L330.29,410.9L336.11,411.09L337.41,411.15L338.93,411.1L341.93,411L344.93,410.9L347.72,410.61C351.42,410.276 355.094,409.701 358.72,408.89C365.452,407.413 371.973,405.098 378.13,402C380.89,400.51 383.44,399.07 385.64,397.57C387.84,396.07 389.77,394.67 391.3,393.37C392.991,392.017 394.595,390.557 396.1,389C397.605,387.443 395.86,389.7 395.3,390.92C394.516,392.637 393.631,394.307 392.65,395.92C391.23,398.372 389.625,400.712 387.85,402.92C385.726,405.66 383.367,408.21 380.8,410.54C377.965,413.183 374.896,415.563 371.63,417.65C368.176,419.832 364.519,421.674 360.71,423.15C358.777,423.934 356.792,424.586 354.77,425.1C352.736,425.733 350.652,426.195 348.54,426.48L345.34,427.02C344.34,427.17 343.34,427.18 342.34,427.25L339.34,427.42L337.82,427.51C336.98,427.51 336.68,427.51 336.08,427.51L329.74,427.15C327.63,426.9 325.54,426.47 323.47,426.15C319.359,425.317 315.339,424.081 311.47,422.46C309.545,421.718 307.673,420.843 305.87,419.84C302.354,417.983 299.008,415.822 295.87,413.38C294.34,412.22 292.87,410.98 291.55,409.73C288.98,407.47 286.602,405.002 284.44,402.35C282.648,400.241 280.998,398.017 279.5,395.69C278.026,393.573 276.735,391.335 275.64,389Z" style="fill:rgb(219,150,130);fill-rule:nonzero;"/>
    </g>
    <g transform="matrix(1,0,0,1.06407,-7.83,-40.5519)">
        <path d="M275.59,389C275.59,389 277.36,390 280.59,391.46C282.18,392.19 284.14,392.99 286.37,393.87C287.49,394.3 288.68,394.76 289.97,395.16C291.26,395.56 292.55,396.08 293.97,396.48C295.39,396.88 296.83,397.36 298.37,397.72C299.91,398.08 301.45,398.56 303.1,398.88C304.75,399.2 306.39,399.65 308.1,399.88C309.81,400.11 311.56,400.57 313.37,400.78C316.95,401.36 320.69,401.71 324.49,402.05L330.24,402.41L336.06,402.53L338.88,402.53L341.88,402.47L344.88,402.41L347.67,402.23C351.35,402.05 355.13,401.65 358.67,401.18C365.244,400.324 371.736,398.926 378.08,397C380.84,396.08 383.39,395.2 385.59,394.28C387.79,393.36 389.72,392.5 391.25,391.7C392.882,390.888 394.468,389.987 396,389C395.756,389.408 395.489,389.802 395.2,390.18C394.391,391.272 393.506,392.304 392.55,393.27C391.068,394.82 389.463,396.248 387.75,397.54C385.529,399.284 383.172,400.845 380.7,402.21C377.753,403.884 374.689,405.341 371.53,406.57C367.971,407.94 364.322,409.066 360.61,409.94C358.69,410.5 356.68,410.75 354.67,411.14C352.61,411.53 350.53,411.81 348.44,411.98L345.24,412.31C344.24,412.4 343.24,412.41 342.24,412.45L339.24,412.56L337.72,412.61C336.88,412.61 336.58,412.61 335.98,412.61L329.64,412.39C327.53,412.24 325.44,411.97 323.37,411.76C319.326,411.26 315.318,410.501 311.37,409.49C309.44,409.05 307.57,408.49 305.77,407.88C303.97,407.27 302.2,406.7 300.53,406.01C298.86,405.32 297.24,404.68 295.72,403.92C294.2,403.16 292.72,402.45 291.4,401.68C288.92,400.351 286.543,398.836 284.29,397.15C282.552,395.9 280.902,394.534 279.35,393.06C277.964,391.836 276.705,390.476 275.59,389Z" style="fill:rgb(186,111,93);fill-rule:nonzero;"/>
    </g>
    <g transform="matrix(1,0,0,1.06407,-7.83,-40.5519)">
        <path d="M207.25,252.44C211.311,248.933 215.744,245.881 220.47,243.34C222.58,242.16 224.92,240.93 227.47,239.77C230.131,238.509 232.866,237.41 235.66,236.48C237.11,235.96 238.6,235.48 240.13,235.06C241.66,234.64 243.21,234.14 244.81,233.83C248.045,233.115 251.317,232.574 254.61,232.21L259.61,231.8L262.13,231.7L264.47,231.54C267.805,231.358 271.149,231.442 274.47,231.79C280.396,232.608 286.042,234.826 290.94,238.26C292.916,239.636 294.752,241.204 296.42,242.94C297.691,244.308 298.833,245.791 299.83,247.37C300.486,248.389 301.038,249.471 301.48,250.6C301.644,251.012 301.784,251.432 301.9,251.86L300.9,252.72L299.77,252.34L296.66,251.34C295.33,250.95 293.78,250.46 292,250.01C290.22,249.56 288.28,249.01 286.17,248.56C284.06,248.11 281.81,247.56 279.42,247.13C277.03,246.7 274.56,246.13 271.97,245.46C269.38,244.79 266.86,244.03 263.97,243.46L261.66,243.09L259.5,242.79L255.1,242.54C252.144,242.468 249.187,242.555 246.24,242.8C244.77,242.86 243.31,243.05 241.87,243.21C240.43,243.37 239,243.57 237.6,243.83C236.2,244.09 234.82,244.31 233.48,244.62C232.14,244.93 230.81,245.16 229.54,245.51C226.98,246.13 224.54,246.85 222.39,247.57C218.835,248.76 215.344,250.132 211.93,251.68C209.43,252.81 208.09,253.57 208.09,253.57L207.25,252.44Z" style="fill:rgb(72,54,67);fill-rule:nonzero;"/>
    </g>
    <g transform="matrix(1,0,0,1.06407,-7.83,-40.5519)">
        <path d="M311.66,364.26C310.73,362.26 325.52,349.44 334.01,349.44C346.59,349.44 355.8,363 355.8,363C352.2,374.54 316.07,373.78 311.66,364.26Z" style="fill-opacity:0.36;fill-rule:nonzero;"/>
    </g>
    <g transform="matrix(1,0,0,1.06407,-9.83,-40.5519)">
        <path d="M297.43,292.44L301.15,290.08L297.43,292.44ZM297.43,292.44C297.14,291.98 276.67,260.36 255.8,263.92C233.97,267.64 222.43,287.03 222.31,287.22L208.71,287.61C209.26,286.67 222.58,258.94 254.31,255.23C281.2,252.09 303.9,286.23 304.86,287.71L297.43,292.44Z" style="fill:rgb(72,54,67);fill-rule:nonzero;"/>
    </g>
    <g transform="matrix(1,0,0,1.06407,-7.83,-40.5519)">
        <path d="M372.07,292.4L364.7,287.58C365.7,286.08 388.78,252.58 415.7,255.74C447.45,259.47 463.98,291.22 458.46,288.74L447.29,288.17C447.18,287.98 435.75,268.42 414.1,264.44C396.7,261.22 377.87,283.53 372.07,292.4Z" style="fill:rgb(72,54,67);fill-rule:nonzero;"/>
    </g>
    <g transform="matrix(1,0,0,1.06407,-7.83,-40.5519)">
        <path d="M460,255.95C460,255.95 458.7,255.12 456.26,253.86C452.922,252.135 449.498,250.583 446,249.21C443.84,248.37 441.49,247.53 439,246.78C437.75,246.37 436.44,246.03 435.11,245.68C433.78,245.33 432.43,244.96 431.04,244.68C429.65,244.4 428.25,244.06 426.81,243.84C425.37,243.62 423.94,243.33 422.47,243.2C419.542,242.802 416.594,242.562 413.64,242.48L409.23,242.48L407.06,242.67L404.73,242.92C401.79,243.35 399.32,243.92 396.61,244.51C393.9,245.1 391.48,245.44 389.08,245.79C386.68,246.14 384.4,246.51 382.27,246.87C380.14,247.23 378.17,247.64 376.38,248.02C374.59,248.4 373,248.78 371.66,249.11L368.5,249.96L367.35,250.28L366.35,249.36C366.489,248.937 366.653,248.523 366.84,248.12C367.341,247.016 367.951,245.964 368.66,244.98C369.739,243.454 370.958,242.031 372.3,240.73C374.058,239.082 375.973,237.611 378.02,236.34C383.092,233.166 388.848,231.246 394.81,230.74C398.145,230.565 401.489,230.655 404.81,231.01L407.14,231.29L409.66,231.52L414.66,232.2C417.929,232.735 421.167,233.446 424.36,234.33C425.94,234.73 427.46,235.33 428.97,235.8C430.48,236.27 431.97,236.86 433.36,237.46C436.099,238.537 438.771,239.779 441.36,241.18C443.84,242.47 446.1,243.82 448.15,245.11C452.738,247.892 457.006,251.168 460.88,254.88L460,255.95Z" style="fill:rgb(72,54,67);fill-rule:nonzero;"/>
    </g>
    <g transform="matrix(1,0,0,1.06407,0,0)">
        <circle cx="253.8" cy="242.82" r="8.25" style="fill:rgb(55,27,16);"/>
    </g>
    <g transform="matrix(1,0,0,1.06407,0,0)">
        <circle cx="402.47" cy="243.88" r="8.43" style="fill:rgb(55,27,16);"/>
    </g>
    <g transform="matrix(1,0,0,1.06407,-7.83,-40.5519)">
        <path d="M192,43.11C195.22,43.11 195.22,38.11 192,38.11C188.78,38.11 188.78,43.11 192,43.11Z" style="fill:white;fill-rule:nonzero;"/>
    </g>
    <g transform="matrix(1,0,0,1.06407,-7.83,-40.5519)">
        <path d="M111,97.11C114.22,97.11 114.22,92.11 111,92.11C107.78,92.11 107.78,97.11 111,97.11Z" style="fill:white;fill-rule:nonzero;"/>
    </g>
</svg>
