<?xml version="1.0" encoding="UTF-8" standalone="no"?>
<!DOCTYPE svg PUBLIC "-//W3C//DTD SVG 1.1//EN" "http://www.w3.org/Graphics/SVG/1.1/DTD/svg11.dtd">
<svg width="100%" height="100%" viewBox="0 0 690 700" version="1.1" xmlns="http://www.w3.org/2000/svg" xmlns:xlink="http://www.w3.org/1999/xlink" xml:space="preserve" style="fill-rule:evenodd;clip-rule:evenodd;stroke-linejoin:round;stroke-miterlimit:1.41421;">
    <g transform="matrix(28.9451,0,0,26.641,-3085.52,-6684.26)">
        <path d="M107,276C107,276 114.47,276.813 122.163,276.813C123.807,276.813 121.065,275.151 121.291,272.356C121.571,268.881 125.155,268.452 124.398,268.151C123.885,267.949 124.397,267.668 124.03,267.275C123.897,267.133 123.749,266.981 123.657,266.81C123.536,266.579 123.59,266.373 123.247,266.427C123.129,266.442 123.062,266.374 123.025,266.276C122.937,266.044 122.997,265.776 123.174,265.618C123.313,265.513 123.478,265.329 123.554,265.094C123.669,264.694 123.883,263.13 123.883,263.13C123.883,263.13 124.114,263.175 124.306,263.03C124.52,262.897 124.81,262.497 125.041,259.997C125.08,259.478 124.771,259.721 124.771,259.699C124.635,259.022 125.118,258.566 124.942,256.124C124.909,255.66 124.825,255.201 124.565,254.807C124.328,254.448 124.125,254.058 123.873,253.712C123.699,253.474 123.465,253.236 123.212,253.08C122.026,252.348 120.641,251.966 119.245,252.002C118.947,252.01 118.681,252.081 118.398,252.172C117.755,252.393 117.817,252.393 117.51,252.571C117.317,252.684 117.168,252.785 117.034,252.963C116.917,253.116 116.823,253.265 116.61,253.272C115.642,253.31 115.485,254.252 115.19,254.992C114.959,255.513 114.92,255.903 114.959,256.201C114.998,256.524 115.052,256.7 115.128,257.355C115.185,257.839 115.18,258.326 115.233,258.81C115.251,258.975 115.332,259.132 115.361,259.295C115.417,259.607 115.226,259.427 115.128,259.644C115.052,259.854 115.128,260.965 115.266,261.441C115.403,261.941 115.419,262.63 115.634,262.853C115.847,263.097 115.886,262.951 116.117,263.03C116.33,263.13 116.117,262.996 116.291,263.475C116.445,263.94 116.385,264.362 116.544,264.918C116.752,265.727 117.121,265.417 117.219,265.851C117.295,266.295 117.142,266.295 117.142,266.295C117.142,266.295 116.775,266.249 116.583,266.373C116.335,266.525 116.181,267.002 116.056,267.245C115.914,267.521 115.794,267.894 115.5,268.046C114.788,268.413 113.967,268.631 113.216,268.913C112.525,269.172 111.832,269.427 111.147,269.701C110.928,269.788 110.703,269.872 110.493,269.98C109.896,270.303 108.854,270.603 108.332,270.958C107.828,271.313 107.23,272.001 107.23,272.446C107.23,272.899 107,276 107,276" style="fill:rgb(189,87,52);"/>
    </g>
    <g transform="matrix(-11.1781,0,0,-9.77871,5660.32,1287.43)">
        <path d="M456.001,61C449.926,61 445.001,65.924 445.001,72C445.001,78.076 449.926,83 456.001,83C462.075,83 467.001,78.076 467.001,72C467.001,65.924 462.075,61 456.001,61M456.001,65C459.859,65 463.001,68.14 463.001,72C463.001,75.86 459.859,79 456.001,79C452.142,79 449.001,75.86 449.001,72C449.001,68.14 452.142,65 456.001,65" style="fill:rgb(189,87,52);fill-rule:nonzero;"/>
    </g>
    <g transform="matrix(11.0794,0,0,-12.7848,-4498.73,1504.21)">
        <path d="M463.024,65.382L456.909,71.497L450.649,77.757" style="fill:rgb(189,87,52);fill-rule:nonzero;"/>
        <path d="M457.829,72.189L463.944,66.074L462.103,64.691L455.988,70.806L449.728,77.066L451.569,78.449L457.829,72.189Z" style="fill:rgb(189,87,52);"/>
    </g>
</svg>
