<?xml version="1.0" encoding="UTF-8" standalone="no"?>
<!DOCTYPE svg PUBLIC "-//W3C//DTD SVG 1.1//EN" "http://www.w3.org/Graphics/SVG/1.1/DTD/svg11.dtd">
<svg width="100%" height="100%" viewBox="0 0 1067 1067" version="1.1" xmlns="http://www.w3.org/2000/svg" xmlns:xlink="http://www.w3.org/1999/xlink" xml:space="preserve" style="fill-rule:evenodd;clip-rule:evenodd;stroke-linejoin:round;stroke-miterlimit:1.41421;">
    <g id="Artboard1" transform="matrix(-1,0,-0,1,1066.67,0)">
        <rect x="0" y="0" width="1066.67" height="1066.67" style="fill:none;"/>
        <clipPath id="_clip1">
            <rect x="0" y="0" width="1066.67" height="1066.67"/>
        </clipPath>
        <g clip-path="url(#_clip1)">
            <g id="Layer-1" transform="matrix(4.16667,0,0,4.16667,9.09495e-13,0)">
                <g>
                    <g opacity="0.369995">
                        <rect x="-503.202" y="-96.634" width="1080.28" height="668" style="fill:rgb(236,218,176);fill-rule:nonzero;"/>
                    </g>
                </g>
                <path d="M89.108,216.688C86.227,222.817 93.258,224.441 94.386,228.548C96.168,234.908 96.112,240.25 99.233,246.204C103.874,255.08 114.096,256.068 122.481,251.984C131.513,247.585 130.244,251.492 130.61,255.966C131.38,265.387 134.172,271.686 132.694,270.529C137.7,268.316 162.584,271.425 167.504,268.944C166.692,266.837 163.704,256.124 163.05,253.912C162.457,251.793 162.216,244.557 163.124,239.906C163.89,235.984 166.972,217.495 165.455,208.306C160.732,179.705 115.682,136.354 104.981,173.606C104.387,175.674 98.909,180.531 97.531,193.878C96.693,201.989 91.757,211.054 89.108,216.688" style="fill:rgb(201,147,110);fill-rule:nonzero;"/>
                <path d="M117.753,178.587C122.201,183.823 121.683,187.72 122.39,191.746C123.098,195.772 122.257,206.545 126.272,207.665C130.288,208.786 131.254,191.832 131.254,191.832C131.254,191.832 133.616,185.095 137.541,185.941C141.467,186.787 145.164,195.31 145.164,195.31C145.164,195.31 149.719,204.06 150.053,207.576C150.387,211.092 151.254,217.287 153.318,223.053C161.164,244.969 166.493,236.385 166.493,236.385C166.493,236.385 194.569,214.952 186.581,193.634C180.139,176.446 192.114,178.522 173.393,161.149C163.432,151.907 158.161,148.808 146.271,148.371C115.466,147.238 104.981,173.606 104.981,173.606C104.981,173.606 113.305,173.351 117.753,178.587" style="fill:rgb(33,34,34);fill-rule:nonzero;"/>
                <path d="M193.288,179.963L193.021,190.313L184.454,189.92C184.454,189.92 182.132,188.398 182.367,183.532C182.601,178.666 184.868,177.925 184.868,177.925L193.288,179.963Z" style="fill:rgb(37,78,99);fill-rule:nonzero;"/>
                <path d="M186.761,189.897L186.691,183.465L188.93,179.563C196.604,178.625 220.947,181.869 227.503,205.789C238.741,246.798 202.276,259.38 199.423,282.092C197.683,295.936 219.853,325.557 219.853,325.557C219.853,325.557 185.665,327.13 169.488,305.8C143.904,272.067 192.61,231.353 197.22,215.685C201.831,200.018 188.329,194.695 188.329,194.695L186.761,189.897Z" style="fill:rgb(33,34,34);fill-rule:nonzero;"/>
                <path d="M86.969,151.434C92.665,150.63 88.039,157.338 106.757,155.706C112.201,155.231 120.502,152.053 128.847,148.982C156.722,138.72 164.924,149.798 166.343,152.949C167.192,154.842 167.734,156.88 167.822,158.714C167.951,161.367 168.46,168.918 162.348,173.166C155.964,177.601 150.343,170.512 134.507,174.742C123.213,177.76 112.49,180.391 103.016,179.091C85.905,176.745 81.274,152.239 86.969,151.434" style="fill:rgb(33,34,34);fill-rule:nonzero;"/>
                <g>
                    <g opacity="0.690002">
                        <clipPath id="_clip2">
                            <rect x="131.255" y="190.051" width="12.649" height="24.558"/>
                        </clipPath>
                        <g clip-path="url(#_clip2)">
                            <path d="M137.883,190.07C140.151,189.833 143.897,191.846 143.905,197.137L143.412,209.241C143.61,211.962 141.933,214.359 139.665,214.596C137.399,214.833 132.269,211.837 132.071,209.116L131.261,197.651C131.064,194.93 135.617,190.307 137.883,190.07" style="fill:rgb(153,108,83);fill-rule:nonzero;"/>
                        </g>
                    </g>
                </g>
                <path d="M137.209,186.795C139.936,186.622 144.382,188.742 144.266,194.031L143.387,206.119C143.56,208.844 141.491,211.192 138.765,211.365C136.04,211.537 129.956,208.395 129.783,205.67L129.982,194.766C131.254,190.661 134.485,186.967 137.209,186.795" style="fill:rgb(201,147,110);fill-rule:nonzero;"/>
                <path d="M135.039,199.345C134.934,197.684 133.764,196.345 132.238,195.945C132.748,194.492 135.232,192.603 136.527,192.521C137.996,192.428 140.396,193.571 140.333,196.422L139.859,202.942C139.952,204.411 138.835,205.677 137.366,205.77C136.029,205.855 133.191,204.459 132.621,203.1C134.123,202.53 135.146,201.032 135.039,199.345" style="fill:rgb(147,108,87);fill-rule:nonzero;"/>
                <path d="M100.832,193.235L108.897,193.407C109.696,193.424 110.329,194.085 110.312,194.884C110.295,195.682 109.634,196.315 108.835,196.297L100.77,196.125C99.972,196.109 99.338,195.448 99.355,194.649C99.373,193.851 100.033,193.218 100.832,193.235" style="fill:rgb(85,70,65);fill-rule:nonzero;"/>
                <path d="M107.979,232.144C105.927,235.156 101.609,237.556 96.338,238.362L96.005,234.548C100.363,234.068 104.416,233.218 107.948,232.107L107.979,232.144Z" style="fill:rgb(168,78,53);fill-rule:nonzero;"/>
                <path d="M106.527,205.867C105.978,204.368 104.625,203.426 103.202,203.387C103.69,203.071 104.219,202.836 104.798,202.729C109.33,201.896 112.972,204.858 113.008,204.887L113.451,204.74C112.634,205.956 110.644,208.374 107.011,209.704C106.458,209.905 105.85,210.059 105.23,210.192C106.554,209.307 107.134,207.526 106.527,205.867" style="fill:white;fill-rule:nonzero;"/>
                <path d="M104.428,206.635C104.102,205.745 103.117,205.288 102.227,205.613C101.81,205.766 101.5,206.07 101.309,206.435C101.252,206.078 101.244,205.721 101.246,205.363C101.798,204.578 102.446,203.877 103.203,203.387C104.626,203.426 105.979,204.367 106.528,205.867C107.135,207.526 106.554,209.306 105.231,210.191C105.017,210.334 104.789,210.458 104.539,210.55C104.339,210.623 104.134,210.669 103.93,210.701C103.83,210.627 103.735,210.548 103.639,210.468C103.067,209.993 102.565,209.445 102.175,208.801C102.556,208.956 102.99,208.989 103.406,208.836C104.296,208.51 104.754,207.525 104.428,206.635" style="fill:rgb(71,53,67);fill-rule:nonzero;"/>
                <path d="M101.422,203.851C101.457,203.701 101.466,203.548 101.51,203.4C101.647,202.947 101.832,202.505 102.056,202.079C102.774,201.555 103.569,201.141 104.467,200.926C110.932,199.38 115.519,203.847 115.694,203.992L113.45,204.74L113.008,204.888C112.972,204.858 109.33,201.896 104.798,202.729C104.219,202.835 103.69,203.071 103.202,203.387C102.445,203.878 101.798,204.578 101.245,205.363C101.249,204.853 101.306,204.349 101.422,203.851" style="fill:rgb(71,53,67);fill-rule:nonzero;"/>
                <path d="M104.428,206.635C104.754,207.525 104.296,208.51 103.406,208.836C102.99,208.989 102.556,208.956 102.175,208.801C101.958,208.443 101.757,208.072 101.609,207.667C101.461,207.261 101.374,206.849 101.309,206.435C101.5,206.07 101.81,205.766 102.227,205.613C103.117,205.288 104.102,205.745 104.428,206.635" style="fill:rgb(55,27,16);fill-rule:nonzero;"/>
                <path d="M82.933,249.929L58.913,276.334L56.434,294.847L69.684,298.982L93.605,278.556C97.666,275.454 100.488,262.545 97.511,256.391C94.528,250.239 86.994,246.825 82.933,249.929" style="fill:rgb(201,147,110);fill-rule:nonzero;"/>
                <path d="M79.372,253.502L91.487,243.188L105.094,241.155L106.828,245.393L93.33,247.789L86.339,257.416L79.372,253.502Z" style="fill:rgb(201,147,110);fill-rule:nonzero;"/>
                <path d="M83.971,257.626L94.477,250.039L106.337,248.43L108.269,256.683L109.684,265.347L100.379,269.489L83.971,257.626Z" style="fill:rgb(201,147,110);fill-rule:nonzero;"/>
                <path d="M241.172,57.553C232.02,120.664 194.289,94.578 141.742,108.628C76.029,126.199 28.249,99.931 28.249,57.553C28.249,15.175 51.3,-36.826 134.711,-19.178C218.121,-1.531 247.254,15.614 241.172,57.553" style="fill:white;fill-rule:nonzero;"/>
                <path d="M182.641,117.249C182.641,120.615 178.607,123.343 173.631,123.343C168.654,123.343 164.62,120.615 164.62,117.249C164.62,113.883 168.654,111.155 173.631,111.155C178.607,111.155 182.641,113.883 182.641,117.249" style="fill:white;fill-rule:nonzero;"/>
                <path d="M175.797,138.988C175.797,141.019 173.161,142.666 169.908,142.666C166.656,142.666 164.02,141.019 164.02,138.988C164.02,136.957 166.656,135.31 169.908,135.31C173.161,135.31 175.797,136.957 175.797,138.988" style="fill:white;fill-rule:nonzero;"/>
                <path d="M250.908,154.983C249.617,154.983 248.563,156.155 248.563,157.584L248.563,246.439C248.563,247.87 249.617,249.04 250.908,249.04L397.387,249.04C398.675,249.04 399.731,247.87 399.731,246.439L399.731,157.584C399.731,156.155 398.675,154.983 397.387,154.983L250.908,154.983Z" style="fill:white;fill-rule:nonzero;"/>
                <path d="M397.386,131.439L384.613,131.439L384.613,136.185C385.314,137.077 385.737,138.2 385.737,139.423C385.737,142.319 383.391,144.666 380.494,144.666C377.598,144.666 375.251,142.319 375.251,139.423C375.251,138.2 375.673,137.077 376.375,136.184L376.375,131.439L365.828,131.439L365.828,136.181C366.532,137.074 366.955,138.198 366.955,139.423C366.955,142.319 364.608,144.666 361.712,144.666C358.816,144.666 356.467,142.319 356.467,139.423C356.467,138.2 356.889,137.078 357.591,136.186L357.591,131.439L347.046,131.439L347.046,136.181C347.75,137.074 348.173,138.198 348.173,139.423C348.173,142.319 345.826,144.666 342.93,144.666C340.033,144.666 337.685,142.319 337.685,139.423C337.685,138.2 338.107,137.078 338.809,136.186L338.809,131.439L328.264,131.439L328.264,136.182C328.967,137.075 329.391,138.199 329.391,139.423C329.391,142.319 327.042,144.666 324.145,144.666C321.251,144.666 318.9,142.319 318.9,139.423C318.9,138.199 319.323,137.076 320.027,136.183L320.027,131.439L309.482,131.439L309.482,136.185C310.184,137.077 310.606,138.2 310.606,139.423C310.606,142.319 308.26,144.666 305.364,144.666C302.467,144.666 300.121,142.319 300.121,139.423C300.121,138.2 300.543,137.077 301.245,136.185L301.245,131.439L290.7,131.439L290.7,136.185C291.402,137.077 291.824,138.2 291.824,139.423C291.824,142.319 289.478,144.666 286.581,144.666C283.683,144.666 281.336,142.319 281.336,139.423C281.336,138.198 281.759,137.074 282.463,136.181L282.463,131.439L271.916,131.439L271.916,136.182C272.619,137.075 273.042,138.199 273.042,139.423C273.042,142.319 270.693,144.666 267.798,144.666C264.9,144.666 262.554,142.319 262.554,139.423C262.554,138.198 262.977,137.074 263.68,136.181L263.68,131.439L250.907,131.439C249.616,131.439 248.562,132.494 248.562,133.784L248.562,149.39C248.562,150.682 249.616,151.736 250.907,151.736L397.386,151.736C398.675,151.736 399.73,150.682 399.73,149.39L399.73,133.784C399.73,132.494 398.675,131.439 397.386,131.439" style="fill:rgb(197,201,208);fill-rule:nonzero;"/>
                <path d="M396.912,151.765L251.381,151.765C249.831,151.765 248.563,150.497 248.563,148.946C248.563,147.396 249.831,146.128 251.381,146.128L396.912,146.128C398.462,146.128 399.731,147.396 399.731,148.946C399.731,150.497 398.462,151.765 396.912,151.765" style="fill:rgb(83,95,113);fill-rule:nonzero;"/>
                <path d="M224.079,53.187C217.598,108.465 184.059,86.605 138.549,100.115C81.636,117.01 39.327,95.231 38.317,58.259C37.308,21.287 56.179,-24.63 129.37,-11.22C202.561,2.189 228.386,16.453 224.079,53.187" style="fill:rgb(189,214,68);fill-rule:nonzero;"/>
                <path d="M71.87,43.101C122.503,38.08 173.364,38.793 224.162,40.452C221.834,12.02 194.2,-0.572 129.162,-12.488C62.261,-24.745 40.749,12.564 38.315,47.303C49.461,45.614 60.65,44.214 71.87,43.101" style="fill:rgb(179,225,234);fill-rule:nonzero;"/>
                <path d="M63.29,26.396C60.356,25.987 57.17,27.945 55.75,30.918C55.158,32.158 54.899,33.671 54.878,35.084C54.776,41.848 57.577,42.782 57.977,44.648C58.376,46.514 59.376,48.147 62.377,48.264C63.836,48.321 65.482,48.106 66.568,46.867C68.233,44.969 68.737,41.785 68.9,39.2C69.025,37.218 69.044,35.026 68.762,33.061C68.451,30.908 67.554,28.845 65.981,27.573C65.155,26.905 64.236,26.528 63.29,26.396" style="fill:rgb(129,175,70);fill-rule:nonzero;"/>
                <path d="M63.027,48.021C63.027,48.021 63.232,53.116 63.232,54.735C63.231,56.354 62.98,61.444 63.897,61.444C62.396,61.328 60.06,61.211 60.06,61.211C60.06,61.211 61.698,60.166 61.782,56.349C61.866,52.533 62.095,47.9 62.095,47.9L63.027,48.021Z" style="fill:rgb(124,97,67);fill-rule:nonzero;"/>
                <path d="M62.043,48.246C62.045,48.214 62.225,44.998 61.06,41.603C60.491,39.944 59.846,39.081 59.277,38.321C58.657,37.493 58.072,36.712 57.75,35.149L58.208,35.022C58.503,36.453 59.025,37.151 59.631,37.96C60.225,38.754 60.899,39.654 61.498,41.399C62.704,44.916 62.522,48.149 62.513,48.285L62.043,48.246Z" style="fill:rgb(124,97,67);fill-rule:nonzero;"/>
                <path d="M59.713,38.74C59.73,38.719 61.531,36.569 61.247,33.364L61.716,33.308C62.022,36.78 60.127,39.034 60.046,39.128L59.713,38.74Z" style="fill:rgb(124,97,67);fill-rule:nonzero;"/>
                <path d="M62.544,47.996C62.565,47.812 63.073,43.463 64.693,40.985C66.208,38.67 65.362,34.377 65.354,34.334L65.363,34.368L65.811,34.207C65.848,34.394 66.717,38.795 65.067,41.318C63.523,43.679 63.016,48.025 63.011,48.068L62.544,47.996Z" style="fill:rgb(124,97,67);fill-rule:nonzero;"/>
                <path d="M64.882,40.933C64.815,40.897 63.252,40.02 63.146,37.667L63.617,37.637C63.707,39.654 65.025,40.405 65.082,40.436L64.882,40.933Z" style="fill:rgb(124,97,67);fill-rule:nonzero;"/>
                <path d="M65.841,36.916L65.839,36.917C65.876,36.908 66.763,36.689 66.849,35.301L67.318,35.34C67.228,36.799 66.367,37.362 65.924,37.456L65.841,36.916Z" style="fill:rgb(124,97,67);fill-rule:nonzero;"/>
                <path d="M61.855,44.106C61.833,44.103 59.68,43.817 59.049,40.748L59.507,40.619C60.057,43.298 61.828,43.55 61.903,43.56L61.855,44.106Z" style="fill:rgb(124,97,67);fill-rule:nonzero;"/>
                <path d="M75.309,50.917C75.308,50.917 70.693,48.08 71.281,31.802C71.479,28.782 71.638,25.683 72.223,22.72C72.592,20.86 73.014,18.425 74.512,17.357C75.491,16.659 76.776,16.605 77.868,16.818C78.932,17.027 80.033,17.031 81.09,17.281C83.166,17.773 85.038,19.279 85.166,21.964C85.299,24.722 84.625,27.839 84.214,30.562C83.88,32.772 83.636,35 83.245,37.197C82.549,41.123 81.615,45.61 79.296,48.7C78.783,49.382 78.195,49.992 77.489,50.368C77.069,50.592 75.743,51.182 75.309,50.917" style="fill:rgb(128,174,69);fill-rule:nonzero;"/>
                <path d="M75.129,62.816L76.363,48.815L74.974,48.75L73.55,62.816L75.129,62.816Z" style="fill:rgb(125,98,67);fill-rule:nonzero;"/>
                <path d="M76.276,49.078C76.287,49.027 77.521,43.863 79.764,39.678C82.085,35.352 82.344,30.293 82.355,30.079L81.694,30.048C81.692,30.099 81.431,35.118 79.208,39.264C76.909,43.552 75.652,48.825 75.639,48.878L76.276,49.078Z" style="fill:rgb(125,98,67);fill-rule:nonzero;"/>
                <path d="M75.637,49.071C75.66,48.779 76.201,41.875 74.408,39.21C72.752,36.752 73.483,29.643 74.053,27.228L73.416,27.027C72.801,29.637 72.062,36.992 73.888,39.707C75.518,42.127 74.984,48.939 74.98,49.007L75.637,49.071Z" style="fill:rgb(125,98,67);fill-rule:nonzero;"/>
                <path d="M79.733,39.204L79.735,39.207C79.722,39.19 78.428,37.36 78.584,31.504L77.923,31.492C77.757,37.725 79.18,39.658 79.24,39.736L79.733,39.204Z" style="fill:rgb(125,98,67);fill-rule:nonzero;"/>
                <path d="M73.161,33.342C73.246,33.319 75.253,32.755 75.79,29.777L75.145,29.624C74.7,32.087 73.093,32.559 73.023,32.577L73.161,33.342Z" style="fill:rgb(125,98,67);fill-rule:nonzero;"/>
                <path d="M78.523,36.708L78.526,36.707C78.513,36.712 78.166,36.816 77.838,36.548C77.491,36.266 77.268,35.647 77.191,34.759L76.535,34.85C76.633,35.999 76.949,36.792 77.472,37.208C78.056,37.673 78.671,37.47 78.697,37.46L78.523,36.708Z" style="fill:rgb(125,98,67);fill-rule:nonzero;"/>
                <path d="M77.292,44.792C77.386,44.776 79.604,44.383 80.926,41.061L80.328,40.735C79.171,43.647 77.569,43.96 77.489,43.973L77.292,44.792Z" style="fill:rgb(125,98,67);fill-rule:nonzero;"/>
                <path d="M90.446,30.61C87.343,30.433 84.176,32.753 82.942,35.985C82.428,37.332 82.285,38.936 82.382,40.415C82.848,47.498 85.857,48.235 86.432,50.153C87.008,52.07 88.192,53.693 91.341,53.558C92.87,53.493 94.574,53.127 95.605,51.739C97.186,49.612 97.444,46.238 97.395,43.522C97.359,41.438 97.192,39.144 96.732,37.112C96.225,34.888 95.112,32.807 93.359,31.611C92.44,30.982 91.446,30.666 90.446,30.61" style="fill:rgb(128,174,69);fill-rule:nonzero;"/>
                <path d="M91.424,62.956L92.967,62.956C92.881,61.868 92.829,60.84 92.782,60.252C92.646,58.56 92,53.248 92,53.248L91.015,53.201C91.015,53.201 91.168,58.066 91.403,62.064C91.421,62.379 91.427,62.675 91.424,62.956" style="fill:rgb(125,98,67);fill-rule:nonzero;"/>
                <path d="M90.989,53.567C90.989,53.534 90.904,50.155 89.399,46.704C88.664,45.018 87.916,44.171 87.256,43.423C86.538,42.611 85.861,41.844 85.392,40.238L85.86,40.065C86.289,41.537 86.894,42.223 87.596,43.016C88.285,43.795 89.066,44.679 89.839,46.454C91.398,50.029 91.481,53.425 91.483,53.568L90.989,53.567Z" style="fill:rgb(125,98,67);fill-rule:nonzero;"/>
                <path d="M87.749,43.825C87.766,43.801 89.466,41.4 88.899,38.072L89.384,37.973C89.999,41.578 88.207,44.096 88.13,44.202L87.749,43.825Z" style="fill:rgb(125,98,67);fill-rule:nonzero;"/>
                <path d="M91.493,53.263C91.499,53.069 91.662,48.477 93.148,45.747C94.536,43.196 93.289,38.779 93.276,38.734L93.289,38.77L93.744,38.563C93.799,38.755 95.08,43.284 93.567,46.063C92.151,48.665 91.988,53.252 91.988,53.298L91.493,53.263Z" style="fill:rgb(125,98,67);fill-rule:nonzero;"/>
                <path d="M93.34,45.676C93.267,45.644 91.558,44.861 91.249,42.408L91.738,42.338C92.003,44.439 93.445,45.113 93.507,45.14L93.34,45.676Z" style="fill:rgb(125,98,67);fill-rule:nonzero;"/>
                <path d="M94.003,41.394L94.001,41.394C94.04,41.382 94.949,41.077 94.921,39.618L95.414,39.619C95.444,41.152 94.591,41.815 94.136,41.951L94.003,41.394Z" style="fill:rgb(125,98,67);fill-rule:nonzero;"/>
                <path d="M90.443,49.254C90.42,49.253 88.144,49.138 87.224,45.981L87.692,45.808C88.495,48.562 90.368,48.675 90.447,48.678L90.443,49.254Z" style="fill:rgb(125,98,67);fill-rule:nonzero;"/>
                <path d="M102.984,39.682C101.038,39.41 98.924,40.71 97.982,42.682C97.589,43.505 97.417,44.508 97.403,45.445C97.335,49.933 99.194,50.553 99.459,51.79C99.724,53.029 100.387,54.112 102.379,54.19C103.346,54.228 104.438,54.085 105.159,53.263C106.264,52.004 106.598,49.891 106.706,48.176C106.789,46.862 106.801,45.408 106.614,44.104C106.408,42.676 105.813,41.307 104.769,40.463C104.221,40.02 103.611,39.769 102.984,39.682" style="fill:rgb(129,175,70);fill-rule:nonzero;"/>
                <path d="M102.81,54.028C102.81,54.028 102.946,57.408 102.946,58.482C102.945,59.556 102.779,62.933 103.387,62.933C102.391,62.856 100.842,62.779 100.842,62.779C100.842,62.779 101.928,62.085 101.984,59.553C102.04,57.021 102.192,53.948 102.192,53.948L102.81,54.028Z" style="fill:rgb(124,97,67);fill-rule:nonzero;"/>
                <path d="M102.156,54.177C102.157,54.156 102.277,52.022 101.504,49.77C101.127,48.669 100.699,48.097 100.321,47.592C99.909,47.044 99.522,46.525 99.308,45.489L99.612,45.404C99.808,46.353 100.154,46.817 100.556,47.353C100.95,47.88 101.397,48.477 101.794,49.635C102.594,51.968 102.474,54.113 102.467,54.203L102.156,54.177Z" style="fill:rgb(124,97,67);fill-rule:nonzero;"/>
                <path d="M100.611,47.871C100.623,47.857 101.817,46.431 101.628,44.304L101.94,44.267C102.143,46.571 100.886,48.066 100.832,48.128L100.611,47.871Z" style="fill:rgb(124,97,67);fill-rule:nonzero;"/>
                <path d="M102.489,54.011C102.503,53.889 102.84,51.004 103.915,49.36C104.92,47.824 104.359,44.976 104.353,44.947L104.359,44.97L104.657,44.863C104.681,44.987 105.258,47.907 104.163,49.581C103.138,51.147 102.802,54.03 102.799,54.059L102.489,54.011Z" style="fill:rgb(124,97,67);fill-rule:nonzero;"/>
                <path d="M104.04,49.326C103.995,49.302 102.959,48.72 102.889,47.159L103.2,47.14C103.26,48.477 104.135,48.976 104.172,48.996L104.04,49.326Z" style="fill:rgb(124,97,67);fill-rule:nonzero;"/>
                <path d="M104.676,46.661L104.675,46.661C104.699,46.656 105.288,46.511 105.345,45.589L105.656,45.615C105.596,46.584 105.025,46.957 104.731,47.019L104.676,46.661Z" style="fill:rgb(124,97,67);fill-rule:nonzero;"/>
                <path d="M102.032,51.431C102.018,51.429 100.589,51.239 100.171,49.203L100.474,49.118C100.839,50.895 102.014,51.062 102.064,51.069L102.032,51.431Z" style="fill:rgb(124,97,67);fill-rule:nonzero;"/>
                <path d="M112.685,39.209C110.066,39.075 107.393,40.836 106.352,43.289C105.918,44.312 105.798,45.53 105.88,46.653C106.273,52.03 108.812,52.59 109.298,54.046C109.784,55.501 110.783,56.733 113.44,56.631C114.732,56.582 116.169,56.304 117.039,55.25C118.373,53.635 118.592,51.074 118.55,49.011C118.519,47.429 118.378,45.688 117.991,44.145C117.562,42.457 116.623,40.877 115.143,39.969C114.367,39.492 113.529,39.252 112.685,39.209" style="fill:rgb(128,174,69);fill-rule:nonzero;"/>
                <path d="M113.511,63.766L114.813,63.766C114.74,62.94 114.697,62.16 114.657,61.713C114.542,60.429 113.997,56.395 113.997,56.395L113.166,56.36C113.166,56.36 113.295,60.053 113.493,63.089C113.509,63.328 113.513,63.552 113.511,63.766" style="fill:rgb(125,98,67);fill-rule:nonzero;"/>
                <path d="M113.144,56.638C113.144,56.613 113.073,54.048 111.803,51.427C111.182,50.148 110.551,49.504 109.994,48.937C109.388,48.32 108.816,47.738 108.42,46.518L108.815,46.388C109.178,47.505 109.689,48.026 110.281,48.628C110.862,49.219 111.521,49.89 112.174,51.238C113.49,53.952 113.559,56.53 113.561,56.639L113.144,56.638Z" style="fill:rgb(125,98,67);fill-rule:nonzero;"/>
                <path d="M110.409,49.242C110.423,49.224 111.858,47.401 111.379,44.874L111.789,44.799C112.308,47.536 110.795,49.448 110.73,49.528L110.409,49.242Z" style="fill:rgb(125,98,67);fill-rule:nonzero;"/>
                <path d="M113.569,56.407C113.574,56.26 113.712,52.774 114.966,50.701C116.137,48.764 115.084,45.411 115.074,45.377L115.084,45.404L115.468,45.247C115.515,45.393 116.596,48.831 115.319,50.941C114.124,52.916 113.987,56.399 113.987,56.434L113.569,56.407Z" style="fill:rgb(125,98,67);fill-rule:nonzero;"/>
                <path d="M115.128,50.647C115.067,50.623 113.624,50.028 113.363,48.166L113.776,48.113C113.999,49.708 115.217,50.219 115.269,50.24L115.128,50.647Z" style="fill:rgb(125,98,67);fill-rule:nonzero;"/>
                <path d="M115.687,47.396L115.686,47.396C115.718,47.387 116.485,47.155 116.461,46.048L116.878,46.048C116.903,47.212 116.183,47.716 115.799,47.819L115.687,47.396Z" style="fill:rgb(125,98,67);fill-rule:nonzero;"/>
                <path d="M112.683,53.364C112.663,53.363 110.743,53.276 109.967,50.879L110.362,50.747C111.039,52.839 112.619,52.924 112.686,52.927L112.683,53.364Z" style="fill:rgb(125,98,67);fill-rule:nonzero;"/>
                <path d="M49.09,54.892C49.09,54.892 46.386,53.23 46.731,43.694C46.846,41.925 46.939,40.11 47.282,38.374C47.498,37.284 47.745,35.858 48.623,35.232C49.197,34.824 49.949,34.791 50.589,34.917C51.213,35.039 51.857,35.041 52.477,35.188C53.693,35.476 54.789,36.358 54.864,37.931C54.942,39.546 54.547,41.373 54.307,42.968C54.111,44.262 53.968,45.567 53.739,46.855C53.331,49.155 52.784,51.783 51.425,53.593C51.125,53.993 50.781,54.35 50.367,54.57C50.121,54.702 49.344,55.047 49.09,54.892" style="fill:rgb(128,174,69);fill-rule:nonzero;"/>
                <path d="M48.985,61.862L49.708,53.66L48.894,53.622L48.06,61.862L48.985,61.862Z" style="fill:rgb(125,98,67);fill-rule:nonzero;"/>
                <path d="M49.657,53.814C49.664,53.784 50.386,50.759 51.7,48.307C53.06,45.773 53.212,42.809 53.218,42.684L52.831,42.666C52.83,42.696 52.677,45.636 51.374,48.065C50.028,50.577 49.291,53.666 49.284,53.697L49.657,53.814Z" style="fill:rgb(125,98,67);fill-rule:nonzero;"/>
                <path d="M49.283,53.81C49.297,53.639 49.613,49.595 48.563,48.033C47.593,46.594 48.021,42.429 48.355,41.014L47.982,40.897C47.622,42.426 47.189,46.734 48.259,48.324C49.213,49.742 48.901,53.733 48.898,53.773L49.283,53.81Z" style="fill:rgb(125,98,67);fill-rule:nonzero;"/>
                <path d="M51.682,48.03L51.683,48.032C51.675,48.022 50.917,46.95 51.009,43.519L50.621,43.512C50.524,47.164 51.358,48.296 51.393,48.342L51.682,48.03Z" style="fill:rgb(125,98,67);fill-rule:nonzero;"/>
                <path d="M47.832,44.596C47.882,44.583 49.057,44.252 49.372,42.507L48.994,42.418C48.734,43.861 47.792,44.138 47.751,44.148L47.832,44.596Z" style="fill:rgb(125,98,67);fill-rule:nonzero;"/>
                <path d="M50.973,46.567L50.975,46.567C50.967,46.57 50.764,46.631 50.571,46.473C50.369,46.308 50.238,45.945 50.193,45.425L49.808,45.479C49.866,46.152 50.051,46.616 50.358,46.86C50.7,47.132 51.06,47.015 51.075,47.009L50.973,46.567Z" style="fill:rgb(125,98,67);fill-rule:nonzero;"/>
                <path d="M50.252,51.303C50.307,51.294 51.606,51.063 52.381,49.117L52.03,48.927C51.353,50.632 50.414,50.816 50.368,50.823L50.252,51.303Z" style="fill:rgb(125,98,67);fill-rule:nonzero;"/>
                <path d="M120.945,56.92C120.945,56.92 118.241,55.258 118.586,45.722C118.701,43.953 118.794,42.138 119.137,40.402C119.353,39.312 119.6,37.886 120.478,37.26C121.052,36.852 121.804,36.819 122.444,36.945C123.068,37.067 123.712,37.069 124.332,37.216C125.547,37.504 126.644,38.386 126.719,39.959C126.797,41.574 126.402,43.401 126.162,44.996C125.966,46.29 125.823,47.595 125.594,48.883C125.186,51.183 124.639,53.811 123.28,55.621C122.98,56.021 122.636,56.378 122.222,56.598C121.976,56.73 121.199,57.075 120.945,56.92" style="fill:rgb(128,174,69);fill-rule:nonzero;"/>
                <path d="M120.839,63.89L121.562,55.688L120.748,55.65L119.914,63.89L120.839,63.89Z" style="fill:rgb(125,98,67);fill-rule:nonzero;"/>
                <path d="M121.511,55.842C121.518,55.812 122.24,52.787 123.554,50.335C124.914,47.801 125.066,44.837 125.072,44.712L124.685,44.694C124.684,44.724 124.531,47.664 123.228,50.093C121.882,52.605 121.145,55.694 121.138,55.725L121.511,55.842Z" style="fill:rgb(125,98,67);fill-rule:nonzero;"/>
                <path d="M121.137,55.838C121.151,55.667 121.467,51.623 120.417,50.061C119.447,48.622 119.875,44.457 120.209,43.042L119.836,42.925C119.476,44.454 119.043,48.762 120.113,50.352C121.067,51.77 120.755,55.761 120.752,55.801L121.137,55.838Z" style="fill:rgb(125,98,67);fill-rule:nonzero;"/>
                <path d="M123.536,50.058L123.537,50.06C123.529,50.05 122.771,48.978 122.863,45.547L122.475,45.54C122.378,49.192 123.212,50.324 123.247,50.37L123.536,50.058Z" style="fill:rgb(125,98,67);fill-rule:nonzero;"/>
                <path d="M119.686,46.624C119.736,46.611 120.911,46.28 121.226,44.535L120.848,44.446C120.588,45.889 119.646,46.166 119.605,46.176L119.686,46.624Z" style="fill:rgb(125,98,67);fill-rule:nonzero;"/>
                <path d="M122.827,48.596L122.829,48.595C122.821,48.598 122.618,48.659 122.425,48.502C122.223,48.337 122.092,47.974 122.047,47.454L121.662,47.508C121.72,48.18 121.905,48.645 122.212,48.889C122.554,49.161 122.914,49.043 122.929,49.037L122.827,48.596Z" style="fill:rgb(125,98,67);fill-rule:nonzero;"/>
                <path d="M122.106,53.332C122.161,53.323 123.46,53.092 124.235,51.146L123.884,50.956C123.207,52.661 122.268,52.845 122.222,52.852L122.106,53.332Z" style="fill:rgb(125,98,67);fill-rule:nonzero;"/>
                <path d="M208.761,44.485L146.801,44.485L145.875,39.882L154.585,27.095L159.663,29.553L173.157,17.687L189.803,32.252L199.282,25.779L208.761,38.495L208.761,44.485Z" style="fill:rgb(119,113,133);fill-rule:nonzero;"/>
                <path d="M186.629,31.212C184.027,31.16 181.451,33.2 180.521,35.941C180.134,37.084 180.065,38.431 180.194,39.666C180.808,45.578 183.349,46.101 183.892,47.687C184.435,49.274 185.476,50.595 188.107,50.385C189.385,50.283 190.799,49.924 191.618,48.73C192.873,46.901 192.982,44.071 192.855,41.799C192.758,40.057 192.546,38.143 192.096,36.457C191.601,34.612 190.603,32.906 189.099,31.959C188.309,31.462 187.468,31.228 186.629,31.212" style="fill:rgb(129,175,70);fill-rule:nonzero;"/>
                <path d="M188.648,50.105C188.648,50.105 189.357,54.529 189.526,55.941C189.693,57.354 190.003,61.82 190.803,61.725C189.482,61.78 187.431,61.921 187.431,61.921C187.431,61.921 188.753,60.838 188.428,57.5C188.105,54.162 187.823,50.097 187.823,50.097L188.648,50.105Z" style="fill:rgb(124,97,67);fill-rule:nonzero;"/>
                <path d="M187.813,50.403C187.811,50.375 187.634,47.551 186.265,44.71C185.596,43.322 184.943,42.636 184.368,42.032C183.74,41.374 183.149,40.754 182.706,39.424L183.092,39.265C183.498,40.483 184.026,41.038 184.639,41.68C185.24,42.311 185.922,43.026 186.625,44.486C188.043,47.429 188.221,50.268 188.227,50.388L187.813,50.403Z" style="fill:rgb(124,97,67);fill-rule:nonzero;"/>
                <path d="M184.791,42.353C184.805,42.333 186.152,40.27 185.57,37.503L185.973,37.406C186.603,40.403 185.183,42.566 185.122,42.657L184.791,42.353Z" style="fill:rgb(124,97,67);fill-rule:nonzero;"/>
                <path d="M188.225,50.133C188.224,49.971 188.215,46.124 189.371,43.793C190.451,41.616 189.267,37.958 189.255,37.922L189.267,37.951L189.641,37.764C189.693,37.923 190.909,41.672 189.732,44.045C188.63,46.265 188.64,50.109 188.64,50.147L188.225,50.133Z" style="fill:rgb(124,97,67);fill-rule:nonzero;"/>
                <path d="M189.529,43.729C189.467,43.705 188.012,43.102 187.675,41.06L188.082,40.986C188.371,42.735 189.599,43.254 189.651,43.275L189.529,43.729Z" style="fill:rgb(124,97,67);fill-rule:nonzero;"/>
                <path d="M189.948,40.125L189.946,40.126C189.978,40.114 190.729,39.832 190.659,38.611L191.072,38.596C191.146,39.879 190.453,40.459 190.077,40.588L189.948,40.125Z" style="fill:rgb(124,97,67);fill-rule:nonzero;"/>
                <path d="M187.219,46.811C187.2,46.811 185.291,46.785 184.422,44.173L184.808,44.013C185.567,46.293 187.137,46.329 187.204,46.33L187.219,46.811Z" style="fill:rgb(124,97,67);fill-rule:nonzero;"/>
                <path d="M199.664,51.355C199.664,51.355 195.342,49.36 194.162,35.098C194.021,32.443 193.837,29.723 194.04,27.077C194.168,25.416 194.282,23.248 195.479,22.16C196.26,21.45 197.375,21.268 198.35,21.341C199.3,21.412 200.261,21.301 201.209,21.41C203.071,21.623 204.861,22.742 205.252,25.071C205.655,27.463 205.391,30.253 205.316,32.671C205.255,34.634 205.273,36.603 205.16,38.56C204.961,42.058 204.614,46.069 202.911,49.006C202.535,49.654 202.085,50.248 201.508,50.649C201.166,50.889 200.07,51.541 199.664,51.355" style="fill:rgb(128,174,69);fill-rule:nonzero;"/>
                <path d="M200.745,61.753L200.365,49.41L199.147,49.498L199.368,61.917L200.745,61.753Z" style="fill:rgb(125,98,67);fill-rule:nonzero;"/>
                <path d="M200.316,49.649C200.321,49.603 200.86,44.97 202.381,41.085C203.956,37.07 203.656,32.63 203.643,32.442L203.063,32.484C203.067,32.529 203.362,36.934 201.853,40.782C200.293,44.763 199.745,49.493 199.74,49.541L200.316,49.649Z" style="fill:rgb(125,98,67);fill-rule:nonzero;"/>
                <path d="M199.759,49.71C199.749,49.453 199.503,43.374 197.661,41.235C195.961,39.263 195.859,32.985 196.106,30.819L195.529,30.71C195.264,33.051 195.384,39.544 197.26,41.722C198.933,43.664 199.176,49.663 199.179,49.723L199.759,49.71Z" style="fill:rgb(125,98,67);fill-rule:nonzero;"/>
                <path d="M202.306,40.676L202.308,40.679C202.295,40.665 200.975,39.203 200.502,34.078L199.925,34.137C200.428,39.591 201.869,41.129 201.931,41.192L202.306,40.676Z" style="fill:rgb(125,98,67);fill-rule:nonzero;"/>
                <path d="M195.962,36.245C196.034,36.216 197.726,35.515 197.885,32.861L197.306,32.795C197.174,34.99 195.821,35.569 195.762,35.592L195.962,36.245Z" style="fill:rgb(125,98,67);fill-rule:nonzero;"/>
                <path d="M200.99,38.624L200.992,38.623C200.981,38.628 200.689,38.755 200.375,38.556C200.044,38.346 199.785,37.829 199.626,37.062L199.062,37.21C199.268,38.202 199.626,38.861 200.126,39.17C200.683,39.514 201.199,39.274 201.22,39.262L200.99,38.624Z" style="fill:rgb(125,98,67);fill-rule:nonzero;"/>
                <path d="M200.757,45.805C200.837,45.781 202.731,45.207 203.539,42.172L202.984,41.95C202.277,44.611 200.912,45.051 200.844,45.07L200.757,45.805Z" style="fill:rgb(125,98,67);fill-rule:nonzero;"/>
                <path d="M177.204,57.548C177.204,57.548 174.672,56.379 173.981,48.025C173.898,46.469 173.79,44.875 173.909,43.325C173.984,42.353 174.051,41.082 174.752,40.445C175.21,40.029 175.863,39.923 176.434,39.966C176.991,40.007 177.554,39.942 178.109,40.006C179.2,40.131 180.248,40.786 180.478,42.15C180.713,43.552 180.559,45.186 180.515,46.603C180.479,47.753 180.49,48.906 180.424,50.053C180.307,52.102 180.104,54.451 179.106,56.172C178.886,56.552 178.623,56.899 178.285,57.135C178.084,57.275 177.442,57.657 177.204,57.548" style="fill:rgb(128,174,69);fill-rule:nonzero;"/>
                <path d="M177.838,63.64L177.616,56.409L176.902,56.461L177.031,63.736L177.838,63.64Z" style="fill:rgb(125,98,67);fill-rule:nonzero;"/>
                <path d="M177.587,56.549C177.589,56.522 177.905,53.808 178.797,51.532C179.719,49.18 179.544,46.579 179.536,46.469L179.196,46.494C179.199,46.52 179.371,49.1 178.487,51.355C177.574,53.687 177.252,56.458 177.249,56.485L177.587,56.549Z" style="fill:rgb(125,98,67);fill-rule:nonzero;"/>
                <path d="M177.26,56.585C177.254,56.434 177.11,52.873 176.031,51.62C175.035,50.465 174.975,46.787 175.12,45.518L174.782,45.455C174.627,46.826 174.697,50.63 175.796,51.906C176.776,53.043 176.918,56.557 176.92,56.593L177.26,56.585Z" style="fill:rgb(125,98,67);fill-rule:nonzero;"/>
                <path d="M178.752,51.293L178.753,51.294C178.745,51.286 177.973,50.43 177.695,47.428L177.357,47.462C177.652,50.658 178.497,51.559 178.532,51.595L178.752,51.293Z" style="fill:rgb(125,98,67);fill-rule:nonzero;"/>
                <path d="M175.036,48.697C175.078,48.68 176.069,48.27 176.163,46.715L175.823,46.676C175.746,47.962 174.953,48.301 174.919,48.314L175.036,48.697Z" style="fill:rgb(125,98,67);fill-rule:nonzero;"/>
                <path d="M177.981,50.091L177.982,50.09C177.976,50.093 177.805,50.168 177.621,50.051C177.427,49.928 177.275,49.625 177.182,49.176L176.852,49.263C176.972,49.844 177.182,50.23 177.475,50.411C177.801,50.612 178.103,50.472 178.116,50.465L177.981,50.091Z" style="fill:rgb(125,98,67);fill-rule:nonzero;"/>
                <path d="M177.845,54.297C177.892,54.283 179.001,53.947 179.475,52.169L179.149,52.039C178.735,53.597 177.936,53.855 177.896,53.866L177.845,54.297Z" style="fill:rgb(125,98,67);fill-rule:nonzero;"/>
                <path d="M139.919,60.242L143.005,62.477C143.005,62.477 140.065,67.493 138.648,69.103C138.419,69.363 137.712,71.415 137.882,70.478C138.107,69.243 136.204,70.037 136.155,67.016" style="fill:rgb(201,147,110);fill-rule:nonzero;"/>
                <path d="M136.371,66.719L130.916,77.667L132.683,78.465C132.683,78.465 137.477,72.175 137.975,70.609C138.478,69.026 136.371,66.719 136.371,66.719" style="fill:rgb(201,147,110);fill-rule:nonzero;"/>
                <path d="M124.682,78.285C126.066,78.654 130.108,79.371 130.667,78.138C130.752,77.951 133.067,79.339 133.067,79.339L131.524,82.37L123.917,78.92C123.917,78.92 123.481,77.965 124.682,78.285" style="fill:rgb(66,66,67);fill-rule:nonzero;"/>
                <path d="M124.002,78.632L125.983,79.53L129.572,81.158L131.552,82.056C131.667,82.109 131.718,82.244 131.666,82.359C131.614,82.474 131.479,82.525 131.364,82.473L129.383,81.575L125.794,79.947L123.813,79.048C123.698,78.996 123.647,78.861 123.699,78.746C123.751,78.631 123.887,78.58 124.002,78.632" style="fill:rgb(59,57,73);fill-rule:nonzero;"/>
                <path d="M131.016,77.187L133.112,78.167L132.672,79.108L130.666,78.139L131.016,77.187Z" style="fill:rgb(59,57,73);fill-rule:nonzero;"/>
                <path d="M143.524,60.675L147.32,61.001C147.32,61.001 147.383,66.816 146.998,68.925C146.936,69.266 147.549,71.291 147.213,70.4C146.77,69.226 145.383,70.984 143.786,68.42" style="fill:rgb(201,147,110);fill-rule:nonzero;"/>
                <path d="M143.78,68.63L152.479,77.229L153.789,75.8C153.789,75.8 149.309,69.282 147.976,68.32C146.63,67.348 143.78,68.63 143.78,68.63" style="fill:rgb(201,147,110);fill-rule:nonzero;"/>
                <path d="M147.471,56.22C147.471,56.22 147.976,57.25 147.518,58.692C147.179,59.76 147.511,63.851 147.511,63.851L141.812,63.851L141.565,56.374L142.317,52.907L147.471,56.22Z" style="fill:rgb(89,143,136);fill-rule:nonzero;"/>
                <path d="M150.086,83.095C151.057,82.041 153.572,78.798 152.741,77.729C152.615,77.567 154.921,76.163 154.921,76.163L156.885,78.939L150.292,84.067C150.292,84.067 149.244,84.009 150.086,83.095" style="fill:rgb(59,57,73);fill-rule:nonzero;"/>
                <path d="M150.077,83.858L151.794,82.523L154.905,80.103L156.621,78.768C156.721,78.691 156.865,78.709 156.942,78.808C157.02,78.908 157.002,79.052 156.902,79.129L155.185,80.464L152.074,82.884L150.358,84.219C150.258,84.297 150.114,84.279 150.037,84.179C149.959,84.079 149.977,83.936 150.077,83.858" style="fill:rgb(66,66,67);fill-rule:nonzero;"/>
                <path d="M152.061,76.977L153.904,75.577L154.532,76.405L152.741,77.73L152.061,76.977Z" style="fill:rgb(66,66,67);fill-rule:nonzero;"/>
                <path d="M147.834,56.73C148.411,59.833 146.559,60.291 145.424,61.291C144.583,62.032 142.848,64.459 142.848,64.459L137.962,61.524L141.703,55.734L144.031,52.403C144.031,52.403 147.257,53.627 147.834,56.73" style="fill:rgb(105,165,160);fill-rule:nonzero;"/>
                <path d="M143.827,46.357C145.11,46.634 144.86,47.707 144.86,47.707C144.843,47.809 143.976,49.823 143.126,50.911C141.907,52.472 140.477,54.445 138.727,55.081C137.503,55.526 134.019,50.26 133.975,50.273C133.932,50.286 135.324,49.259 135.324,49.259C135.374,49.238 138.068,52.828 138.68,52.463C139.719,51.842 142.168,47.276 142.169,47.269L142.168,47.277C142.168,47.277 142.642,46.101 143.827,46.357" style="fill:rgb(201,147,110);fill-rule:nonzero;"/>
                <path d="M141.565,56.375C141.565,56.375 141.448,56.187 141.593,54.005C141.739,51.822 141.089,50.686 140.969,49.627C140.848,48.567 141.445,47.59 141.792,46.845C142.289,45.775 141.32,45.186 143.147,45.026C144.344,44.922 145.416,45.09 146.03,45.428C146.353,45.606 147.233,46.379 147.255,46.636C147.255,46.636 147.251,50.613 147.251,52.165C147.251,53.717 147.834,56.731 147.834,56.731L141.565,56.375Z" style="fill:rgb(198,31,63);fill-rule:nonzero;"/>
                <path d="M144.798,47.447C144.552,46.158 145.638,45.969 145.638,45.969C145.739,45.945 147.931,45.958 149.264,46.316C151.178,46.83 153.552,47.377 154.821,48.74C155.708,49.694 152.218,54.956 152.247,54.991C152.275,55.026 150.786,54.144 150.786,54.144C150.748,54.107 153.003,50.226 152.427,49.805C151.451,49.09 146.291,48.616 146.284,48.618L146.292,48.616C146.292,48.616 145.025,48.638 144.798,47.447" style="fill:rgb(201,147,110);fill-rule:nonzero;"/>
                <path d="M139.934,41.502C139.741,41.913 140.212,42.022 140.288,42.297C140.407,42.723 140.403,43.081 140.613,43.48C140.924,44.075 141.609,44.142 142.171,43.868C142.776,43.573 142.691,43.835 142.716,44.135C142.767,44.766 142.955,45.188 142.856,45.111C143.191,44.963 144.859,45.171 145.189,45.005C145.134,44.863 144.934,44.145 144.89,43.997C144.85,43.855 144.834,43.37 144.895,43.058C144.946,42.795 145.153,41.556 145.051,40.94C144.735,39.023 141.715,36.117 140.998,38.614C140.958,38.753 140.591,39.078 140.499,39.973C140.442,40.517 140.112,41.124 139.934,41.502" style="fill:rgb(201,147,110);fill-rule:nonzero;"/>
                <g>
                    <g opacity="0.690002">
                        <clipPath id="_clip3">
                            <rect x="142.759" y="39.716" width="0.848" height="1.647"/>
                        </clipPath>
                        <g clip-path="url(#_clip3)">
                            <path d="M143.204,39.718C143.356,39.702 143.607,39.837 143.608,40.192L143.575,41.003C143.588,41.185 143.475,41.346 143.323,41.362C143.172,41.378 142.828,41.177 142.814,40.995L142.76,40.226C142.747,40.044 143.052,39.734 143.204,39.718" style="fill:rgb(153,108,83);fill-rule:nonzero;"/>
                        </g>
                    </g>
                </g>
                <path d="M143.159,39.498C143.342,39.486 143.64,39.628 143.632,39.983L143.573,40.793C143.585,40.976 143.446,41.133 143.263,41.145C143.081,41.156 142.673,40.946 142.661,40.763L142.675,40.032C142.76,39.757 142.976,39.51 143.159,39.498" style="fill:rgb(201,147,110);fill-rule:nonzero;"/>
                <path d="M143.013,40.339C143.006,40.228 142.928,40.138 142.825,40.111C142.859,40.014 143.026,39.887 143.113,39.882C143.211,39.875 143.372,39.952 143.368,40.143L143.336,40.58C143.342,40.679 143.267,40.763 143.169,40.77C143.079,40.775 142.889,40.682 142.851,40.591C142.952,40.552 143.02,40.452 143.013,40.339" style="fill:rgb(147,108,87);fill-rule:nonzero;"/>
                <path d="M140.986,40.329C141.099,40.319 141.199,40.403 141.209,40.516C141.219,40.63 141.135,40.729 141.022,40.739C140.908,40.749 140.809,40.665 140.799,40.552C140.789,40.439 140.873,40.339 140.986,40.329" style="fill:rgb(56,43,34);fill-rule:nonzero;"/>
                <path d="M140.72,39.93L141.261,39.942C141.314,39.943 141.357,39.987 141.355,40.041C141.354,40.094 141.31,40.136 141.256,40.135L140.716,40.124C140.662,40.123 140.62,40.078 140.621,40.025C140.622,39.971 140.666,39.929 140.72,39.93" style="fill:rgb(85,70,65);fill-rule:nonzero;"/>
                <path d="M141.199,42.538C141.061,42.74 140.772,42.901 140.419,42.955L140.396,42.699C140.689,42.667 140.96,42.61 141.197,42.536L141.199,42.538Z" style="fill:rgb(168,78,53);fill-rule:nonzero;"/>
                <path d="M132.291,46.973L133.323,47.066C133.456,47.078 133.555,47.196 133.543,47.329C133.531,47.462 133.413,47.56 133.28,47.548L132.247,47.455C132.114,47.443 132.016,47.326 132.028,47.192C132.04,47.059 132.158,46.961 132.291,46.973" style="fill:rgb(201,147,110);fill-rule:nonzero;"/>
                <path d="M133.648,47.318L134.376,48.056C134.469,48.151 134.468,48.305 134.373,48.399C134.278,48.493 134.124,48.491 134.031,48.396L133.303,47.658C133.209,47.563 133.21,47.41 133.306,47.316C133.401,47.222 133.554,47.223 133.648,47.318" style="fill:rgb(201,147,110);fill-rule:nonzero;"/>
                <path d="M134.903,48.796L134.927,49.268L134.778,49.648L135.168,50.414C135.168,50.414 133.977,50.128 133.738,49.889C133.5,49.649 133.498,49.674 133.407,49.455C133.197,48.95 133.925,49.118 133.925,49.118L134.077,48.531L133.071,48.335L133.063,47.858L134.164,47.881L134.903,48.796Z" style="fill:rgb(201,147,110);fill-rule:nonzero;"/>
                <path d="M132.954,47.868C133.079,47.82 133.219,47.882 133.267,48.007C133.315,48.132 133.252,48.272 133.128,48.32L132.16,48.692C132.035,48.739 131.895,48.677 131.847,48.552C131.799,48.427 131.862,48.287 131.986,48.24L132.954,47.868Z" style="fill:rgb(201,147,110);fill-rule:nonzero;"/>
                <path d="M133.068,48.439C133.193,48.391 133.333,48.453 133.381,48.578C133.429,48.703 133.366,48.843 133.242,48.891L132.274,49.263C132.149,49.311 132.009,49.248 131.961,49.124C131.914,48.999 131.976,48.858 132.1,48.811L133.068,48.439Z" style="fill:rgb(201,147,110);fill-rule:nonzero;"/>
                <path d="M133.315,48.962C133.44,48.914 133.58,48.976 133.628,49.101C133.676,49.226 133.614,49.366 133.489,49.414L132.705,49.715C132.58,49.763 132.44,49.7 132.392,49.575C132.344,49.451 132.406,49.311 132.531,49.263L133.315,48.962Z" style="fill:rgb(201,147,110);fill-rule:nonzero;"/>
                <path d="M134.338,48.921L133.071,48.877L133.095,48.431L134.425,48.218L134.338,48.921Z" style="fill:rgb(201,147,110);fill-rule:nonzero;"/>
                <path d="M134.15,49.689L133.298,49.385L133.338,48.954L134.626,48.758L134.15,49.689Z" style="fill:rgb(201,147,110);fill-rule:nonzero;"/>
                <path d="M132.125,48.246C132.193,48.223 132.283,48.495 132.216,48.518L132.086,48.562C132.019,48.584 131.943,48.542 131.918,48.466C131.893,48.391 131.927,48.312 131.995,48.29L132.125,48.246Z" style="fill:rgb(201,147,110);fill-rule:nonzero;"/>
                <path d="M132.269,48.807C132.336,48.784 132.427,49.057 132.36,49.079L132.23,49.123C132.162,49.145 132.087,49.103 132.062,49.027C132.037,48.952 132.071,48.873 132.139,48.85L132.269,48.807Z" style="fill:rgb(201,147,110);fill-rule:nonzero;"/>
                <path d="M132.666,49.285C132.734,49.262 132.825,49.534 132.757,49.557L132.627,49.6C132.56,49.623 132.484,49.58 132.459,49.505C132.434,49.43 132.468,49.351 132.536,49.329L132.666,49.285Z" style="fill:rgb(201,147,110);fill-rule:nonzero;"/>
                <path d="M133.574,47.311C133.585,47.314 133.592,47.326 133.589,47.337L133.51,47.64C133.507,47.652 133.495,47.658 133.484,47.655C133.473,47.653 133.466,47.641 133.469,47.63L133.548,47.326C133.551,47.315 133.563,47.308 133.574,47.311" style="fill:rgb(201,147,110);fill-rule:nonzero;"/>
                <path d="M133.475,47.288C133.486,47.291 133.493,47.302 133.49,47.314L133.441,47.502C133.438,47.513 133.427,47.52 133.416,47.517C133.404,47.514 133.397,47.502 133.4,47.491L133.449,47.303C133.452,47.292 133.464,47.285 133.475,47.288" style="fill:rgb(201,147,110);fill-rule:nonzero;"/>
                <path d="M133.026,47.951L133.084,48.136C133.087,48.147 133.081,48.159 133.07,48.163C133.058,48.166 133.047,48.16 133.043,48.149L132.986,47.964C132.982,47.952 132.988,47.94 133,47.937C133.011,47.933 133.023,47.94 133.026,47.951" style="fill:rgb(201,147,110);fill-rule:nonzero;"/>
                <path d="M133.202,48.506L133.26,48.691C133.263,48.702 133.257,48.714 133.246,48.718C133.234,48.721 133.222,48.715 133.219,48.704L133.161,48.519C133.158,48.507 133.164,48.495 133.175,48.492C133.187,48.488 133.198,48.495 133.202,48.506" style="fill:rgb(201,147,110);fill-rule:nonzero;"/>
                <path d="M134.154,47.665L135.231,49.292L135.14,50.367L134.182,50.534L132.94,49.243C132.723,49.045 132.76,48.293 133.068,47.958C133.374,47.622 133.937,47.467 134.154,47.665" style="fill:rgb(201,147,110);fill-rule:nonzero;"/>
                <path d="M131.081,45.676C131.066,45.232 131.416,44.857 131.86,44.842L132.716,44.812C133.16,44.797 133.535,45.147 133.551,45.59C133.566,46.034 133.216,46.409 132.772,46.425L131.915,46.454C131.472,46.47 131.096,46.12 131.081,45.676" style="fill:rgb(46,154,198);fill-rule:nonzero;"/>
                <path d="M131.082,45.693C131.074,45.471 131.249,45.283 131.471,45.276L133.135,45.218C133.356,45.21 133.544,45.386 133.552,45.607C133.559,45.829 133.384,46.017 133.162,46.025L131.499,46.082C131.277,46.09 131.09,45.915 131.082,45.693" style="fill:rgb(63,174,215);fill-rule:nonzero;"/>
                <path d="M132.1,50.334L131.966,46.453L132.873,46.422L133.007,50.303L132.1,50.334Z" style="fill:rgb(24,53,77);fill-rule:nonzero;"/>
                <path d="M131.341,50.999C131.326,50.555 131.676,50.18 132.119,50.165L132.976,50.135C133.42,50.12 133.795,50.47 133.811,50.913C133.826,51.357 133.476,51.732 133.032,51.748L132.175,51.778C131.732,51.793 131.356,51.443 131.341,50.999" style="fill:rgb(46,154,198);fill-rule:nonzero;"/>
                <path d="M131.342,51.016C131.334,50.794 131.509,50.606 131.731,50.599L133.395,50.541C133.616,50.533 133.804,50.709 133.812,50.93C133.819,51.152 133.644,51.34 133.422,51.348L131.759,51.405C131.537,51.413 131.35,51.238 131.342,51.016" style="fill:rgb(63,174,215);fill-rule:nonzero;"/>
                <path d="M132.164,52.169L132.152,51.827L133.059,51.796L133.071,52.138L132.164,52.169Z" style="fill:rgb(24,53,77);fill-rule:nonzero;"/>
                <path d="M131.91,44.84L131.898,44.498L132.805,44.467L132.817,44.809L131.91,44.84Z" style="fill:rgb(24,53,77);fill-rule:nonzero;"/>
                <path d="M132.502,48.263L133.534,48.356C133.667,48.368 133.766,48.486 133.754,48.619C133.742,48.752 133.624,48.85 133.491,48.838L132.458,48.745C132.325,48.733 132.227,48.616 132.239,48.482C132.251,48.349 132.369,48.251 132.502,48.263" style="fill:rgb(201,147,110);fill-rule:nonzero;"/>
                <path d="M150.467,54.42L150.501,54.414L149.899,55.262L148.29,55.358L148.475,55.137L149.221,54.538L150.467,54.42Z" style="fill:rgb(201,147,110);fill-rule:nonzero;"/>
                <path d="M146.389,54.41C146.108,54.067 146.159,53.556 146.503,53.275L147.166,52.732C147.51,52.451 148.021,52.502 148.302,52.845C148.583,53.189 148.532,53.7 148.188,53.981L147.524,54.524C147.181,54.805 146.67,54.754 146.389,54.41" style="fill:rgb(46,154,198);fill-rule:nonzero;"/>
                <path d="M146.4,54.423C146.259,54.251 146.285,53.996 146.457,53.855L147.745,52.801C147.917,52.661 148.172,52.686 148.313,52.858C148.453,53.03 148.428,53.285 148.256,53.426L146.968,54.48C146.796,54.62 146.541,54.595 146.4,54.423" style="fill:rgb(63,174,215);fill-rule:nonzero;"/>
                <path d="M150.023,57.498L147.564,54.492L148.267,53.918L150.726,56.923L150.023,57.498Z" style="fill:rgb(24,53,77);fill-rule:nonzero;"/>
                <path d="M149.822,58.487C149.541,58.143 149.592,57.633 149.936,57.352L150.599,56.809C150.943,56.528 151.454,56.579 151.735,56.922C152.016,57.266 151.965,57.777 151.621,58.058L150.957,58.601C150.614,58.882 150.103,58.83 149.822,58.487" style="fill:rgb(46,154,198);fill-rule:nonzero;"/>
                <path d="M149.833,58.5C149.692,58.328 149.718,58.073 149.89,57.932L151.178,56.878C151.35,56.738 151.605,56.763 151.746,56.935C151.886,57.107 151.861,57.362 151.689,57.503L150.401,58.557C150.229,58.697 149.974,58.672 149.833,58.5" style="fill:rgb(63,174,215);fill-rule:nonzero;"/>
                <path d="M151.185,58.919L150.969,58.654L151.671,58.08L151.888,58.344L151.185,58.919Z" style="fill:rgb(24,53,77);fill-rule:nonzero;"/>
                <path d="M146.542,53.243L146.326,52.978L147.028,52.404L147.245,52.668L146.542,53.243Z" style="fill:rgb(24,53,77);fill-rule:nonzero;"/>
                <path d="M148.086,56.05L148.535,55.116C148.593,54.996 148.738,54.945 148.859,55.003C148.979,55.061 149.03,55.206 148.972,55.326L148.523,56.26C148.465,56.38 148.32,56.431 148.199,56.373C148.079,56.315 148.028,56.171 148.086,56.05" style="fill:rgb(201,147,110);fill-rule:nonzero;"/>
                <path d="M148.885,54.9L149.832,54.478C149.954,54.423 150.097,54.478 150.151,54.601C150.206,54.722 150.151,54.866 150.029,54.92L149.083,55.342C148.96,55.397 148.817,55.342 148.763,55.22C148.708,55.098 148.763,54.955 148.885,54.9" style="fill:rgb(201,147,110);fill-rule:nonzero;"/>
                <path d="M150.71,54.244L151.161,54.387L151.464,54.66L152.318,54.564C152.318,54.564 151.632,55.578 151.325,55.718C151.017,55.858 151.039,55.868 150.802,55.876C150.255,55.895 150.668,55.273 150.668,55.273L150.172,54.924L149.635,55.798L149.186,55.638L149.594,54.615L150.71,54.244Z" style="fill:rgb(201,147,110);fill-rule:nonzero;"/>
                <path d="M149.156,55.743C149.155,55.609 149.262,55.5 149.396,55.499C149.53,55.498 149.639,55.605 149.64,55.739L149.649,56.776C149.649,56.909 149.542,57.018 149.408,57.02C149.274,57.021 149.165,56.913 149.164,56.779L149.156,55.743Z" style="fill:rgb(201,147,110);fill-rule:nonzero;"/>
                <path d="M149.732,55.837C149.731,55.703 149.838,55.594 149.972,55.593C150.106,55.592 150.215,55.699 150.216,55.833L150.225,56.869C150.226,57.003 150.118,57.112 149.985,57.113C149.851,57.114 149.741,57.007 149.74,56.873L149.732,55.837Z" style="fill:rgb(201,147,110);fill-rule:nonzero;"/>
                <path d="M150.308,55.789C150.307,55.655 150.414,55.546 150.548,55.545C150.682,55.544 150.791,55.651 150.792,55.785L150.799,56.625C150.8,56.758 150.692,56.868 150.558,56.869C150.425,56.87 150.316,56.762 150.315,56.629L150.308,55.789Z" style="fill:rgb(201,147,110);fill-rule:nonzero;"/>
                <path d="M150.629,54.816L150.143,55.987L149.734,55.808L150.001,54.488L150.629,54.816Z" style="fill:rgb(201,147,110);fill-rule:nonzero;"/>
                <path d="M151.281,55.263L150.697,55.954L150.308,55.765L150.576,54.491L151.281,55.263Z" style="fill:rgb(201,147,110);fill-rule:nonzero;"/>
                <path d="M149.22,56.652C149.222,56.581 149.509,56.591 149.507,56.662L149.502,56.799C149.499,56.87 149.433,56.926 149.354,56.923C149.275,56.92 149.212,56.86 149.215,56.789L149.22,56.652Z" style="fill:rgb(201,147,110);fill-rule:nonzero;"/>
                <path d="M149.795,56.714C149.797,56.643 150.084,56.653 150.082,56.724L150.077,56.861C150.074,56.933 150.008,56.988 149.929,56.985C149.85,56.982 149.787,56.922 149.79,56.851L149.795,56.714Z" style="fill:rgb(201,147,110);fill-rule:nonzero;"/>
                <path d="M150.382,56.51C150.384,56.439 150.671,56.449 150.669,56.52L150.664,56.657C150.661,56.728 150.595,56.784 150.516,56.781C150.437,56.778 150.374,56.718 150.377,56.647L150.382,56.51Z" style="fill:rgb(201,147,110);fill-rule:nonzero;"/>
                <path d="M148.853,54.967C148.86,54.957 148.873,54.955 148.883,54.962L149.139,55.142C149.149,55.149 149.151,55.162 149.144,55.172C149.137,55.182 149.124,55.184 149.115,55.177L148.858,54.997C148.848,54.99 148.846,54.977 148.853,54.967" style="fill:rgb(201,147,110);fill-rule:nonzero;"/>
                <path d="M148.796,55.052C148.803,55.043 148.817,55.04 148.826,55.047L148.984,55.158C148.994,55.165 148.996,55.179 148.99,55.188C148.984,55.198 148.969,55.2 148.96,55.193L148.801,55.082C148.793,55.075 148.789,55.062 148.796,55.052" style="fill:rgb(201,147,110);fill-rule:nonzero;"/>
                <path d="M149.26,55.705L149.453,55.716C149.465,55.717 149.474,55.727 149.474,55.738C149.473,55.75 149.463,55.759 149.451,55.758L149.258,55.747C149.246,55.746 149.237,55.736 149.237,55.725C149.238,55.713 149.248,55.704 149.26,55.705" style="fill:rgb(201,147,110);fill-rule:nonzero;"/>
                <path d="M149.841,55.734L150.035,55.745C150.046,55.746 150.055,55.756 150.055,55.767C150.054,55.78 150.044,55.788 150.032,55.788L149.839,55.777C149.827,55.776 149.818,55.766 149.819,55.754C149.819,55.742 149.829,55.733 149.841,55.734" style="fill:rgb(201,147,110);fill-rule:nonzero;"/>
                <path d="M149.388,54.548L151.29,54.111L152.264,54.573L152.084,55.529L150.44,56.239C150.178,56.372 149.487,56.074 149.28,55.669C149.074,55.264 149.126,54.682 149.388,54.548" style="fill:rgb(201,147,110);fill-rule:nonzero;"/>
                <path d="M141.926,38.959C142.205,39.287 142.172,39.531 142.216,39.783C142.261,40.035 142.208,40.71 142.459,40.78C142.711,40.85 142.771,39.788 142.771,39.788C142.771,39.788 142.919,39.367 143.165,39.42C143.411,39.473 143.642,40.006 143.642,40.006C143.642,40.006 143.928,40.554 143.949,40.774C143.97,40.995 144.024,41.382 144.153,41.744C144.644,43.116 144.978,42.578 144.978,42.578C144.978,42.578 146.736,41.236 146.236,39.901C145.833,38.825 146.583,38.955 145.41,37.867C144.786,37.288 144.456,37.094 143.712,37.067C141.783,36.996 141.126,38.647 141.126,38.647C141.126,38.647 141.647,38.631 141.926,38.959" style="fill:rgb(8,58,56);fill-rule:nonzero;"/>
                <path d="M146.248,39.668L146.244,39.265L146.384,39.021C146.864,38.962 148.389,39.165 148.799,40.663C149.503,43.231 147.22,44.019 147.041,45.441C146.932,46.308 148.32,48.163 148.32,48.163C148.32,48.163 146.179,48.262 145.166,46.926C143.564,44.814 146.614,42.264 146.903,41.283C147.192,40.302 146.346,39.968 146.346,39.968L146.248,39.668Z" style="fill:rgb(8,58,56);fill-rule:nonzero;"/>
                <path d="M139.999,37.259C140.356,37.209 140.066,37.629 141.238,37.527C141.579,37.497 142.099,37.298 142.621,37.105C144.367,36.463 144.881,37.157 144.969,37.354C145.023,37.472 145.057,37.6 145.062,37.715C145.07,37.881 145.102,38.354 144.719,38.62C144.32,38.898 143.968,38.454 142.976,38.719C142.269,38.908 141.597,39.072 141.004,38.991C139.932,38.844 139.642,37.309 139.999,37.259" style="fill:rgb(8,58,56);fill-rule:nonzero;"/>
            </g>
        </g>
    </g>
</svg>
