<?xml version="1.0" encoding="UTF-8" standalone="no"?><!DOCTYPE svg PUBLIC "-//W3C//DTD SVG 1.1//EN" "http://www.w3.org/Graphics/SVG/1.1/DTD/svg11.dtd"><svg width="100%" height="100%" viewBox="0 0 256 256" version="1.1" xmlns="http://www.w3.org/2000/svg" xmlns:xlink="http://www.w3.org/1999/xlink" xml:space="preserve" style="fill-rule:evenodd;clip-rule:evenodd;stroke-linejoin:round;stroke-miterlimit:1.41421;"><rect id="Artboard1" x="0" y="0" width="255.657" height="255.578" style="fill:none;"/><clipPath id="_clip1"><rect x="0" y="0" width="255.657" height="255.578"/></clipPath><g clip-path="url(#_clip1)"><g id="Layer-1"><g><g opacity="0.369995"><rect x="-0.241" y="0.253" width="255.512" height="256.287" style="fill:#cfb77a;fill-rule:nonzero;"/></g></g><path d="M51.375,118.383l23.356,0l-0.18,16.655c-0.645,4.144 -5.516,7.376 -11.5,7.376c-5.98,0 -10.85,-3.232 -11.495,-7.376l-0.181,-16.655Z" style="fill:#eebd92;fill-rule:nonzero;"/><path d="M51.467,127.246l-0.093,-8.863l23.357,0l-0.102,9.313c-2.57,0.857 -6.986,1.323 -11.579,1.2c-5.385,-0.145 -10.669,-1.157 -11.583,-1.65" style="fill:#eebd92;fill-rule:nonzero;"/><path d="M99.027,230.227l-75.471,-1.605c0,0 9.622,-17.486 10.944,-35.128c1.322,-17.643 -5.167,-59.509 -5.167,-59.509l36.154,-2.919l33.689,5.588c0,0 -13.08,45.168 -10.384,57.994c2.695,12.827 10.235,35.579 10.235,35.579" style="fill:#eebd92;fill-rule:nonzero;"/><path d="M24.21,135.638l14.474,-1.071l-0.322,15.125c-0.127,6.007 4.82,10.984 11.05,11.117l28.431,0.604c6.23,0.133 11.384,-4.629 11.512,-10.637l-1.199,-16.209l15.661,1.248c0,0 -7.681,40.467 -8.085,59.46c-0.404,18.994 13.226,60.446 13.226,60.446c0,0 -12.362,0.06 -46.288,0c-33.927,-0.06 -50.394,0.027 -50.394,0.027c0,0 13.851,-36.803 15.791,-56.882c1.94,-20.078 -3.857,-63.228 -3.857,-63.228" style="fill:#f5831f;fill-rule:nonzero;"/><path d="M24.555,136.429c0,0 -68.313,29.335 -68.313,36.909c0,7.575 50.027,63.558 50.027,63.558l6.889,-13.986l-29.233,-43.893l43.563,-13.09l-2.933,-29.498Z" style="fill:#efc9a5;fill-rule:nonzero;"/><path d="M6.71,225.619l16.272,-7.176l5.593,19.102l-22.305,-0.648l0.44,-11.278Z" style="fill:#efc9a5;fill-rule:nonzero;"/><path d="M22.982,218.442l8.264,-2.302l9.395,2.302l0,3.219l-9.421,-2.036l-6.925,4.651l-1.313,-5.834Z" style="fill:#efc9a5;fill-rule:nonzero;"/><path d="M22.361,224.028l9.111,0l7.423,3.965l-2.296,5.5l-2.761,5.521l-7.008,-1.47l-4.469,-13.516Z" style="fill:#efc9a5;fill-rule:nonzero;"/><path d="M95.938,171.22c0,0 31.261,44.108 38.784,41.415c7.522,-2.692 32.237,-70.222 32.237,-70.222l-11.383,-7.846l-23.17,42.339l-28.588,-41.091l-7.88,35.405Z" style="fill:#eebd92;fill-rule:nonzero;"/><path d="M95.822,89.514c-0.569,4.569 -3.071,8.019 -5.59,7.706c-2.518,-0.314 -4.099,-4.272 -3.53,-8.841c0.569,-4.569 3.072,-8.019 5.59,-7.706c2.518,0.314 4.099,4.272 3.53,8.841" style="fill:#f0bf94;fill-rule:nonzero;"/><g><g opacity="0.300003"><clipPath id="_clip2"><rect x="86.585" y="80.653" width="9.352" height="16.586"/></clipPath><g clip-path="url(#_clip2)"><path d="M95.822,89.514c-0.569,4.569 -3.071,8.019 -5.59,7.706c-2.518,-0.314 -4.099,-4.272 -3.53,-8.841c0.569,-4.569 3.072,-8.019 5.59,-7.706c2.518,0.314 4.099,4.272 3.53,8.841" style="fill:#8d615c;fill-rule:nonzero;"/></g></g></g><path d="M90.181,54.322c0,0 4.195,-2.022 6.148,15.842c1.232,11.275 -5.068,15.906 -5.068,15.906c0,0 -13.673,-20.623 -1.08,-31.748" style="fill:#473543;fill-rule:nonzero;"/><path d="M73.861,114.419l2.746,17.944c0,0 0.439,7.873 -12.885,7.933c-11.115,0.05 -12.643,-7.933 -12.643,-7.933l2.667,-18.067l20.115,0.123Z" style="fill:#f0bf94;fill-rule:nonzero;"/><path d="M73.673,115.301c0,0 -5.026,7.732 -11.626,10.442c-10.072,4.135 -8.483,-9.946 -8.483,-9.946l20.109,-0.496Z" style="fill:#8d615c;fill-rule:nonzero;"/><path d="M32.505,89.517c0.569,4.569 3.071,8.019 5.59,7.706c2.518,-0.314 4.099,-4.272 3.53,-8.841c-0.569,-4.569 -3.072,-8.019 -5.59,-7.706c-2.518,0.314 -4.099,4.272 -3.53,8.841" style="fill:#f0bf94;fill-rule:nonzero;"/><g><g opacity="0.300003"><clipPath id="_clip3"><rect x="32.389" y="80.656" width="9.351" height="16.587"/></clipPath><g clip-path="url(#_clip3)"><path d="M32.505,89.517c0.569,4.569 3.071,8.019 5.59,7.706c2.518,-0.314 4.099,-4.272 3.53,-8.841c-0.569,-4.569 -3.072,-8.019 -5.59,-7.706c-2.518,0.314 -4.099,4.272 -3.53,8.841" style="fill:#8d615c;fill-rule:nonzero;"/></g></g></g><path d="M47.126,111.322c0,0 -19.474,11.941 -22.119,27.261c-2.649,15.319 15.877,26.993 7.562,29.911c-3.405,1.094 -4.16,-1.824 -3.784,-2.553c-5.103,4.194 7.941,16.778 22.497,1.64c5.876,-6.109 4.35,-24.438 2.835,-35.016c-1.511,-10.579 -1.337,-16.049 -1.337,-16.049c0,0 -3.951,-4.005 -5.654,-5.194" style="fill:#473543;fill-rule:nonzero;"/><path d="M63.865,120.007c0,0 -0.702,-0.021 -1.876,-0.229c0.722,0.156 1.356,0.229 1.876,0.229" style="fill:#f0bf94;fill-rule:nonzero;"/><path d="M64.234,49.599c-6.606,0 -13.227,2.5 -18.3,7.292c7.646,-6.632 17.323,-7.25 18.3,-7.292" style="fill:#f0bf94;fill-rule:nonzero;"/><path d="M37.073,87.997c0.229,2.006 0.577,3.898 1.024,5.686c-0.411,-1.772 -0.754,-3.664 -1.024,-5.686" style="fill:#f0bf94;fill-rule:nonzero;"/><path d="M37.068,87.971c0.005,0.01 0.005,0.021 0.005,0.026c0.27,2.022 0.613,3.914 1.024,5.686c0.021,0.083 0.042,0.171 0.062,0.26c4.34,17.031 17.448,24.474 23.799,25.83c0.01,0 0.021,0.006 0.031,0.006c1.175,0.207 1.876,0.228 1.876,0.228c6.492,0 31.527,-14.984 26.808,-44.993c-2.723,-17.312 -14.511,-25.384 -26.361,-25.415l-0.078,0c-0.977,0.042 -10.654,0.66 -18.299,7.292c-0.021,0.021 -0.042,0.036 -0.058,0.052c-4.646,4.402 -7.983,10.733 -8.819,18.825c-0.458,4.454 -0.421,8.513 0.01,12.203" style="fill:#f0bf94;fill-rule:nonzero;"/><path d="M53.398,49.594c0,0 -0.026,0 -0.073,0.005l0.073,0l0,-0.005Z" style="fill:#f0bf94;fill-rule:nonzero;"/><path d="M38.159,93.943c4.88,20.602 18.71,24.926 23.799,25.831c-6.352,-1.357 -19.459,-8.799 -23.799,-25.831" style="fill:#f0bf94;fill-rule:nonzero;"/><path d="M36.73,84.873c0.094,1.065 0.208,2.1 0.338,3.098c-0.432,-3.69 -0.468,-7.75 -0.011,-12.204c0.837,-8.092 4.174,-14.422 8.82,-18.824c-5.795,5.051 -10.405,13.57 -9.147,27.93" style="fill:#f0bf94;fill-rule:nonzero;"/><path d="M86.462,81.234c0,0 -1.522,-4.878 -7.67,-4.939c-6.148,-0.06 -7.831,5.912 -7.831,5.912c0,0 4.419,1.79 7.708,1.79c4.894,0 7.793,-2.763 7.793,-2.763" style="fill:#fff;fill-rule:nonzero;"/><path d="M41.581,81.411c0,0 1.291,-4.982 7.439,-5.043c6.148,-0.06 7.594,5.833 7.594,5.833c0,0 -4.182,1.869 -7.471,1.869c-4.894,0 -7.562,-2.659 -7.562,-2.659" style="fill:#fff;fill-rule:nonzero;"/><path d="M77.228,79.475c0,1.895 1.438,3.431 3.212,3.431c1.773,0 3.211,-1.536 3.211,-3.431c0,-1.895 -1.438,-3.431 -3.211,-3.431c-1.774,0 -3.212,1.536 -3.212,3.431" style="fill:#473543;fill-rule:nonzero;"/><path d="M48.093,79.682c0,1.933 1.471,3.508 3.28,3.508c1.626,0 2.978,-1.268 3.237,-2.921c0.032,-0.192 0.047,-0.384 0.047,-0.587c0,-0.785 -0.244,-1.512 -0.655,-2.094c-0.743,-0.557 -1.559,-1.05 -2.432,-1.404c-0.062,-0.01 -0.13,-0.01 -0.197,-0.01c-0.941,0 -1.794,0.426 -2.391,1.112c-0.551,0.629 -0.889,1.471 -0.889,2.396" style="fill:#473543;fill-rule:nonzero;"/><path d="M95.983,55.241c0,0 -4.962,6.78 -28.428,8.86c-24.465,2.168 -30.098,6.627 -30.676,13.063c-0.357,3.97 -0.149,7.71 -0.149,7.71c0,0 -5.428,-4.756 -6.367,-10.55c-1.103,-6.816 -3.332,-15.358 2.8,-23.596c23.027,-30.938 50.53,-13.058 62.82,4.513" style="fill:#473543;fill-rule:nonzero;"/><path d="M41.431,92.435c0,2.49 2.018,4.508 4.508,4.508c2.49,0 4.509,-2.018 4.509,-4.508c0,-2.49 -2.019,-4.508 -4.509,-4.508c-2.49,0 -4.508,2.018 -4.508,4.508" style="fill:#efaf96;fill-rule:nonzero;"/><path d="M77.605,92.435c0,2.49 2.018,4.508 4.508,4.508c2.49,0 4.509,-2.018 4.509,-4.508c0,-2.49 -2.019,-4.508 -4.509,-4.508c-2.49,0 -4.508,2.018 -4.508,4.508" style="fill:#efaf96;fill-rule:nonzero;"/><path d="M88.294,75.039c0,0 -0.911,-0.844 -2.541,-1.748c-0.407,-0.227 -0.855,-0.463 -1.344,-0.686c-0.486,-0.229 -1.012,-0.448 -1.573,-0.633c-0.279,-0.1 -0.565,-0.195 -0.86,-0.274c-0.294,-0.084 -0.591,-0.176 -0.899,-0.236c-0.611,-0.142 -1.244,-0.236 -1.883,-0.312l-0.964,-0.08l-0.485,-0.019l-0.449,-0.03c-0.626,-0.021 -1.322,-0.032 -1.922,0.048c-1.239,0.147 -2.333,0.676 -3.166,1.243c-0.416,0.292 -0.768,0.6 -1.053,0.9c-0.277,0.313 -0.503,0.59 -0.656,0.851c-0.163,0.248 -0.257,0.472 -0.318,0.621c-0.059,0.151 -0.081,0.242 -0.081,0.242l0.2,0.166c0,0 0.075,-0.026 0.216,-0.074c0.139,-0.044 0.341,-0.11 0.599,-0.194c0.255,-0.075 0.554,-0.17 0.896,-0.256c0.339,-0.091 0.714,-0.186 1.119,-0.279c0.407,-0.09 0.838,-0.191 1.298,-0.275c0.457,-0.092 0.935,-0.193 1.432,-0.322c0.513,-0.133 0.982,-0.274 1.542,-0.386l0.445,-0.071l0.415,-0.059l0.846,-0.047c0.567,-0.008 1.14,-0.003 1.703,0.05c0.284,0.011 0.563,0.048 0.84,0.08c0.279,0.026 0.552,0.069 0.82,0.118c0.27,0.041 0.535,0.091 0.791,0.152c0.259,0.054 0.514,0.105 0.757,0.171c0.493,0.119 0.953,0.258 1.375,0.397c0.847,0.277 1.531,0.579 2.011,0.79c0.48,0.218 0.738,0.364 0.738,0.364l0.151,-0.212Z" style="fill:#473543;fill-rule:nonzero;"/><g><g opacity="0.360001"><clipPath id="_clip4"><rect x="59.74" y="93.683" width="8.493" height="4.246"/></clipPath><g clip-path="url(#_clip4)"><path d="M68.225,96.532c0.179,-0.386 -2.664,-2.849 -4.297,-2.849c-2.418,0 -4.188,2.607 -4.188,2.607c0.693,2.218 7.638,2.072 8.485,0.242" style="fill:#8d615c;fill-rule:nonzero;"/></g></g></g><path d="M70.962,82.727c0.056,-0.088 3.991,-6.167 8.003,-5.482c4.195,0.715 6.414,4.441 6.436,4.478l2.614,0.076c-0.106,-0.181 -2.667,-5.512 -8.766,-6.223c-5.168,-0.603 -9.531,5.952 -9.716,6.243l1.429,0.908Zm0,0l-0.714,-0.454l0.714,0.454Z" style="fill:#473543;fill-rule:nonzero;"/><path d="M40.016,82.01l2.146,-0.109c0.021,-0.037 2.22,-3.794 6.378,-4.563c0.145,-0.026 0.296,-0.042 0.441,-0.052c2.022,-0.12 4.101,1.419 5.629,2.983c0.899,0.92 1.611,1.85 2.006,2.453l1.414,-0.93c-0.109,-0.172 -1.689,-2.469 -4.028,-4.205c-0.743,-0.556 -1.559,-1.05 -2.432,-1.403c-1.045,-0.426 -2.173,-0.645 -3.332,-0.51c-6.107,0.718 -9.282,6.819 -8.222,6.336" style="fill:#473543;fill-rule:nonzero;"/><path d="M39.721,75.713c0,0 0.25,-0.159 0.718,-0.402c0.468,-0.236 1.136,-0.572 1.967,-0.893c0.415,-0.162 0.867,-0.324 1.353,-0.468c0.239,-0.079 0.491,-0.143 0.747,-0.211c0.253,-0.074 0.514,-0.137 0.782,-0.193c0.265,-0.062 0.536,-0.12 0.813,-0.161c0.275,-0.046 0.552,-0.097 0.834,-0.123c0.56,-0.082 1.131,-0.117 1.698,-0.139l0.848,0.003l0.417,0.037l0.448,0.048c0.566,0.083 1.041,0.199 1.56,0.305c0.504,0.103 0.986,0.179 1.448,0.247c0.463,0.06 0.898,0.138 1.309,0.207c0.41,0.071 0.789,0.148 1.133,0.221c0.346,0.068 0.649,0.146 0.908,0.208c0.262,0.07 0.468,0.126 0.608,0.163c0.144,0.041 0.22,0.062 0.22,0.062l0.191,-0.176c0,0 -0.027,-0.089 -0.093,-0.237c-0.069,-0.146 -0.175,-0.364 -0.35,-0.604c-0.167,-0.252 -0.407,-0.518 -0.7,-0.816c-0.3,-0.284 -0.668,-0.573 -1.098,-0.843c-0.862,-0.524 -1.982,-0.994 -3.227,-1.077c-0.603,-0.049 -1.298,-0.001 -1.921,0.052l-0.448,0.054l-0.483,0.044l-0.958,0.13c-0.634,0.11 -1.262,0.237 -1.865,0.41c-0.304,0.076 -0.596,0.184 -0.885,0.283c-0.291,0.094 -0.571,0.204 -0.844,0.318c-0.551,0.214 -1.065,0.46 -1.539,0.714c-0.476,0.248 -0.912,0.507 -1.306,0.755c-1.581,0.988 -2.446,1.878 -2.446,1.878l0.161,0.204Z" style="fill:#473543;fill-rule:nonzero;"/><path d="M78.855,79.475c0,0.875 0.71,1.585 1.585,1.585c0.875,0 1.585,-0.71 1.585,-1.585c0,-0.875 -0.71,-1.585 -1.585,-1.585c-0.875,0 -1.585,0.71 -1.585,1.585" style="fill:#371b10;fill-rule:nonzero;"/><path d="M53.021,79.743c0,0.895 -0.725,1.62 -1.62,1.62c-0.895,0 -1.62,-0.725 -1.62,-1.62c0,-0.895 0.725,-1.62 1.62,-1.62c0.895,0 1.62,0.725 1.62,1.62" style="fill:#371b10;fill-rule:nonzero;"/><path d="M52.523,102.92l0.12,0.182l0.244,0.359l0.156,0.228c0.296,0.416 0.675,0.92 1.128,1.461c3.341,3.991 10.737,10.088 19.448,0c0.39,-0.458 0.79,-0.946 1.19,-1.476c0.114,-0.146 0.224,-0.302 0.338,-0.453c0.078,-0.104 0.156,-0.213 0.229,-0.317l-1.081,-0.405l-20.53,0c-0.572,0.177 -0.993,0.327 -1.242,0.421" style="fill:#f5887f;fill-rule:nonzero;"/><path d="M52.523,102.92l0.52,0.769c0.296,0.416 0.675,0.92 1.128,1.461l19.448,0c0.39,-0.458 0.79,-0.946 1.19,-1.476c0.187,-0.245 0.379,-0.505 0.567,-0.77l-1.081,-0.405l-20.53,0c-0.572,0.177 -0.993,0.327 -1.242,0.421" style="fill:#fff;fill-rule:nonzero;"/><path d="M162.814,60.796c0,23.032 18.671,41.702 41.702,41.702c23.032,0 41.703,-18.67 41.703,-41.702c0,-23.032 -18.671,-41.702 -41.703,-41.702c-23.031,0 -41.702,18.67 -41.702,41.702" style="fill:#fff;fill-rule:nonzero;"/><path d="M204.517,22.212c21.275,0 38.584,17.309 38.584,38.584c0,21.275 -17.309,38.584 -38.584,38.584c-21.275,0 -38.584,-17.309 -38.584,-38.584c0,-21.275 17.309,-38.584 38.584,-38.584m0,83.405c24.714,0 44.821,-20.107 44.821,-44.821c0,-24.714 -20.107,-44.821 -44.821,-44.821c-24.714,0 -44.821,20.107 -44.821,44.821c0,24.714 20.107,44.821 44.821,44.821" style="fill:#439db2;fill-rule:nonzero;"/><path d="M52.523,102.92l0.12,0.182l0.244,0.359l0.156,0.228c1.944,-0.364 12.447,-2.162 21.766,-0.015c0.114,-0.146 0.224,-0.302 0.338,-0.453c0.078,-0.104 0.156,-0.213 0.229,-0.317l-1.081,-0.405c-8.701,-3.04 -17.183,-1.045 -20.53,0c-0.572,0.177 -0.993,0.327 -1.242,0.421" style="fill:#bb705f;fill-rule:nonzero;"/><g><g opacity="0.509995"><clipPath id="_clip5"><rect x="162.023" y="20.152" width="43.533" height="44.697"/></clipPath><g clip-path="url(#_clip5)"><path d="M205.556,20.152l0,44.697l-43.533,0l2.525,-15.979l5.812,-12.003l9.643,-9.811l9.822,-5.298l15.731,-1.606Z" style="fill:#439db2;fill-rule:nonzero;"/></g></g></g><path d="M143.833,72.844c1.575,-1.853 3.289,-3.052 6.497,-2.325c3.795,0.86 4.584,3.023 8.714,3.189c7.692,0.307 3.837,-9.952 -3.777,-7.224c2.481,-3.329 0.137,-8.43 -3.782,-5.43c-2.564,1.962 -2.464,5.731 -5.694,7.458c-0.274,-1.593 -2.882,-7.546 -5.296,-6.342c-1.88,0.937 1.305,4.415 2.013,5.654c-3.361,-2.786 -10.814,-3.524 -5.209,1.118c2.534,2.097 5.282,3.513 3.835,7.344c1.009,-1.205 1.834,-2.422 2.699,-3.442" style="fill:#497838;fill-rule:nonzero;"/><path d="M131.572,76.923c-2.481,7.352 5.787,9.582 4.436,17.779c4.095,-7.669 11.538,-5.118 13.742,-11.644c1.537,-4.555 -1.287,-9.62 -6.306,-11.314c-5.02,-1.694 -10.335,0.624 -11.872,5.179" style="fill:#d13627;fill-rule:nonzero;"/><path d="M141.177,72.442c0.627,0.075 1.26,0.208 1.888,0.42c4.396,1.483 6.893,5.887 5.566,9.818c-0.366,1.084 -0.906,1.863 -1.575,2.484c0.264,-0.426 0.506,-0.887 0.691,-1.435c1.477,-4.378 -1.461,-9.351 -6.57,-11.287" style="fill:#fff;fill-rule:nonzero;"/><path d="M156.635,114.241c0,0 -2.322,-7.156 -2.982,-8.253c-0.66,-1.097 -3.177,-5.266 -2.407,-9.63c0.77,-4.365 2.792,-6.109 -4.848,-14.027l-1.994,1.313c0,0 6.647,9.428 5.723,12.259c-0.924,2.831 2.52,14.69 5.193,19.122c2.673,4.433 1.315,-0.784 1.315,-0.784" style="fill:#a6a8ac;fill-rule:nonzero;"/><path d="M166.958,132.24l-0.844,-18.823l-5.354,-10.196l-9.064,-9.711l-0.68,4.299l6.385,9.704l-0.475,5.642l-1.89,0.654l-1.435,-7.492l-2.433,-3.065l-2.823,1.281l1.212,13.59l-2.386,7.006l6.596,12.555l2.118,1.259l11.073,3.781l0,-10.484Z" style="fill:#eebd92;fill-rule:nonzero;"/><path d="M181.773,67.967l26.902,0l0,-40.192l-6.237,0l0,33.955l-20.665,0l0,6.237Z" style="fill:#439db2;fill-rule:nonzero;"/></g></g></svg>